<?xml version="1.0" encoding="UTF-8" ?>
<!DOCTYPE svg PUBLIC "-//W3C//DTD SVG 1.1//EN" "http://www.w3.org/Graphics/SVG/1.1/DTD/svg11.dtd">
<svg width="1080pt" height="610pt" viewBox="0 0 1080 610" version="1.1" xmlns="http://www.w3.org/2000/svg">
<g id="#141a27ff">
<path fill="#141a27" opacity="1.00" d=" M 440.41 180.41 C 468.77 160.73 503.62 151.39 538.00 152.13 C 575.13 150.99 613.35 160.15 643.43 182.58 C 646.79 185.39 651.11 187.59 652.83 191.87 C 645.92 190.99 638.99 190.47 632.04 190.18 C 612.92 189.11 593.77 187.28 574.61 187.59 C 568.86 184.68 562.54 182.52 556.00 183.03 C 545.05 183.70 534.07 183.33 523.12 183.06 C 517.04 182.48 511.48 185.19 505.88 187.03 C 487.56 187.32 469.26 188.43 450.99 189.92 C 443.43 190.34 435.78 190.24 428.38 192.07 C 431.13 187.06 435.96 183.78 440.41 180.41 Z" />
<path fill="#141a27" opacity="1.00" d=" M 455.34 194.58 C 471.64 193.09 488.22 194.44 504.33 191.18 C 504.97 193.03 505.60 194.89 506.21 196.75 C 476.40 198.17 446.56 199.54 416.87 202.73 C 408.71 203.59 400.54 204.95 392.82 207.80 C 378.57 212.94 367.25 226.04 365.30 241.22 C 363.51 256.08 365.70 271.03 365.61 285.94 C 366.04 299.99 365.74 314.64 371.06 327.90 C 376.42 341.07 389.48 349.74 403.29 351.74 C 422.03 354.54 441.03 354.64 459.94 354.37 C 472.04 354.15 484.80 352.99 495.19 346.18 C 506.28 339.55 513.58 328.25 524.67 321.67 C 533.65 316.03 545.76 315.44 554.90 321.07 C 570.09 330.58 580.61 347.82 598.99 351.92 C 616.47 355.04 634.38 354.13 652.05 353.67 C 665.60 352.66 679.85 352.48 692.20 346.10 C 704.57 339.36 711.87 325.84 713.12 312.08 C 714.65 291.08 714.88 270.00 714.77 248.96 C 714.58 234.92 708.37 220.52 696.51 212.51 C 685.71 205.11 672.20 204.03 659.57 202.52 C 631.42 199.80 603.19 198.04 574.93 197.12 C 574.85 195.44 574.78 193.75 574.75 192.07 C 591.02 193.92 607.47 193.42 623.81 194.38 C 634.17 195.38 644.50 196.85 654.91 197.23 C 666.89 197.84 678.96 199.73 690.31 203.71 C 708.24 210.60 719.67 229.21 719.84 248.11 C 719.74 255.36 719.66 262.61 719.55 269.86 C 719.06 284.98 719.70 300.14 718.37 315.23 C 716.95 336.23 704.37 359.44 681.80 362.83 C 659.34 366.28 636.54 365.74 613.90 365.25 C 638.25 370.85 660.98 383.85 686.39 384.14 C 689.31 384.15 692.24 384.09 695.16 383.88 C 687.46 386.76 679.07 386.32 671.00 386.31 C 648.54 385.94 626.47 381.06 604.05 380.13 C 592.85 379.08 581.57 380.13 570.37 379.44 C 562.60 377.93 560.54 368.50 553.68 365.34 C 545.62 361.55 535.57 361.51 527.60 365.57 C 520.49 369.16 517.79 379.72 508.75 379.47 C 486.41 379.01 463.97 379.53 441.84 382.80 C 425.28 384.59 408.50 387.57 391.86 385.18 C 416.71 383.93 439.30 372.54 462.51 364.78 C 438.57 363.22 413.77 367.26 390.38 360.64 C 379.14 356.58 370.29 347.22 365.84 336.25 C 364.03 331.77 362.42 327.19 359.90 323.04 C 357.90 324.79 355.95 326.66 354.80 329.10 C 355.33 324.69 355.82 320.28 356.23 315.87 C 352.68 315.42 349.00 315.62 345.58 314.48 C 342.37 312.53 342.92 308.19 342.58 304.98 C 342.49 295.87 341.54 286.76 342.28 277.67 C 342.93 285.14 341.98 292.76 343.93 300.10 C 350.08 296.95 361.22 297.16 360.99 287.89 C 360.40 275.21 360.74 262.48 359.73 249.82 C 360.11 235.88 365.12 221.27 376.34 212.34 C 389.78 200.98 407.99 198.68 424.83 196.90 C 435.05 197.47 445.20 195.58 455.34 194.58 Z" />
<path fill="#141a27" opacity="1.00" d=" M 426.06 207.08 C 454.27 204.76 482.55 202.16 510.89 202.73 C 530.26 203.04 549.64 203.02 569.01 202.76 C 602.19 202.55 635.41 204.60 668.35 208.53 C 681.20 209.83 695.11 214.07 702.60 225.40 C 710.95 237.59 709.30 253.00 709.29 266.99 C 708.95 283.04 709.12 299.19 707.26 315.15 C 705.63 330.19 694.01 343.30 679.06 346.15 C 658.61 350.24 637.60 350.11 616.84 349.51 C 606.36 349.33 595.59 347.15 586.75 341.28 C 576.67 334.56 569.11 324.76 559.11 317.95 C 548.63 310.79 534.03 310.59 523.26 317.24 C 511.86 324.19 503.88 335.55 492.30 342.27 C 480.81 349.11 467.04 349.80 454.01 349.69 C 436.35 349.76 418.49 349.74 401.17 345.86 C 392.57 343.93 384.93 338.71 379.74 331.64 C 382.81 332.96 385.62 334.77 388.41 336.62 C 396.24 341.84 405.88 343.04 415.03 344.02 C 434.88 345.35 454.94 346.30 474.73 343.67 C 499.71 340.18 510.17 310.85 534.96 306.99 C 543.00 306.59 551.47 307.30 558.52 311.55 C 571.19 318.42 579.13 331.30 591.64 338.37 C 603.75 345.58 618.46 344.38 632.00 344.68 C 648.02 344.84 664.21 344.21 679.87 340.65 C 685.05 339.69 689.40 336.54 693.11 332.96 C 690.02 328.19 686.70 323.42 682.35 319.72 C 674.34 320.88 666.86 326.12 658.37 324.36 C 665.84 322.03 674.38 321.12 679.85 314.86 C 688.99 307.51 689.63 294.93 690.19 284.15 C 691.21 268.69 692.52 250.40 680.35 238.66 C 664.46 223.18 640.81 222.52 620.03 220.85 C 562.36 217.37 504.37 216.52 446.78 221.66 C 431.60 223.47 415.52 224.74 402.37 233.37 C 395.38 237.51 390.98 244.73 388.22 252.17 C 381.80 254.41 375.85 257.82 370.61 262.14 C 370.24 254.61 370.14 246.98 371.65 239.55 C 374.20 227.50 383.19 217.09 394.71 212.76 C 404.72 208.95 415.55 208.46 426.06 207.08 Z" />
</g>
<g id="#ebebecff">
<path fill="#ebebec" opacity="1.00" d=" M 505.88 187.03 C 511.48 185.19 517.04 182.48 523.12 183.06 C 522.96 184.60 522.82 186.14 522.72 187.69 C 518.45 192.43 514.62 197.55 510.89 202.73 C 482.55 202.16 454.27 204.76 426.06 207.08 C 415.55 208.46 404.72 208.95 394.71 212.76 C 383.19 217.09 374.20 227.50 371.65 239.55 C 370.14 246.98 370.24 254.61 370.61 262.14 C 371.49 277.17 371.13 292.25 372.74 307.24 C 373.60 315.61 374.07 324.88 379.74 331.64 C 384.93 338.71 392.57 343.93 401.17 345.86 C 418.49 349.74 436.35 349.76 454.01 349.69 C 467.04 349.80 480.81 349.11 492.30 342.27 C 503.88 335.55 511.86 324.19 523.26 317.24 C 534.03 310.59 548.63 310.79 559.11 317.95 C 569.11 324.76 576.67 334.56 586.75 341.28 C 595.59 347.15 606.36 349.33 616.84 349.51 C 637.60 350.11 658.61 350.24 679.06 346.15 C 694.01 343.30 705.63 330.19 707.26 315.15 C 709.12 299.19 708.95 283.04 709.29 266.99 C 709.30 253.00 710.95 237.59 702.60 225.40 C 695.11 214.07 681.20 209.83 668.35 208.53 C 635.41 204.60 602.19 202.55 569.01 202.76 C 563.65 198.15 561.57 190.23 554.84 187.29 C 555.36 187.25 556.39 187.17 556.91 187.13 C 555.99 186.35 555.08 185.58 554.16 184.81 C 554.77 184.21 555.38 183.62 556.00 183.03 C 562.54 182.52 568.86 184.68 574.61 187.59 C 574.68 189.08 574.72 190.57 574.75 192.07 C 574.78 193.75 574.85 195.44 574.93 197.12 C 603.19 198.04 631.42 199.80 659.57 202.52 C 672.20 204.03 685.71 205.11 696.51 212.51 C 708.37 220.52 714.58 234.92 714.77 248.96 C 714.88 270.00 714.65 291.08 713.12 312.08 C 711.87 325.84 704.57 339.36 692.20 346.10 C 679.85 352.48 665.60 352.66 652.05 353.67 C 634.38 354.13 616.47 355.04 598.99 351.92 C 580.61 347.82 570.09 330.58 554.90 321.07 C 545.76 315.44 533.65 316.03 524.67 321.67 C 513.58 328.25 506.28 339.55 495.19 346.18 C 484.80 352.99 472.04 354.15 459.94 354.37 C 441.03 354.64 422.03 354.54 403.29 351.74 C 389.48 349.74 376.42 341.07 371.06 327.90 C 365.74 314.64 366.04 299.99 365.61 285.94 C 365.70 271.03 363.51 256.08 365.30 241.22 C 367.25 226.04 378.57 212.94 392.82 207.80 C 400.54 204.95 408.71 203.59 416.87 202.73 C 446.56 199.54 476.40 198.17 506.21 196.75 C 505.60 194.89 504.97 193.03 504.33 191.18 C 504.83 189.79 505.35 188.41 505.88 187.03 Z" />
<path fill="#ebebec" opacity="1.00" d=" M 428.38 192.07 C 435.78 190.24 443.43 190.34 450.99 189.92 C 452.46 191.46 453.92 193.00 455.34 194.58 C 445.20 195.58 435.05 197.47 424.83 196.90 C 426.19 195.42 427.42 193.83 428.38 192.07 Z" />
<path fill="#ebebec" opacity="1.00" d=" M 632.04 190.18 C 638.99 190.47 645.92 190.99 652.83 191.87 C 653.27 193.75 653.99 195.54 654.91 197.23 C 644.50 196.85 634.17 195.38 623.81 194.38 C 626.43 194.25 629.05 194.05 631.66 193.78 C 631.28 192.96 630.91 192.14 630.55 191.33 C 630.92 191.04 631.67 190.47 632.04 190.18 Z" />
<path fill="#ebebec" opacity="1.00" d=" M 446.78 221.66 C 504.37 216.52 562.36 217.37 620.03 220.85 C 604.64 234.46 598.52 257.20 604.15 276.84 C 606.80 286.77 611.80 295.92 617.96 304.10 C 597.87 287.83 576.09 270.46 549.21 268.53 C 531.00 266.70 512.20 270.98 496.59 280.55 C 482.81 288.69 470.82 299.38 458.46 309.45 C 448.11 317.75 435.65 324.49 422.03 324.27 C 412.23 324.67 401.56 321.71 395.22 313.80 C 390.39 307.20 389.55 298.74 388.36 290.91 C 387.29 278.04 387.28 265.04 388.22 252.17 C 390.98 244.73 395.38 237.51 402.37 233.37 C 415.52 224.74 431.60 223.47 446.78 221.66 Z" />
</g>
<g id="#e89929ff">
<path fill="#e89929" opacity="1.00" d=" M 522.72 187.69 C 533.43 187.58 544.13 187.30 554.84 187.29 C 561.57 190.23 563.65 198.15 569.01 202.76 C 549.64 203.02 530.26 203.04 510.89 202.73 C 514.62 197.55 518.45 192.43 522.72 187.69 Z" />
<path fill="#e89929" opacity="1.00" d=" M 719.84 248.11 C 725.38 249.11 731.10 248.20 736.59 249.50 C 740.08 250.66 739.62 255.02 739.71 257.95 C 739.38 266.20 739.71 274.50 738.93 282.72 C 738.58 284.83 738.15 286.93 737.70 289.02 C 731.92 287.73 725.59 286.93 720.78 283.26 C 719.38 278.95 719.66 274.32 719.55 269.86 C 719.66 262.61 719.74 255.36 719.84 248.11 Z" />
<path fill="#e89929" opacity="1.00" d=" M 496.59 280.55 C 512.20 270.98 531.00 266.70 549.21 268.53 C 547.24 268.97 545.34 269.61 543.41 270.17 C 543.39 271.26 543.37 272.36 543.34 273.45 C 541.48 274.41 538.22 274.52 538.18 277.23 C 537.81 285.76 540.33 294.20 539.75 302.73 C 539.73 305.35 536.89 306.08 534.96 306.99 C 510.17 310.85 499.71 340.18 474.73 343.67 C 454.94 346.30 434.88 345.35 415.03 344.02 C 405.88 343.04 396.24 341.84 388.41 336.62 C 385.62 334.77 382.81 332.96 379.74 331.64 C 374.07 324.88 373.60 315.61 372.74 307.24 C 374.40 298.70 384.86 298.01 388.36 290.91 C 389.55 298.74 390.39 307.20 395.22 313.80 C 401.56 321.71 412.23 324.67 422.03 324.27 C 435.65 324.49 448.11 317.75 458.46 309.45 C 470.82 299.38 482.81 288.69 496.59 280.55 Z" />
<path fill="#e89929" opacity="1.00" d=" M 718.94 312.79 C 720.35 313.75 721.76 314.72 723.16 315.73 C 726.53 330.38 728.75 346.13 723.64 360.67 C 719.36 372.85 707.85 381.95 695.16 383.88 C 692.24 384.09 689.31 384.15 686.39 384.14 C 686.14 376.82 683.37 369.91 681.80 362.83 C 704.37 359.44 716.95 336.23 718.37 315.23 C 718.52 314.62 718.80 313.40 718.94 312.79 Z" />
</g>
<g id="#1c7396ff">
<path fill="#1c7396" opacity="1.00" d=" M 620.03 220.85 C 640.81 222.52 664.46 223.18 680.35 238.66 C 692.52 250.40 691.21 268.69 690.19 284.15 C 689.63 294.93 688.99 307.51 679.85 314.86 C 674.38 321.12 665.84 322.03 658.37 324.36 C 642.73 323.53 628.54 315.31 617.96 304.10 C 611.80 295.92 606.80 286.77 604.15 276.84 C 598.52 257.20 604.64 234.46 620.03 220.85 Z" />
<path fill="#1c7396" opacity="1.00" d=" M 343.36 251.35 C 348.33 248.77 354.34 250.26 359.73 249.82 C 360.74 262.48 360.40 275.21 360.99 287.89 C 361.22 297.16 350.08 296.95 343.93 300.10 C 341.98 292.76 342.93 285.14 342.28 277.67 C 342.44 268.98 339.96 259.59 343.36 251.35 Z" />
<path fill="#1c7396" opacity="1.00" d=" M 354.80 329.10 C 355.95 326.66 357.90 324.79 359.90 323.04 C 362.42 327.19 364.03 331.77 365.84 336.25 C 370.29 347.22 379.14 356.58 390.38 360.64 C 413.77 367.26 438.57 363.22 462.51 364.78 C 439.30 372.54 416.71 383.93 391.86 385.18 C 379.75 383.73 367.53 377.58 361.15 366.84 C 353.86 355.77 353.51 341.85 354.80 329.10 Z" />
</g>
<g id="#d54f36ff">
<path fill="#d54f36" opacity="1.00" d=" M 370.61 262.14 C 375.85 257.82 381.80 254.41 388.22 252.17 C 387.28 265.04 387.29 278.04 388.36 290.91 C 384.86 298.01 374.40 298.70 372.74 307.24 C 371.13 292.25 371.49 277.17 370.61 262.14 Z" />
<path fill="#d54f36" opacity="1.00" d=" M 543.41 270.17 C 545.34 269.61 547.24 268.97 549.21 268.53 C 576.09 270.46 597.87 287.83 617.96 304.10 C 628.54 315.31 642.73 323.53 658.37 324.36 C 666.86 326.12 674.34 320.88 682.35 319.72 C 686.70 323.42 690.02 328.19 693.11 332.96 C 689.40 336.54 685.05 339.69 679.87 340.65 C 664.21 344.21 648.02 344.84 632.00 344.68 C 618.46 344.38 603.75 345.58 591.64 338.37 C 579.13 331.30 571.19 318.42 558.52 311.55 C 551.47 307.30 543.00 306.59 534.96 306.99 C 536.89 306.08 539.73 305.35 539.75 302.73 C 540.33 294.20 537.81 285.76 538.18 277.23 C 538.22 274.52 541.48 274.41 543.34 273.45 C 543.37 272.36 543.39 271.26 543.41 270.17 Z" />
<path fill="#d54f36" opacity="1.00" d=" M 718.37 315.23 C 719.70 300.14 719.06 284.98 719.55 269.86 C 719.66 274.32 719.38 278.95 720.78 283.26 C 725.59 286.93 731.92 287.73 737.70 289.02 C 738.15 286.93 738.58 284.83 738.93 282.72 C 739.58 290.16 738.45 297.60 738.70 305.05 C 738.61 308.55 738.91 313.37 735.10 315.09 C 731.22 316.13 727.12 315.57 723.16 315.73 C 721.76 314.72 720.35 313.75 718.94 312.79 C 718.80 313.40 718.52 314.62 718.37 315.23 Z" />
<path fill="#d54f36" opacity="1.00" d=" M 613.90 365.25 C 636.54 365.74 659.34 366.28 681.80 362.83 C 683.37 369.91 686.14 376.82 686.39 384.14 C 660.98 383.85 638.25 370.85 613.90 365.25 Z" />
</g>
</svg>
