<?xml version="1.0" encoding="UTF-8" ?>
<!DOCTYPE svg PUBLIC "-//W3C//DTD SVG 1.1//EN" "http://www.w3.org/Graphics/SVG/1.1/DTD/svg11.dtd">
<svg width="1080pt" height="610pt" viewBox="0 0 1080 610" version="1.1" xmlns="http://www.w3.org/2000/svg">
<g id="#191838ff">
<path fill="#191838" opacity="1.00" d=" M 532.47 79.65 C 571.43 76.77 610.85 86.30 645.09 104.86 C 675.91 121.52 703.05 145.20 722.86 174.17 C 741.38 199.80 753.60 229.81 759.09 260.91 C 760.05 266.23 761.38 271.51 761.70 276.92 C 762.12 281.52 761.88 286.50 764.47 290.56 C 768.28 296.82 771.75 303.39 773.46 310.57 C 776.99 323.39 776.46 336.81 776.32 349.97 C 775.71 359.15 775.22 368.37 773.53 377.44 C 772.20 388.35 768.69 399.75 760.40 407.41 C 754.04 412.60 746.14 415.78 738.07 417.06 C 735.95 417.52 733.67 417.63 731.78 418.75 C 730.57 419.95 729.75 421.47 728.91 422.94 C 722.08 435.55 713.43 447.17 703.43 457.45 C 676.34 485.77 642.09 507.81 604.14 518.22 C 566.31 529.30 525.31 529.29 487.43 518.47 C 453.68 508.96 422.31 491.20 396.63 467.35 C 386.81 457.81 377.05 448.11 369.06 436.93 C 365.12 431.79 361.58 426.37 357.96 421.01 C 355.93 417.66 351.58 418.04 348.23 417.39 C 336.11 415.90 323.14 411.61 315.63 401.40 C 309.77 392.52 307.95 381.73 306.23 371.42 C 304.59 363.37 304.22 355.14 303.64 346.97 C 303.56 335.50 303.03 323.85 305.67 312.60 C 307.98 303.72 311.70 294.86 318.32 288.32 C 321.04 285.51 324.67 283.94 327.91 281.86 C 329.71 280.98 329.53 278.69 330.01 277.03 C 332.16 262.57 334.57 248.05 339.16 234.13 C 352.26 191.83 378.71 153.82 413.74 126.75 C 430.01 113.83 448.03 103.06 467.34 95.33 C 478.58 89.88 490.71 86.78 502.80 83.86 C 512.55 81.64 522.50 80.46 532.47 79.65 M 500.78 90.81 C 450.58 103.20 405.00 133.82 375.01 176.01 C 358.87 198.12 347.75 223.69 341.20 250.21 C 339.17 259.82 336.69 269.46 336.74 279.36 C 339.16 278.86 341.58 278.33 344.00 277.77 C 349.66 277.17 355.32 276.51 360.99 275.97 C 363.03 270.32 364.47 264.46 366.99 258.98 C 373.76 243.63 384.47 229.93 398.13 220.12 C 404.75 215.77 411.73 211.91 419.16 209.14 C 423.16 207.83 425.50 204.16 428.18 201.18 C 439.74 188.46 453.65 178.01 468.63 169.65 C 478.63 165.15 488.97 161.22 499.66 158.72 C 500.38 158.24 501.82 157.29 502.54 156.81 C 501.72 155.03 501.06 153.18 500.61 151.27 C 501.33 150.15 502.13 149.10 502.89 148.01 C 503.78 148.74 504.68 149.47 505.59 150.19 C 504.51 151.62 503.40 153.02 502.30 154.43 C 503.75 154.33 504.04 157.30 505.84 156.11 C 509.87 154.19 514.43 155.72 518.54 154.32 C 518.16 152.47 517.75 150.64 517.46 148.77 C 519.68 149.90 519.58 152.23 519.41 154.40 C 549.33 150.42 580.67 153.06 608.36 165.65 C 629.11 175.59 648.94 188.55 663.63 206.52 C 664.46 207.58 665.31 208.63 666.18 209.67 C 667.73 210.72 669.30 211.76 670.89 212.76 C 672.50 213.42 674.14 214.04 675.80 214.61 C 676.64 216.27 678.56 216.95 679.99 218.03 C 693.92 226.96 705.09 240.17 711.56 255.42 C 714.73 261.81 716.04 268.86 718.39 275.55 C 721.53 276.23 724.69 276.84 727.88 277.26 C 734.92 278.12 741.75 280.17 748.80 280.93 C 750.98 281.63 753.15 282.34 755.34 283.04 C 754.37 266.23 750.51 249.63 745.36 233.63 C 741.37 220.77 736.03 208.34 729.24 196.71 C 720.45 181.09 709.84 166.48 697.66 153.34 C 672.29 126.95 640.57 106.49 605.63 95.34 C 571.92 84.53 535.28 82.74 500.78 90.81 M 505.37 161.50 C 505.39 165.45 505.39 169.41 505.35 173.36 C 505.27 180.80 505.40 188.24 505.32 195.68 C 509.93 195.78 514.55 195.68 519.15 195.27 C 538.48 194.11 557.84 195.27 577.18 195.24 C 577.53 188.16 577.30 181.07 577.41 173.98 C 577.85 169.56 577.81 165.11 577.44 160.69 C 571.45 160.16 565.52 159.14 559.53 158.60 C 552.70 158.13 545.84 158.31 539.00 158.29 C 527.71 158.23 516.55 160.16 505.37 161.50 M 582.42 162.12 C 582.41 166.92 582.01 171.75 582.54 176.54 C 586.71 179.20 592.16 179.46 596.14 182.68 C 591.53 182.67 586.94 182.13 582.33 181.91 C 582.28 186.83 582.27 191.74 582.32 196.66 C 607.81 197.89 633.02 202.36 657.88 207.92 C 650.56 198.61 640.90 191.53 631.35 184.68 C 616.29 174.83 600.07 166.20 582.42 162.12 M 431.95 206.08 C 438.87 205.45 445.55 203.48 452.41 202.46 C 462.38 200.93 472.36 199.53 482.40 198.58 C 488.35 197.65 494.49 198.02 500.29 196.21 C 500.42 191.38 500.41 186.54 499.99 181.73 C 496.26 182.11 492.53 182.46 488.81 182.79 C 491.80 179.61 496.28 178.97 499.82 176.68 C 500.81 172.14 500.35 167.45 500.04 162.86 C 473.78 170.11 449.34 184.99 431.95 206.08 M 504.92 202.40 C 478.04 204.05 451.03 206.73 425.01 214.00 C 411.67 217.90 398.56 224.80 390.09 236.08 C 383.90 239.97 380.10 246.43 376.61 252.65 C 371.20 262.17 371.37 273.46 369.92 284.02 C 369.81 289.69 368.67 295.70 370.37 301.19 C 368.32 311.88 370.67 322.80 369.95 333.56 C 369.78 332.00 368.64 330.73 368.71 329.09 C 366.79 312.05 367.23 294.86 368.02 277.77 C 365.61 282.83 365.39 288.52 364.89 294.01 C 364.25 307.00 364.44 320.05 365.44 333.02 C 366.29 344.82 369.95 356.43 376.62 366.24 C 378.20 372.72 380.38 379.18 384.41 384.58 C 394.73 399.21 412.63 407.63 430.39 407.65 C 431.01 406.44 431.64 405.23 432.28 404.02 C 439.95 406.62 448.09 405.41 456.01 405.65 C 462.36 405.80 468.71 405.53 475.01 404.68 C 482.80 403.70 491.23 403.54 497.93 398.93 C 504.97 393.93 508.09 385.31 510.04 377.24 C 506.84 380.64 503.50 383.97 501.00 387.94 C 498.47 391.96 495.64 396.59 490.65 397.69 C 484.56 399.14 479.94 393.41 474.04 393.28 C 450.44 391.87 426.26 390.69 404.00 381.98 C 394.86 378.31 387.20 371.80 380.54 364.68 C 380.61 364.15 380.76 363.08 380.84 362.54 C 393.84 377.98 414.47 383.35 433.60 386.42 C 448.98 388.36 464.48 390.27 480.02 389.55 C 485.28 389.29 490.48 387.71 494.99 384.98 C 505.48 378.66 511.13 367.06 521.06 360.06 C 531.49 351.51 546.93 348.47 559.21 354.81 C 569.70 360.22 576.63 370.17 584.00 379.02 C 588.75 384.83 595.70 388.85 603.23 389.47 C 617.82 390.50 632.33 388.21 646.79 386.61 C 662.45 383.96 678.72 380.42 691.65 370.66 C 696.50 367.16 699.98 362.25 703.92 357.84 C 703.37 359.55 702.75 361.24 702.15 362.94 C 698.66 366.54 695.67 370.67 691.64 373.72 C 682.52 380.96 671.18 384.51 660.00 387.10 C 643.67 391.01 626.86 392.10 610.18 393.39 C 604.01 393.46 599.35 399.49 593.01 398.10 C 589.62 397.61 587.74 394.43 586.09 391.80 C 583.47 387.28 581.01 382.58 577.17 378.95 C 577.17 384.85 578.88 390.82 582.45 395.57 C 585.85 400.06 591.41 402.16 596.78 403.16 C 604.47 404.40 612.28 404.58 620.04 405.00 C 627.67 405.63 635.34 405.93 642.99 405.62 C 645.49 405.72 647.07 403.54 648.81 402.10 C 649.40 403.93 649.96 405.77 650.57 407.61 C 653.40 407.69 656.28 407.80 659.07 407.14 C 672.71 404.33 686.13 398.02 695.17 387.15 C 700.70 380.93 703.65 372.97 706.01 365.13 C 712.41 352.05 715.61 337.57 715.68 323.03 C 715.76 308.91 716.20 294.53 712.56 280.76 C 711.85 272.88 708.90 265.33 705.75 258.13 C 701.86 250.19 697.95 241.83 691.01 236.06 C 687.64 230.55 682.30 226.62 677.12 222.92 C 669.36 217.36 660.15 214.41 651.00 212.07 C 637.16 208.82 623.15 206.17 608.98 204.91 C 574.47 200.96 539.59 200.26 504.92 202.40 M 354.63 281.51 C 351.64 305.21 353.49 329.20 355.04 352.95 C 355.76 358.02 354.66 364.21 358.84 368.04 C 360.08 367.26 361.33 366.49 362.59 365.73 C 362.84 358.50 362.65 351.26 361.98 344.06 C 361.61 336.71 361.57 329.35 360.94 322.02 C 360.50 308.37 360.57 294.71 360.85 281.05 C 358.78 281.26 356.70 281.41 354.63 281.51 M 718.26 281.15 C 719.80 291.70 719.29 302.38 719.37 313.00 C 719.40 326.67 719.24 340.34 719.32 354.01 C 719.38 357.50 719.03 361.03 719.67 364.49 C 720.56 365.92 721.93 366.97 723.13 368.15 C 727.06 364.54 726.53 358.84 726.86 354.00 C 727.90 336.67 727.66 319.30 727.58 301.95 C 727.08 295.76 726.39 289.56 725.33 283.44 C 724.55 280.35 720.58 281.55 718.26 281.15 M 340.84 284.88 C 338.84 290.41 337.98 296.25 337.83 302.11 C 337.45 315.45 337.36 328.84 338.40 342.16 C 338.93 340.78 339.43 339.40 339.96 338.02 C 338.78 344.51 338.43 351.10 339.18 357.66 C 339.82 365.76 339.77 373.91 341.03 381.96 C 342.55 391.78 342.82 402.25 348.05 411.01 C 350.34 411.23 352.64 411.48 354.93 411.77 C 354.16 398.81 351.21 386.03 351.29 373.02 C 351.05 366.71 350.68 360.40 350.38 354.10 C 350.10 352.24 349.83 350.38 349.59 348.53 C 347.48 348.34 345.37 348.18 343.27 348.00 C 343.27 347.38 343.27 346.13 343.27 345.50 C 345.27 345.01 347.28 344.53 349.28 344.04 C 349.30 328.83 348.47 313.62 348.81 298.41 C 348.90 293.21 349.59 288.06 349.99 282.89 C 346.90 283.35 343.85 284.04 340.84 284.88 M 731.29 283.62 C 731.80 288.67 732.24 293.73 733.01 298.75 C 733.35 313.83 732.39 328.91 732.65 344.00 C 734.31 344.75 735.96 345.52 737.68 346.19 C 737.19 346.64 736.23 347.55 735.74 348.00 C 734.29 348.19 732.84 348.37 731.40 348.55 C 731.57 358.10 730.20 367.57 729.32 377.06 C 728.54 383.95 728.20 390.92 726.86 397.74 C 725.93 402.46 724.92 407.16 724.15 411.91 C 727.32 412.01 731.74 413.00 733.63 409.64 C 737.31 402.64 737.62 394.54 738.80 386.88 C 740.28 376.77 741.08 366.58 742.11 356.42 C 742.36 338.51 745.50 320.67 744.04 302.73 C 743.14 296.87 743.24 290.38 739.54 285.42 C 737.07 283.91 734.06 284.02 731.29 283.62 M 331.62 287.63 C 329.42 292.05 328.16 296.98 327.78 301.90 C 326.47 307.52 326.65 313.33 327.09 319.04 C 327.64 328.37 328.15 337.75 330.02 346.94 C 331.13 364.31 333.21 381.63 336.29 398.77 C 337.20 403.07 337.77 408.56 342.60 410.25 C 337.48 390.74 336.92 370.51 334.71 350.58 C 332.63 350.14 330.88 349.41 331.58 347.01 C 332.23 347.04 333.52 347.10 334.17 347.13 C 334.76 340.73 333.62 334.37 333.60 327.98 C 333.49 319.62 333.64 311.27 333.69 302.92 C 334.44 296.84 335.20 290.76 336.60 284.79 C 334.88 285.56 332.46 285.67 331.62 287.63 M 745.74 285.84 C 745.91 291.58 747.38 297.17 747.85 302.89 C 747.43 311.61 747.87 320.34 747.60 329.07 C 747.64 335.34 746.42 341.53 746.39 347.80 C 748.97 348.07 750.87 346.50 751.04 343.88 C 751.61 343.67 752.74 343.25 753.31 343.04 C 753.43 358.40 751.59 373.70 750.06 388.96 C 749.56 395.43 747.53 401.67 747.16 408.15 C 748.51 406.46 749.89 404.71 750.47 402.59 C 752.99 394.57 753.29 386.10 754.80 377.88 C 755.74 372.91 756.06 367.86 756.62 362.84 C 757.74 368.85 756.68 374.93 756.95 380.98 C 757.28 389.33 756.76 397.70 755.16 405.91 C 758.17 403.34 761.17 400.59 763.02 397.02 C 768.73 386.64 769.50 374.55 770.54 363.00 C 770.66 350.67 771.09 338.31 770.54 325.99 C 769.02 314.39 766.49 302.32 759.09 292.91 C 758.14 292.02 756.98 291.39 755.94 290.65 C 757.00 301.04 758.12 311.53 756.78 321.95 C 756.49 323.69 755.07 324.92 754.21 326.38 C 754.45 317.24 754.59 308.02 753.34 298.95 C 752.96 295.33 751.96 291.76 750.47 288.45 C 749.67 286.61 747.34 286.54 745.74 285.84 M 309.90 317.89 C 308.37 331.46 308.29 345.19 309.40 358.79 C 310.09 369.67 310.93 380.77 315.07 390.98 C 317.39 396.37 320.14 402.01 325.25 405.29 C 324.77 399.84 323.14 394.52 323.37 389.02 C 323.53 375.99 323.30 362.96 323.40 349.94 C 324.65 366.12 326.99 382.20 329.92 398.16 C 330.47 401.27 331.57 404.25 332.70 407.19 C 333.25 407.35 334.35 407.68 334.90 407.84 C 332.06 397.24 330.18 386.38 329.37 375.44 C 328.85 365.88 326.78 356.49 326.41 346.93 C 325.83 334.93 323.62 323.03 324.15 310.98 C 324.02 303.22 325.81 295.66 326.85 288.02 C 316.24 293.96 311.60 306.47 309.90 317.89 M 746.13 350.23 C 743.58 370.50 743.45 391.19 738.08 411.03 C 740.28 409.64 742.51 407.97 743.20 405.31 C 746.02 396.13 746.92 386.51 747.93 377.00 C 748.79 367.96 750.15 358.93 749.98 349.82 C 748.68 349.95 747.40 350.09 746.13 350.23 M 536.09 372.12 C 524.98 376.36 516.76 385.32 509.18 394.12 C 504.25 399.98 497.53 404.40 490.07 406.25 C 481.95 408.19 473.64 409.61 465.25 409.40 C 465.26 409.97 465.27 411.11 465.28 411.68 C 476.63 411.94 488.11 409.93 498.57 405.47 C 504.68 402.99 509.77 396.97 516.94 398.14 C 519.89 398.12 521.20 401.14 522.83 403.09 C 519.66 408.06 515.95 412.66 512.21 417.21 C 510.50 419.36 508.10 421.03 506.87 423.53 C 501.90 425.12 497.42 427.95 492.39 429.36 C 484.76 431.61 476.91 433.08 469.03 434.12 C 454.13 436.46 439.08 437.92 424.00 438.14 C 415.61 437.95 406.39 437.91 399.32 432.74 C 392.80 427.62 389.92 419.49 386.97 412.03 C 383.62 403.82 381.61 395.13 378.13 386.96 C 378.71 399.96 383.02 412.46 387.52 424.56 C 389.92 430.54 392.84 436.97 398.64 440.37 C 405.05 444.11 412.57 445.65 419.94 445.68 C 427.63 445.71 435.33 445.65 443.02 445.68 C 449.73 445.79 456.34 444.50 463.00 443.85 C 471.37 442.71 479.87 441.71 487.84 438.76 C 493.11 436.83 497.72 433.52 502.11 430.10 C 503.53 428.89 505.18 427.74 505.86 425.91 C 515.57 418.34 522.38 406.64 534.59 402.58 C 542.92 399.47 553.02 400.18 560.06 405.93 C 566.82 411.63 571.91 419.04 578.63 424.80 C 585.56 432.53 594.54 438.38 604.40 441.62 C 615.02 444.40 626.02 445.57 636.98 445.86 C 649.69 446.31 662.64 446.84 675.14 444.10 C 683.92 442.31 690.75 435.31 694.18 427.28 C 700.70 412.33 703.40 396.09 705.80 380.06 C 703.55 386.63 702.32 393.48 700.17 400.08 C 697.29 408.89 694.85 418.01 689.90 425.94 C 686.27 431.46 680.56 436.03 673.82 436.74 C 661.30 438.24 648.68 436.92 636.13 436.45 C 627.40 435.64 618.74 434.13 610.05 433.00 C 600.68 431.14 590.85 429.62 582.78 424.15 C 598.03 422.01 613.41 420.25 628.84 420.76 L 628.80 419.91 C 617.99 419.62 607.10 420.45 596.37 418.95 C 597.52 415.37 599.00 411.90 601.00 408.71 C 594.71 406.82 588.09 405.30 582.74 401.29 C 577.33 397.66 574.12 391.86 569.90 387.07 C 565.36 381.92 560.70 376.56 554.43 373.48 C 548.84 370.63 541.98 369.41 536.09 372.12 M 685.74 399.82 C 674.96 406.69 662.11 410.71 649.29 410.57 C 647.41 413.24 645.87 416.21 643.43 418.42 C 641.31 419.27 639.01 419.40 636.80 419.79 C 645.30 420.31 653.28 416.88 661.09 414.00 C 674.43 408.60 688.45 402.29 697.10 390.25 C 693.32 393.45 689.97 397.19 685.74 399.82 M 392.12 398.07 C 396.26 402.82 402.13 405.36 407.53 408.36 C 416.58 412.89 426.29 415.96 435.96 418.88 C 448.18 420.96 460.79 421.39 473.06 419.37 C 464.04 419.11 454.98 419.61 445.95 419.27 C 442.80 419.02 439.50 418.86 436.61 417.45 C 434.62 415.39 433.24 412.84 431.69 410.46 C 417.60 410.50 403.56 406.37 392.12 398.07 M 530.74 408.77 C 525.14 412.71 520.13 417.46 515.73 422.70 C 512.74 426.37 508.54 429.22 506.96 433.88 C 513.13 432.77 518.79 429.81 525.00 428.85 C 536.93 426.78 549.19 427.64 561.04 429.82 C 567.16 430.84 572.95 433.32 579.16 433.89 C 575.95 428.86 571.21 425.12 567.56 420.44 C 562.67 414.75 557.93 407.84 550.25 405.84 C 543.72 404.43 536.35 404.80 530.74 408.77 M 437.84 409.45 C 438.86 410.53 439.43 412.49 441.18 412.53 C 446.67 412.88 452.24 413.00 457.66 411.92 C 457.69 411.27 457.75 409.99 457.78 409.34 C 451.13 409.40 444.48 409.20 437.84 409.45 M 624.18 409.36 C 624.18 410.43 624.19 411.51 624.20 412.59 C 629.12 412.63 634.06 413.00 638.99 412.64 C 640.68 412.66 641.80 411.26 643.04 410.31 C 636.84 408.97 630.47 409.33 624.18 409.36 M 713.42 420.52 L 713.18 421.12 C 709.46 420.74 705.07 420.04 702.19 423.03 C 698.37 430.31 695.43 438.48 689.03 443.99 C 683.27 449.01 675.39 450.19 668.08 451.20 C 651.24 453.11 634.23 452.13 617.40 450.51 C 607.75 449.54 598.19 447.71 588.88 445.03 C 583.90 443.67 579.11 441.55 573.94 441.02 L 574.10 440.21 C 566.63 438.22 559.29 435.61 551.60 434.56 C 544.80 433.80 537.94 434.13 531.12 434.38 L 531.04 435.24 C 526.91 435.70 522.83 436.56 518.87 437.78 C 508.11 441.07 497.29 444.13 486.56 447.49 C 467.00 451.46 446.94 452.50 427.01 452.31 C 416.03 452.21 405.03 450.44 394.85 446.23 C 391.57 443.10 388.68 439.61 385.89 436.05 C 384.56 431.35 383.29 426.47 380.51 422.39 C 379.10 421.67 377.44 421.92 375.92 421.72 C 372.08 420.79 368.15 420.26 364.19 420.12 C 371.45 428.80 377.47 438.47 385.32 446.68 C 409.90 474.83 441.99 496.23 477.16 508.77 C 503.65 518.11 532.08 521.51 560.07 519.67 C 595.52 517.46 630.19 505.36 659.77 485.77 C 673.66 476.28 687.04 465.87 698.50 453.50 C 708.08 443.23 717.02 432.11 723.35 419.51 C 720.04 419.86 716.73 420.25 713.42 420.52 Z" />
<path fill="#191838" opacity="1.00" d=" M 490.89 105.55 C 492.64 104.09 494.53 103.96 496.15 105.68 C 495.61 105.98 494.52 106.56 493.98 106.86 C 492.94 106.41 491.91 105.98 490.89 105.55 Z" />
<path fill="#191838" opacity="1.00" d=" M 508.85 142.40 C 509.64 142.39 511.21 142.36 512.00 142.35 C 511.58 143.65 511.15 144.94 510.72 146.23 C 510.06 144.97 509.43 143.69 508.85 142.40 Z" />
<path fill="#191838" opacity="1.00" d=" M 507.90 150.55 C 509.22 150.09 510.51 149.53 511.79 148.95 C 511.54 150.31 511.27 151.67 510.99 153.02 C 509.95 152.21 508.92 151.38 507.90 150.55 Z" />
<path fill="#191838" opacity="1.00" d=" M 572.00 189.07 C 572.27 184.31 572.07 179.42 573.67 174.85 C 574.34 180.57 574.07 186.34 573.87 192.09 C 561.24 192.05 548.62 191.78 535.99 191.68 C 527.27 191.75 518.56 192.23 509.84 192.14 C 508.94 186.70 509.05 181.17 509.40 175.68 C 511.09 176.90 510.62 179.15 510.77 180.95 C 510.69 183.72 511.18 186.47 511.81 189.16 C 531.87 188.48 551.94 188.47 572.00 189.07 Z" />
<path fill="#191838" opacity="1.00" d=" M 573.84 220.47 C 577.56 220.06 581.30 219.60 585.06 219.85 C 603.41 221.12 621.43 225.11 639.17 229.81 C 650.00 233.44 661.61 236.81 669.99 245.01 C 675.64 250.44 677.94 258.16 680.19 265.43 C 682.00 276.87 682.19 288.50 681.73 300.06 C 681.21 310.58 678.31 321.33 671.72 329.71 C 666.94 336.01 659.80 340.05 652.35 342.35 C 641.56 345.66 630.50 348.29 619.25 349.41 C 611.80 350.18 604.27 351.03 596.80 350.13 C 596.32 350.05 595.37 349.88 594.90 349.80 C 602.79 345.31 611.40 342.13 618.86 336.90 C 633.47 326.95 646.41 312.64 649.86 294.82 C 653.29 278.66 648.37 261.01 636.87 249.12 C 627.33 239.55 614.86 233.62 602.58 228.37 C 593.42 224.37 583.60 222.37 573.84 220.47 Z" />
<path fill="#191838" opacity="1.00" d=" M 469.84 223.83 C 474.61 223.01 479.45 223.03 484.27 222.96 C 482.49 223.79 480.75 224.69 479.00 225.59 C 485.66 232.74 493.00 239.28 498.85 247.16 C 507.99 258.69 514.25 273.47 512.30 288.40 C 510.42 302.30 502.16 314.09 494.28 325.27 C 488.06 333.59 482.28 342.28 475.31 350.01 C 466.93 348.16 458.29 348.57 449.87 347.05 C 440.96 345.50 431.88 344.16 423.57 340.43 C 413.90 336.32 406.75 327.50 403.24 317.76 C 398.96 304.63 398.87 290.52 400.64 276.94 C 401.53 267.58 404.47 258.40 409.29 250.33 C 413.31 243.62 419.99 239.13 426.95 235.88 C 440.34 229.18 455.19 226.29 469.84 223.83 M 473.15 237.07 C 477.66 250.14 482.83 263.21 483.78 277.15 C 485.43 291.24 482.19 305.22 478.78 318.80 C 477.39 324.86 475.20 330.79 475.03 337.07 C 479.33 329.73 483.60 322.37 488.13 315.16 C 494.84 303.78 501.05 290.73 498.67 277.17 C 496.28 260.85 484.87 247.83 473.15 237.07 Z" />
<path fill="#191838" opacity="1.00" d=" M 608.83 245.16 C 617.01 244.88 624.64 249.04 630.10 254.91 C 643.40 268.70 646.77 292.24 634.99 308.00 C 631.88 311.97 627.38 316.63 621.84 315.29 C 629.96 307.03 635.32 295.74 634.95 284.01 C 635.45 272.70 629.84 261.85 621.64 254.34 C 617.83 250.66 613.04 248.30 608.83 245.16 Z" />
<path fill="#191838" opacity="1.00" d=" M 702.12 299.76 C 703.63 311.84 703.15 324.38 698.91 335.90 C 694.58 349.05 685.24 360.63 672.68 366.68 C 655.17 375.34 635.47 378.14 616.26 380.33 C 607.22 381.14 596.92 381.64 589.50 375.47 C 580.59 367.74 574.39 357.22 564.66 350.37 C 557.70 345.14 548.67 342.98 540.08 344.24 C 529.06 345.60 519.68 352.39 511.90 359.90 C 506.26 365.25 501.98 372.19 495.07 376.09 C 488.11 380.04 479.86 380.51 472.03 380.29 C 457.99 379.77 444.02 377.79 430.31 374.74 C 420.85 372.64 411.53 369.11 403.77 363.21 C 391.03 353.28 384.51 337.67 380.70 322.42 C 379.21 317.00 379.26 311.35 379.61 305.79 C 380.40 317.53 384.40 328.77 389.85 339.12 C 393.24 346.82 398.03 354.06 404.78 359.22 C 414.53 366.80 426.79 369.99 438.69 372.39 C 447.40 373.93 456.21 375.12 465.07 375.33 C 473.86 375.18 483.30 376.75 491.42 372.50 C 498.39 369.06 502.51 362.19 507.96 356.96 C 515.39 349.67 524.27 343.42 534.40 340.63 C 544.83 338.74 556.38 339.53 565.41 345.55 C 573.34 350.46 579.03 357.99 585.15 364.86 C 588.64 368.80 592.63 372.64 597.77 374.25 C 604.38 376.32 611.40 375.86 618.22 375.49 C 632.06 374.78 645.78 372.14 659.02 368.08 C 671.19 364.07 683.23 357.22 690.20 346.13 C 699.47 332.60 701.85 315.81 702.12 299.76 Z" />
</g>
<g id="#f6e7d1ff">
<path fill="#f6e7d1" opacity="1.00" d=" M 500.78 90.81 C 535.28 82.74 571.92 84.53 605.63 95.34 C 640.57 106.49 672.29 126.95 697.66 153.34 C 709.84 166.48 720.45 181.09 729.24 196.71 C 736.03 208.34 741.37 220.77 745.36 233.63 C 750.51 249.63 754.37 266.23 755.34 283.04 C 753.15 282.34 750.98 281.63 748.80 280.93 C 744.93 262.83 742.29 244.26 735.12 227.05 C 730.99 217.29 727.35 207.17 721.34 198.37 C 718.86 194.44 716.37 190.52 713.63 186.78 C 713.30 186.26 712.99 185.73 712.68 185.22 C 711.84 183.85 711.00 182.50 710.14 181.17 C 709.49 180.19 708.84 179.23 708.18 178.29 C 703.15 171.28 697.45 164.80 691.61 158.47 C 690.60 157.38 689.60 156.29 688.55 155.26 C 688.20 154.93 687.50 154.27 687.15 153.95 C 665.22 132.17 638.72 114.87 609.60 104.40 C 592.85 98.95 575.61 94.41 557.95 93.45 C 546.21 93.15 534.42 93.10 522.75 94.59 C 515.84 94.90 509.09 96.36 502.58 98.65 C 502.18 98.73 501.40 98.89 501.00 98.97 C 493.39 100.45 485.84 102.36 478.87 105.83 C 477.95 106.18 477.03 106.53 476.11 106.88 C 474.34 107.54 472.57 108.21 470.82 108.91 C 457.69 113.94 445.58 121.24 433.76 128.76 C 407.85 146.84 384.90 169.93 369.86 197.92 C 355.81 222.34 346.57 249.67 344.00 277.77 C 341.58 278.33 339.16 278.86 336.74 279.36 C 336.69 269.46 339.17 259.82 341.20 250.21 C 347.75 223.69 358.87 198.12 375.01 176.01 C 405.00 133.82 450.58 103.20 500.78 90.81 Z" />
<path fill="#f6e7d1" opacity="1.00" d=" M 466.32 131.31 C 468.29 130.92 469.69 133.51 467.62 134.45 C 465.66 135.63 464.41 132.12 466.32 131.31 Z" />
<path fill="#f6e7d1" opacity="1.00" d=" M 481.29 140.72 C 480.95 138.83 482.93 137.96 484.52 138.36 C 485.07 139.20 485.65 140.04 486.25 140.86 C 484.63 141.53 482.68 142.25 481.29 140.72 Z" />
<path fill="#f6e7d1" opacity="1.00" d=" M 483.26 146.17 C 483.79 146.73 484.32 147.31 484.84 147.89 C 484.58 148.40 484.05 149.42 483.79 149.92 C 483.24 149.32 482.69 148.72 482.14 148.12 C 482.42 147.63 482.98 146.66 483.26 146.17 Z" />
<path fill="#f6e7d1" opacity="1.00" d=" M 505.37 161.50 C 516.55 160.16 527.71 158.23 539.00 158.29 C 545.84 158.31 552.70 158.13 559.53 158.60 C 565.52 159.14 571.45 160.16 577.44 160.69 C 577.81 165.11 577.85 169.56 577.41 173.98 C 564.91 170.55 551.82 171.36 539.00 171.20 C 527.73 171.03 516.56 172.50 505.35 173.36 C 505.39 169.41 505.39 165.45 505.37 161.50 Z" />
<path fill="#f6e7d1" opacity="1.00" d=" M 504.92 202.40 C 539.59 200.26 574.47 200.96 608.98 204.91 C 623.15 206.17 637.16 208.82 651.00 212.07 C 660.15 214.41 669.36 217.36 677.12 222.92 C 682.30 226.62 687.64 230.55 691.01 236.06 C 695.42 247.94 697.93 260.46 700.16 272.92 C 701.84 281.78 701.40 290.82 702.12 299.76 C 701.85 315.81 699.47 332.60 690.20 346.13 C 694.42 336.82 695.93 326.60 697.31 316.57 C 698.26 303.75 699.00 290.76 696.99 278.00 C 693.95 262.43 688.32 246.59 676.72 235.29 C 670.66 229.71 663.65 225.08 656.03 221.94 C 637.21 214.69 617.16 210.88 597.04 210.07 C 579.68 209.55 562.38 207.62 545.00 207.64 C 535.63 207.42 526.32 208.59 516.96 208.83 C 502.93 210.09 488.76 209.55 474.80 211.64 C 467.42 212.77 459.93 213.19 452.60 214.71 C 441.31 217.03 429.82 219.30 419.41 224.44 C 410.59 229.12 402.09 235.15 396.77 243.80 C 389.38 254.11 385.63 266.44 382.90 278.69 C 382.06 283.62 381.34 288.58 379.98 293.41 C 379.29 284.31 379.40 275.13 380.96 266.12 C 382.51 255.72 386.24 245.81 390.09 236.08 C 398.56 224.80 411.67 217.90 425.01 214.00 C 451.03 206.73 478.04 204.05 504.92 202.40 Z" />
<path fill="#f6e7d1" opacity="1.00" d=" M 513.99 220.02 C 525.30 218.94 536.67 219.43 548.00 219.33 C 556.62 219.35 565.31 218.97 573.84 220.47 C 583.60 222.37 593.42 224.37 602.58 228.37 C 614.86 233.62 627.33 239.55 636.87 249.12 C 648.37 261.01 653.29 278.66 649.86 294.82 C 646.41 312.64 633.47 326.95 618.86 336.90 C 611.40 342.13 602.79 345.31 594.90 349.80 C 595.37 349.88 596.32 350.05 596.80 350.13 C 604.90 351.48 611.56 357.60 615.28 364.69 C 617.04 367.68 616.15 371.09 614.92 374.08 C 609.48 372.59 603.49 372.56 598.65 369.37 C 591.42 364.69 586.50 357.46 580.80 351.18 C 573.60 342.95 564.46 335.88 553.60 333.45 C 543.47 331.36 532.55 332.57 523.38 337.47 C 513.85 342.44 506.39 350.40 499.24 358.25 C 494.96 362.96 491.01 368.38 485.05 371.07 C 478.85 374.03 471.66 374.06 465.12 372.29 C 465.23 368.48 465.33 364.51 467.07 361.03 C 469.11 356.89 472.33 353.49 475.31 350.01 C 482.28 342.28 488.06 333.59 494.28 325.27 C 502.16 314.09 510.42 302.30 512.30 288.40 C 514.25 273.47 507.99 258.69 498.85 247.16 C 493.00 239.28 485.66 232.74 479.00 225.59 C 480.75 224.69 482.49 223.79 484.27 222.96 C 494.10 221.27 504.08 220.94 513.99 220.02 M 608.83 245.16 C 613.04 248.30 617.83 250.66 621.64 254.34 C 629.84 261.85 635.45 272.70 634.95 284.01 C 635.32 295.74 629.96 307.03 621.84 315.29 C 627.38 316.63 631.88 311.97 634.99 308.00 C 646.77 292.24 643.40 268.70 630.10 254.91 C 624.64 249.04 617.01 244.88 608.83 245.16 Z" />
<path fill="#f6e7d1" opacity="1.00" d=" M 473.15 237.07 C 484.87 247.83 496.28 260.85 498.67 277.17 C 501.05 290.73 494.84 303.78 488.13 315.16 C 483.60 322.37 479.33 329.73 475.03 337.07 C 475.20 330.79 477.39 324.86 478.78 318.80 C 482.19 305.22 485.43 291.24 483.78 277.15 C 482.83 263.21 477.66 250.14 473.15 237.07 Z" />
<path fill="#f6e7d1" opacity="1.00" d=" M 707.40 276.36 C 710.67 294.41 710.61 312.89 709.40 331.13 C 708.94 339.37 706.50 347.29 705.10 355.38 C 709.02 345.64 710.40 335.12 711.77 324.78 C 713.15 310.15 712.04 295.43 712.56 280.76 C 716.20 294.53 715.76 308.91 715.68 323.03 C 715.61 337.57 712.41 352.05 706.01 365.13 C 704.72 364.39 703.43 363.66 702.15 362.94 C 702.75 361.24 703.37 359.55 703.92 357.84 C 699.98 362.25 696.50 367.16 691.65 370.66 C 678.72 380.42 662.45 383.96 646.79 386.61 C 632.33 388.21 617.82 390.50 603.23 389.47 C 595.70 388.85 588.75 384.83 584.00 379.02 C 576.63 370.17 569.70 360.22 559.21 354.81 C 546.93 348.47 531.49 351.51 521.06 360.06 C 511.13 367.06 505.48 378.66 494.99 384.98 C 490.48 387.71 485.28 389.29 480.02 389.55 C 464.48 390.27 448.98 388.36 433.60 386.42 C 414.47 383.35 393.84 377.98 380.84 362.54 C 379.50 360.90 378.20 359.22 376.90 357.55 C 377.53 359.73 378.25 361.88 378.91 364.06 C 378.15 364.79 377.39 365.52 376.62 366.24 C 369.95 356.43 366.29 344.82 365.44 333.02 C 364.44 320.05 364.25 307.00 364.89 294.01 C 365.39 288.52 365.61 282.83 368.02 277.77 C 367.23 294.86 366.79 312.05 368.71 329.09 C 368.64 330.73 369.78 332.00 369.95 333.56 C 370.67 322.80 368.32 311.88 370.37 301.19 C 371.57 303.75 372.81 306.36 373.03 309.23 C 375.15 326.13 376.24 343.92 385.00 359.00 C 389.62 367.31 397.61 373.19 406.29 376.74 C 416.35 380.83 427.05 383.16 437.83 384.32 C 450.53 385.68 463.28 386.95 476.07 386.82 C 481.91 386.72 488.02 386.22 493.18 383.22 C 497.92 380.46 501.63 376.32 505.31 372.32 C 511.26 365.62 517.38 358.84 525.06 354.08 C 534.54 347.72 547.03 346.13 557.68 350.34 C 565.88 353.44 571.48 360.51 577.35 366.65 C 582.98 372.63 586.83 380.70 594.45 384.51 C 601.79 387.60 610.00 386.82 617.77 386.63 C 638.42 385.25 659.65 383.55 678.73 374.85 C 690.06 369.75 697.60 358.72 701.21 347.15 C 707.94 324.19 707.28 300.03 707.40 276.36 Z" />
<path fill="#f6e7d1" opacity="1.00" d=" M 340.84 284.88 C 343.85 284.04 346.90 283.35 349.99 282.89 C 349.59 288.06 348.90 293.21 348.81 298.41 C 345.27 299.97 341.60 301.25 337.83 302.11 C 337.98 296.25 338.84 290.41 340.84 284.88 Z" />
<path fill="#f6e7d1" opacity="1.00" d=" M 731.29 283.62 C 734.06 284.02 737.07 283.91 739.54 285.42 C 743.24 290.38 743.14 296.87 744.04 302.73 C 740.61 300.79 736.87 299.48 733.01 298.75 C 732.24 293.73 731.80 288.67 731.29 283.62 Z" />
<path fill="#f6e7d1" opacity="1.00" d=" M 331.62 287.63 C 332.46 285.67 334.88 285.56 336.60 284.79 C 335.20 290.76 334.44 296.84 333.69 302.92 C 331.70 303.40 329.73 303.92 327.75 304.42 C 327.75 303.79 327.77 302.53 327.78 301.90 C 328.16 296.98 329.42 292.05 331.62 287.63 Z" />
<path fill="#f6e7d1" opacity="1.00" d=" M 745.74 285.84 C 747.34 286.54 749.67 286.61 750.47 288.45 C 751.96 291.76 752.96 295.33 753.34 298.95 C 753.22 300.08 753.08 301.21 752.93 302.34 C 751.23 302.51 749.53 302.70 747.85 302.89 C 747.38 297.17 745.91 291.58 745.74 285.84 Z" />
<path fill="#f6e7d1" opacity="1.00" d=" M 762.28 310.04 C 765.01 312.74 767.79 315.85 767.89 319.93 C 768.64 328.41 770.53 338.18 765.06 345.54 C 761.93 342.11 759.86 337.72 759.70 333.03 C 759.41 325.29 760.92 317.62 762.28 310.04 Z" />
<path fill="#f6e7d1" opacity="1.00" d=" M 315.74 345.11 C 309.07 334.51 312.19 320.98 317.21 310.36 C 319.30 321.67 322.51 334.72 315.74 345.11 Z" />
<path fill="#f6e7d1" opacity="1.00" d=" M 713.42 420.52 C 716.73 420.25 720.04 419.86 723.35 419.51 C 717.02 432.11 708.08 443.23 698.50 453.50 C 687.04 465.87 673.66 476.28 659.77 485.77 C 630.19 505.36 595.52 517.46 560.07 519.67 C 532.08 521.51 503.65 518.11 477.16 508.77 C 441.99 496.23 409.90 474.83 385.32 446.68 C 377.47 438.47 371.45 428.80 364.19 420.12 C 368.15 420.26 372.08 420.79 375.92 421.72 C 378.23 427.14 381.92 431.76 385.89 436.05 C 388.68 439.61 391.57 443.10 394.85 446.23 C 404.47 456.62 415.06 466.11 426.44 474.54 C 452.89 493.52 483.87 506.10 516.04 511.07 C 529.58 513.20 543.37 514.68 557.07 513.13 C 591.47 510.89 625.28 499.92 654.31 481.31 C 670.19 470.92 684.51 458.26 697.18 444.16 C 700.84 440.08 703.74 435.41 707.24 431.20 C 709.83 428.23 711.81 424.80 713.18 421.12 L 713.42 420.52 Z" />
</g>
<g id="#f6b828ff">
<path fill="#f6b828" opacity="1.00" d=" M 522.75 94.59 C 534.42 93.10 546.21 93.15 557.95 93.45 C 575.61 94.41 592.85 98.95 609.60 104.40 C 638.72 114.87 665.22 132.17 687.15 153.95 C 686.37 154.06 684.80 154.29 684.02 154.41 C 684.41 156.10 684.82 157.80 685.26 159.49 C 686.57 158.26 687.72 156.86 688.55 155.26 C 689.60 156.29 690.60 157.38 691.61 158.47 C 691.03 160.14 690.35 161.82 690.22 163.61 C 691.10 164.61 692.04 165.57 692.92 166.58 C 692.11 167.69 691.31 168.79 690.52 169.91 C 692.44 174.99 691.75 180.45 691.25 185.71 C 692.29 186.23 693.33 186.75 694.39 187.28 C 697.98 184.68 693.71 179.56 697.74 177.45 C 698.14 177.99 698.94 179.06 699.34 179.60 C 698.77 182.28 698.32 185.25 700.57 187.33 C 701.68 186.71 702.83 186.14 704.01 185.63 C 703.45 183.52 703.12 181.36 702.63 179.24 C 702.86 178.99 703.32 178.51 703.55 178.26 C 704.70 179.11 705.86 179.97 707.03 180.83 C 707.41 179.98 707.79 179.13 708.18 178.29 C 708.84 179.23 709.49 180.19 710.14 181.17 C 708.61 181.91 707.09 182.65 705.57 183.39 C 706.70 184.52 707.22 186.51 708.99 186.81 C 710.22 186.31 711.44 185.74 712.68 185.22 C 712.99 185.73 713.30 186.26 713.63 186.78 C 714.44 189.46 715.25 192.14 716.27 194.75 C 715.67 195.93 715.04 197.10 714.42 198.27 C 715.10 199.17 715.73 200.10 716.35 201.05 C 717.95 200.05 719.61 199.16 721.34 198.37 C 727.35 207.17 730.99 217.29 735.12 227.05 C 742.29 244.26 744.93 262.83 748.80 280.93 C 741.75 280.17 734.92 278.12 727.88 277.26 C 724.69 276.84 721.53 276.23 718.39 275.55 C 716.04 268.86 714.73 261.81 711.56 255.42 C 705.09 240.17 693.92 226.96 679.99 218.03 C 678.56 216.95 676.64 216.27 675.80 214.61 C 675.05 213.33 674.56 211.79 673.27 210.95 C 672.67 211.40 671.48 212.31 670.89 212.76 C 669.30 211.76 667.73 210.72 666.18 209.67 C 666.84 207.68 667.50 205.69 668.25 203.73 C 666.79 204.81 665.25 205.73 663.63 206.52 C 648.94 188.55 629.11 175.59 608.36 165.65 C 580.67 153.06 549.33 150.42 519.41 154.40 C 519.58 152.23 519.68 149.90 517.46 148.77 C 517.75 150.64 518.16 152.47 518.54 154.32 C 514.43 155.72 509.87 154.19 505.84 156.11 C 504.04 157.30 503.75 154.33 502.30 154.43 C 503.40 153.02 504.51 151.62 505.59 150.19 C 504.68 149.47 503.78 148.74 502.89 148.01 C 502.13 149.10 501.33 150.15 500.61 151.27 C 501.06 153.18 501.72 155.03 502.54 156.81 C 501.82 157.29 500.38 158.24 499.66 158.72 C 498.77 158.16 497.95 157.54 497.17 156.85 C 496.63 153.66 496.79 150.39 496.42 147.17 C 497.00 146.11 497.60 145.05 498.21 144.00 C 497.58 142.95 496.97 141.90 496.39 140.83 C 496.70 133.54 496.09 126.26 496.25 118.98 C 496.30 116.90 496.07 114.82 495.79 112.77 C 494.92 112.05 493.98 111.43 493.09 110.76 C 493.39 114.14 492.85 117.50 492.45 120.85 C 493.90 124.78 491.83 128.86 492.79 132.87 C 493.30 136.84 494.82 141.80 490.90 144.56 C 489.86 143.08 488.47 141.57 488.83 139.61 C 489.33 132.31 488.96 125.01 488.82 117.71 C 488.82 113.51 486.97 109.37 488.17 105.19 C 485.05 104.91 481.91 104.94 478.87 105.83 C 485.84 102.36 493.39 100.45 501.00 98.97 C 499.97 100.08 500.04 100.91 501.24 101.46 C 502.55 100.98 503.00 100.05 502.58 98.65 C 509.09 96.36 515.84 94.90 522.75 94.59 M 508.31 98.18 C 507.12 99.63 509.66 101.28 510.67 99.82 C 511.85 98.37 509.30 96.72 508.31 98.18 M 490.89 105.55 C 491.91 105.98 492.94 106.41 493.98 106.86 C 494.52 106.56 495.61 105.98 496.15 105.68 C 494.53 103.96 492.64 104.09 490.89 105.55 M 501.23 105.01 C 499.31 105.43 500.16 108.56 502.03 107.96 C 503.94 107.53 503.09 104.40 501.23 105.01 M 500.00 114.01 C 500.90 114.22 501.82 114.38 502.74 114.51 C 504.45 113.96 503.03 112.19 502.95 111.02 C 501.95 112.00 500.97 113.00 500.00 114.01 M 502.20 117.95 C 501.54 118.95 500.87 119.94 500.38 121.03 C 500.86 122.18 501.84 123.02 502.62 123.97 C 503.30 122.93 504.01 121.91 504.63 120.82 C 504.08 119.68 503.00 118.89 502.20 117.95 M 502.44 125.08 C 501.69 126.35 500.95 127.62 500.21 128.90 C 501.12 129.59 502.04 130.27 502.96 130.95 C 503.51 129.92 504.13 128.93 504.73 127.93 C 504.05 126.91 503.23 126.00 502.44 125.08 M 517.17 126.32 C 515.70 127.33 517.36 129.87 518.82 128.67 C 520.27 127.66 518.62 125.12 517.17 126.32 M 502.37 132.08 C 501.65 133.63 500.89 135.17 500.15 136.71 C 501.18 137.56 502.21 138.41 503.26 139.27 C 503.64 138.19 504.57 137.27 504.60 136.08 C 504.16 134.60 503.14 133.39 502.37 132.08 M 509.41 133.85 C 509.32 135.16 509.23 136.47 509.16 137.78 C 509.90 137.75 511.38 137.69 512.13 137.66 C 511.77 136.04 510.94 134.60 509.41 133.85 M 502.41 140.05 C 501.61 141.71 500.78 143.35 499.97 144.99 C 502.00 145.82 504.12 145.67 506.11 144.79 C 504.93 143.17 503.70 141.58 502.41 140.05 M 519.00 146.21 C 519.36 144.42 519.21 142.59 518.73 140.84 C 517.17 142.56 517.04 144.70 519.00 146.21 M 525.33 140.89 C 525.28 142.14 525.24 143.39 525.22 144.64 C 525.66 144.64 526.55 144.64 527.00 144.64 C 526.72 143.27 526.84 141.56 525.33 140.89 M 508.85 142.40 C 509.43 143.69 510.06 144.97 510.72 146.23 C 511.15 144.94 511.58 143.65 512.00 142.35 C 511.21 142.36 509.64 142.39 508.85 142.40 M 507.90 150.55 C 508.92 151.38 509.95 152.21 510.99 153.02 C 511.27 151.67 511.54 150.31 511.79 148.95 C 510.51 149.53 509.22 150.09 507.90 150.55 M 525.19 149.30 C 523.70 150.28 525.32 152.84 526.79 151.68 C 528.27 150.70 526.65 148.13 525.19 149.30 M 677.35 155.98 C 676.98 158.05 679.59 157.52 680.85 158.10 C 680.70 156.78 680.56 155.46 680.44 154.14 C 679.42 154.55 677.17 154.42 677.35 155.98 M 669.92 164.73 C 671.30 164.72 672.70 164.70 674.10 164.69 C 673.61 163.56 673.18 162.43 672.72 161.31 C 670.59 160.71 670.66 163.45 669.92 164.73 M 677.04 164.67 C 677.96 165.01 678.89 165.36 679.83 165.73 C 680.45 165.11 681.09 164.49 681.74 163.87 C 681.34 162.91 680.96 161.94 680.60 160.98 C 678.45 161.22 677.10 162.44 677.04 164.67 M 683.24 163.19 C 684.35 164.17 685.32 165.32 685.99 166.67 C 686.78 165.40 687.59 164.10 688.83 163.19 C 687.88 162.36 686.94 161.54 686.00 160.72 C 685.06 161.54 684.15 162.36 683.24 163.19 M 684.35 168.45 C 682.67 170.41 684.78 172.30 685.98 173.80 C 686.80 172.61 688.56 171.64 688.33 169.98 C 688.46 167.85 685.35 165.82 684.35 168.45 M 671.32 168.36 C 669.50 169.41 670.19 173.85 672.64 172.53 C 674.87 171.73 673.69 167.51 671.32 168.36 M 676.91 170.95 C 676.90 173.38 679.83 172.59 681.33 172.19 C 681.17 170.75 681.01 169.31 680.85 167.88 C 679.22 168.43 676.50 168.51 676.91 170.95 M 671.33 175.38 C 669.46 176.44 670.21 180.49 672.67 179.61 C 674.56 178.55 673.79 174.56 671.33 175.38 M 678.11 174.78 C 676.83 176.76 677.10 181.27 680.38 179.34 C 683.34 177.51 680.25 175.28 678.11 174.78 M 683.30 176.96 C 684.13 178.02 684.98 179.09 685.82 180.16 C 686.45 179.83 687.70 179.17 688.33 178.84 C 688.26 177.29 688.19 175.63 687.05 174.44 C 685.46 174.69 684.37 175.90 683.30 176.96 M 663.16 176.59 C 663.21 178.25 664.27 179.46 665.71 180.17 C 666.13 178.86 666.54 177.55 666.96 176.25 C 665.69 176.36 664.42 176.47 663.16 176.59 M 685.12 187.28 C 686.32 186.49 688.01 186.14 688.68 184.72 C 689.12 182.77 686.97 181.77 685.97 180.46 C 683.90 182.34 683.76 184.93 685.12 187.28 M 671.32 182.37 C 669.74 183.39 669.73 186.73 672.02 186.67 C 674.74 186.78 674.08 181.22 671.32 182.37 M 677.71 182.68 C 676.11 183.62 677.04 187.12 679.01 186.70 C 680.96 186.64 681.29 184.37 682.23 183.10 C 680.74 182.89 679.02 181.22 677.71 182.68 M 663.31 183.29 C 663.31 183.91 663.31 185.13 663.31 185.75 C 664.43 185.75 665.57 185.75 666.71 185.76 C 666.70 185.14 666.70 183.90 666.70 183.28 C 665.56 183.29 664.43 183.29 663.31 183.29 M 684.73 193.26 C 685.97 194.82 688.05 193.03 688.68 191.70 C 689.12 189.78 687.00 188.83 686.01 187.55 C 684.54 188.96 682.62 191.50 684.73 193.26 M 690.42 191.00 C 691.69 192.36 693.13 193.66 694.86 194.41 C 695.70 192.70 697.44 190.21 695.26 188.76 C 693.49 186.88 691.60 189.88 690.42 191.00 M 700.35 188.17 C 697.36 189.48 698.82 194.64 701.87 194.07 C 705.54 193.23 704.01 186.34 700.35 188.17 M 707.11 189.14 C 704.98 190.95 707.49 194.18 709.82 193.68 C 712.30 193.76 711.61 190.55 712.45 188.97 C 710.73 188.44 708.49 187.34 707.11 189.14 M 663.07 191.81 C 664.15 192.67 665.59 192.61 666.84 193.11 C 666.53 191.71 666.23 190.32 665.91 188.93 C 664.81 189.73 663.35 190.32 663.07 191.81 M 671.27 189.21 C 669.19 190.34 670.20 194.25 672.73 193.76 C 674.70 192.31 674.16 188.57 671.27 189.21 M 676.70 190.14 C 677.24 191.94 678.11 193.64 679.91 194.48 C 680.75 192.85 682.29 190.10 680.05 188.89 C 678.89 189.21 677.77 189.63 676.70 190.14 M 706.37 199.59 C 707.56 201.80 710.25 199.88 712.12 199.82 C 711.51 198.04 710.74 196.33 709.76 194.74 C 708.01 195.83 705.56 197.07 706.37 199.59 M 663.31 198.69 C 663.81 200.58 666.43 200.92 667.29 199.09 C 666.79 197.97 666.26 196.87 665.71 195.79 C 664.72 196.57 662.86 197.07 663.31 198.69 M 670.26 198.84 C 670.11 200.66 672.60 200.59 673.80 201.05 C 673.80 199.33 673.77 197.62 673.75 195.90 C 672.38 196.62 669.63 196.63 670.26 198.84 M 677.94 200.96 C 678.64 200.88 680.04 200.73 680.74 200.65 C 681.08 199.79 681.44 198.93 681.84 198.09 C 680.86 197.27 679.88 196.45 678.91 195.64 C 677.39 197.11 677.02 199.04 677.94 200.96 M 684.02 201.04 C 685.47 200.86 686.93 200.65 688.38 200.34 C 689.70 197.98 687.78 196.43 686.03 195.17 C 684.20 196.63 683.98 198.87 684.02 201.04 M 692.37 200.69 C 694.61 201.80 695.69 199.78 696.77 198.17 C 695.77 197.21 694.78 196.25 693.80 195.29 C 691.72 196.24 689.84 199.09 692.37 200.69 M 698.97 195.97 C 699.02 197.22 699.08 198.47 699.13 199.73 C 700.02 200.97 701.73 200.89 703.06 201.30 C 703.10 199.80 704.58 197.98 703.29 196.68 C 702.31 195.27 700.35 196.07 698.97 195.97 M 676.98 207.81 C 678.39 207.84 679.81 207.87 681.24 207.90 C 680.87 206.14 680.58 204.35 679.78 202.72 C 677.64 203.65 676.98 205.61 676.98 207.81 M 714.93 206.74 C 716.26 207.14 717.61 207.53 718.96 207.90 C 718.45 206.23 718.23 204.50 717.86 202.80 C 716.20 203.51 715.23 205.02 714.93 206.74 M 670.83 204.07 C 670.83 205.50 670.85 206.94 670.87 208.38 C 671.66 208.27 673.24 208.05 674.04 207.94 C 674.02 206.69 674.09 205.44 674.23 204.20 C 673.38 204.16 671.68 204.10 670.83 204.07 M 685.39 208.46 C 686.62 208.70 687.80 208.03 689.01 207.81 C 688.40 206.49 688.78 204.25 686.88 204.01 C 684.32 203.02 683.17 207.52 685.39 208.46 M 691.90 204.00 C 692.20 205.61 692.05 209.51 694.68 208.55 C 695.72 207.71 696.40 206.50 696.70 205.20 C 695.61 203.91 693.41 204.46 691.90 204.00 M 700.13 203.89 C 700.14 205.29 700.17 206.70 700.21 208.11 C 701.41 207.76 702.83 207.68 703.78 206.75 C 704.51 204.44 701.74 204.03 700.13 203.89 M 677.64 210.95 C 678.05 212.67 678.44 214.40 678.74 216.15 C 679.35 215.84 680.56 215.22 681.17 214.91 C 681.14 213.58 681.12 212.24 681.12 210.91 C 680.25 210.92 678.51 210.94 677.64 210.95 M 683.81 212.18 C 684.68 213.60 685.81 214.85 686.83 216.19 C 687.53 214.79 688.32 213.44 689.12 212.10 C 687.40 211.43 685.48 211.29 683.81 212.18 Z" />
<path fill="#f6b828" opacity="1.00" d=" M 470.82 108.91 C 472.57 108.21 474.34 107.54 476.11 106.88 C 476.26 109.06 475.82 111.20 475.17 113.26 C 473.68 111.85 472.27 110.36 470.82 108.91 Z" />
<path fill="#f6b828" opacity="1.00" d=" M 480.52 107.27 C 482.16 107.27 484.57 106.93 484.92 109.15 C 485.63 111.80 482.13 112.26 480.24 112.02 C 480.32 110.43 480.42 108.85 480.52 107.27 Z" />
<path fill="#f6b828" opacity="1.00" d=" M 472.10 116.88 C 473.03 115.90 473.96 114.93 474.89 113.95 C 476.29 115.64 476.97 117.65 475.95 119.72 C 475.30 119.70 474.01 119.64 473.37 119.61 C 472.99 118.68 472.56 117.76 472.10 116.88 Z" />
<path fill="#f6b828" opacity="1.00" d=" M 480.40 116.38 C 481.14 115.46 481.99 114.63 482.82 113.77 C 483.37 114.20 484.47 115.05 485.02 115.48 C 484.44 117.11 483.78 118.71 482.88 120.20 C 482.01 118.98 480.09 118.13 480.40 116.38 Z" />
<path fill="#f6b828" opacity="1.00" d=" M 474.27 122.26 C 477.24 121.75 477.59 126.27 475.70 127.68 C 472.71 128.42 472.39 123.69 474.27 122.26 Z" />
<path fill="#f6b828" opacity="1.00" d=" M 480.85 124.97 C 480.00 122.75 484.00 120.94 484.65 123.43 C 484.98 125.01 484.29 126.58 484.03 128.13 C 482.84 127.25 480.98 126.72 480.85 124.97 Z" />
<path fill="#f6b828" opacity="1.00" d=" M 466.24 123.17 C 467.68 123.08 469.00 124.21 468.76 125.72 C 467.67 126.52 466.27 126.67 465.01 127.00 C 465.30 125.69 465.50 124.32 466.24 123.17 Z" />
<path fill="#f6b828" opacity="1.00" d=" M 473.44 131.43 C 474.21 129.09 476.87 130.88 477.62 132.32 C 477.91 134.09 476.02 134.95 475.14 136.19 C 474.36 134.72 472.85 133.24 473.44 131.43 Z" />
<path fill="#f6b828" opacity="1.00" d=" M 481.28 130.23 C 482.80 130.51 484.79 129.70 485.74 131.34 C 485.86 132.66 485.39 133.98 484.98 135.22 C 483.82 134.96 482.68 134.66 481.56 134.31 C 481.39 132.96 481.33 131.59 481.28 130.23 Z" />
<path fill="#f6b828" opacity="1.00" d=" M 473.04 139.23 C 473.53 138.98 474.52 138.48 475.01 138.23 C 476.00 138.64 477.00 139.04 478.01 139.42 C 477.58 140.50 477.24 141.62 476.71 142.66 C 474.64 143.01 474.18 140.43 473.04 139.23 Z" />
<path fill="#f6b828" opacity="1.00" d=" M 487.94 147.42 C 488.97 146.52 490.02 145.63 491.08 144.75 C 492.13 145.86 493.21 146.95 494.30 148.03 C 493.01 148.94 492.22 151.28 490.32 150.59 C 489.19 149.84 488.76 148.44 487.94 147.42 Z" />
<path fill="#f6b828" opacity="1.00" d=" M 491.23 151.74 C 492.86 153.40 494.00 158.36 490.30 157.64 C 487.96 155.84 490.00 153.47 491.23 151.74 Z" />
<path fill="#f6b828" opacity="1.00" d=" M 695.22 174.61 C 694.83 172.97 696.04 171.67 696.96 170.48 C 698.54 171.95 699.36 173.91 699.21 176.08 C 697.82 175.79 696.01 176.08 695.22 174.61 Z" />
<path fill="#f6b828" opacity="1.00" d=" M 516.96 208.83 C 526.32 208.59 535.63 207.42 545.00 207.64 C 562.38 207.62 579.68 209.55 597.04 210.07 C 617.16 210.88 637.21 214.69 656.03 221.94 C 663.65 225.08 670.66 229.71 676.72 235.29 C 688.32 246.59 693.95 262.43 696.99 278.00 C 699.00 290.76 698.26 303.75 697.31 316.57 C 695.93 326.60 694.42 336.82 690.20 346.13 C 683.23 357.22 671.19 364.07 659.02 368.08 C 645.78 372.14 632.06 374.78 618.22 375.49 C 617.10 375.03 616.02 374.53 614.92 374.08 C 616.15 371.09 617.04 367.68 615.28 364.69 C 611.56 357.60 604.90 351.48 596.80 350.13 C 604.27 351.03 611.80 350.18 619.25 349.41 C 630.50 348.29 641.56 345.66 652.35 342.35 C 659.80 340.05 666.94 336.01 671.72 329.71 C 678.31 321.33 681.21 310.58 681.73 300.06 C 682.19 288.50 682.00 276.87 680.19 265.43 C 680.29 262.65 680.76 259.81 679.99 257.09 C 677.10 247.24 670.22 238.89 661.81 233.17 C 646.91 223.47 629.17 219.80 611.86 217.13 C 594.01 214.77 576.03 213.12 558.01 213.30 C 540.31 213.29 522.60 213.00 504.93 214.15 C 481.51 215.80 457.65 217.30 435.36 225.33 C 425.97 228.47 417.17 233.28 409.32 239.32 C 403.05 244.21 398.58 250.97 395.01 257.99 C 390.14 267.37 388.41 277.99 387.47 288.40 C 387.08 299.90 387.00 311.50 388.99 322.88 C 389.96 329.34 392.00 335.58 393.26 341.99 C 392.10 341.04 390.95 340.11 389.85 339.12 C 384.40 328.77 380.40 317.53 379.61 305.79 C 379.64 301.65 379.74 297.53 379.98 293.41 C 381.34 288.58 382.06 283.62 382.90 278.69 C 385.63 266.44 389.38 254.11 396.77 243.80 C 402.09 235.15 410.59 229.12 419.41 224.44 C 429.82 219.30 441.31 217.03 452.60 214.71 C 459.93 213.19 467.42 212.77 474.80 211.64 C 488.76 209.55 502.93 210.09 516.96 208.83 Z" />
<path fill="#f6b828" opacity="1.00" d=" M 337.83 302.11 C 341.60 301.25 345.27 299.97 348.81 298.41 C 348.47 313.62 349.30 328.83 349.28 344.04 C 347.28 344.53 345.27 345.01 343.27 345.50 C 343.27 346.13 343.27 347.38 343.27 348.00 C 345.37 348.18 347.48 348.34 349.59 348.53 C 349.83 350.38 350.10 352.24 350.38 354.10 C 347.72 357.54 343.33 359.06 339.18 357.66 C 338.43 351.10 338.78 344.51 339.96 338.02 C 339.43 339.40 338.93 340.78 338.40 342.16 C 337.36 328.84 337.45 315.45 337.83 302.11 Z" />
<path fill="#f6b828" opacity="1.00" d=" M 733.01 298.75 C 736.87 299.48 740.61 300.79 744.04 302.73 C 745.50 320.67 742.36 338.51 742.11 356.42 C 739.14 358.22 735.67 358.00 732.37 357.59 C 732.33 354.82 732.24 352.04 732.11 349.28 C 734.17 348.91 736.24 348.58 738.30 348.21 C 738.47 347.83 738.81 347.05 738.98 346.66 C 738.65 346.54 738.00 346.31 737.68 346.19 C 735.96 345.52 734.31 344.75 732.65 344.00 C 732.39 328.91 733.35 313.83 733.01 298.75 Z" />
<path fill="#f6b828" opacity="1.00" d=" M 753.34 298.95 C 754.59 308.02 754.45 317.24 754.21 326.38 C 753.06 332.20 752.47 338.12 751.04 343.88 C 750.87 346.50 748.97 348.07 746.39 347.80 C 746.42 341.53 747.64 335.34 747.60 329.07 C 747.87 320.34 747.43 311.61 747.85 302.89 C 749.53 302.70 751.23 302.51 752.93 302.34 C 753.08 301.21 753.22 300.08 753.34 298.95 Z" />
<path fill="#f6b828" opacity="1.00" d=" M 327.09 319.04 C 326.65 313.33 326.47 307.52 327.78 301.90 C 327.77 302.53 327.75 303.79 327.75 304.42 C 329.73 303.92 331.70 303.40 333.69 302.92 C 333.64 311.27 333.49 319.62 333.60 327.98 C 333.62 334.37 334.76 340.73 334.17 347.13 C 333.52 347.10 332.23 347.04 331.58 347.01 C 331.19 346.99 330.41 346.95 330.02 346.94 C 328.15 337.75 327.64 328.37 327.09 319.04 Z" />
<path fill="#f6b828" opacity="1.00" d=" M 702.19 423.03 C 705.07 420.04 709.46 420.74 713.18 421.12 C 711.81 424.80 709.83 428.23 707.24 431.20 C 705.44 428.55 703.74 425.83 702.19 423.03 Z" />
<path fill="#f6b828" opacity="1.00" d=" M 531.12 434.38 C 537.94 434.13 544.80 433.80 551.60 434.56 C 559.29 435.61 566.63 438.22 574.10 440.21 L 573.94 441.02 C 568.57 465.11 562.41 489.03 557.07 513.13 C 543.37 514.68 529.58 513.20 516.04 511.07 C 518.68 501.31 520.09 491.27 522.64 481.49 C 525.01 470.40 526.87 459.22 529.12 448.11 C 530.02 443.86 530.66 439.56 531.04 435.24 L 531.12 434.38 Z" />
</g>
<g id="#e73c46ff">
<path fill="#e73c46" opacity="1.00" d=" M 508.31 98.18 C 509.30 96.72 511.85 98.37 510.67 99.82 C 509.66 101.28 507.12 99.63 508.31 98.18 Z" />
<path fill="#e73c46" opacity="1.00" d=" M 501.00 98.97 C 501.40 98.89 502.18 98.73 502.58 98.65 C 503.00 100.05 502.55 100.98 501.24 101.46 C 500.04 100.91 499.97 100.08 501.00 98.97 Z" />
<path fill="#e73c46" opacity="1.00" d=" M 501.23 105.01 C 503.09 104.40 503.94 107.53 502.03 107.96 C 500.16 108.56 499.31 105.43 501.23 105.01 Z" />
<path fill="#e73c46" opacity="1.00" d=" M 500.00 114.01 C 500.97 113.00 501.95 112.00 502.95 111.02 C 503.03 112.19 504.45 113.96 502.74 114.51 C 501.82 114.38 500.90 114.22 500.00 114.01 Z" />
<path fill="#e73c46" opacity="1.00" d=" M 517.17 126.32 C 518.62 125.12 520.27 127.66 518.82 128.67 C 517.36 129.87 515.70 127.33 517.17 126.32 Z" />
<path fill="#e73c46" opacity="1.00" d=" M 519.00 146.21 C 517.04 144.70 517.17 142.56 518.73 140.84 C 519.21 142.59 519.36 144.42 519.00 146.21 Z" />
<path fill="#e73c46" opacity="1.00" d=" M 525.33 140.89 C 526.84 141.56 526.72 143.27 527.00 144.64 C 526.55 144.64 525.66 144.64 525.22 144.64 C 525.24 143.39 525.28 142.14 525.33 140.89 Z" />
<path fill="#e73c46" opacity="1.00" d=" M 525.19 149.30 C 526.65 148.13 528.27 150.70 526.79 151.68 C 525.32 152.84 523.70 150.28 525.19 149.30 Z" />
<path fill="#e73c46" opacity="1.00" d=" M 677.35 155.98 C 677.17 154.42 679.42 154.55 680.44 154.14 C 680.56 155.46 680.70 156.78 680.85 158.10 C 679.59 157.52 676.98 158.05 677.35 155.98 Z" />
<path fill="#e73c46" opacity="1.00" d=" M 684.02 154.41 C 684.80 154.29 686.37 154.06 687.15 153.95 C 687.50 154.27 688.20 154.93 688.55 155.26 C 687.72 156.86 686.57 158.26 685.26 159.49 C 684.82 157.80 684.41 156.10 684.02 154.41 Z" />
<path fill="#e73c46" opacity="1.00" d=" M 690.22 163.61 C 690.35 161.82 691.03 160.14 691.61 158.47 C 697.45 164.80 703.15 171.28 708.18 178.29 C 707.79 179.13 707.41 179.98 707.03 180.83 C 705.86 179.97 704.70 179.11 703.55 178.26 C 703.32 178.51 702.86 178.99 702.63 179.24 C 703.12 181.36 703.45 183.52 704.01 185.63 C 702.83 186.14 701.68 186.71 700.57 187.33 C 698.32 185.25 698.77 182.28 699.34 179.60 C 698.94 179.06 698.14 177.99 697.74 177.45 C 693.71 179.56 697.98 184.68 694.39 187.28 C 693.33 186.75 692.29 186.23 691.25 185.71 C 691.75 180.45 692.44 174.99 690.52 169.91 C 691.31 168.79 692.11 167.69 692.92 166.58 C 692.04 165.57 691.10 164.61 690.22 163.61 M 695.22 174.61 C 696.01 176.08 697.82 175.79 699.21 176.08 C 699.36 173.91 698.54 171.95 696.96 170.48 C 696.04 171.67 694.83 172.97 695.22 174.61 Z" />
<path fill="#e73c46" opacity="1.00" d=" M 669.92 164.73 C 670.66 163.45 670.59 160.71 672.72 161.31 C 673.18 162.43 673.61 163.56 674.10 164.69 C 672.70 164.70 671.30 164.72 669.92 164.73 Z" />
<path fill="#e73c46" opacity="1.00" d=" M 677.04 164.67 C 677.10 162.44 678.45 161.22 680.60 160.98 C 680.96 161.94 681.34 162.91 681.74 163.87 C 681.09 164.49 680.45 165.11 679.83 165.73 C 678.89 165.36 677.96 165.01 677.04 164.67 Z" />
<path fill="#e73c46" opacity="1.00" d=" M 683.24 163.19 C 684.15 162.36 685.06 161.54 686.00 160.72 C 686.94 161.54 687.88 162.36 688.83 163.19 C 687.59 164.10 686.78 165.40 685.99 166.67 C 685.32 165.32 684.35 164.17 683.24 163.19 Z" />
<path fill="#e73c46" opacity="1.00" d=" M 582.42 162.12 C 600.07 166.20 616.29 174.83 631.35 184.68 C 640.90 191.53 650.56 198.61 657.88 207.92 C 633.02 202.36 607.81 197.89 582.32 196.66 C 582.27 191.74 582.28 186.83 582.33 181.91 C 586.94 182.13 591.53 182.67 596.14 182.68 C 592.16 179.46 586.71 179.20 582.54 176.54 C 582.01 171.75 582.41 166.92 582.42 162.12 Z" />
<path fill="#e73c46" opacity="1.00" d=" M 431.95 206.08 C 449.34 184.99 473.78 170.11 500.04 162.86 C 500.35 167.45 500.81 172.14 499.82 176.68 C 496.28 178.97 491.80 179.61 488.81 182.79 C 492.53 182.46 496.26 182.11 499.99 181.73 C 500.41 186.54 500.42 191.38 500.29 196.21 C 494.49 198.02 488.35 197.65 482.40 198.58 C 472.36 199.53 462.38 200.93 452.41 202.46 C 445.55 203.48 438.87 205.45 431.95 206.08 Z" />
<path fill="#e73c46" opacity="1.00" d=" M 684.35 168.45 C 685.35 165.82 688.46 167.85 688.33 169.98 C 688.56 171.64 686.80 172.61 685.98 173.80 C 684.78 172.30 682.67 170.41 684.35 168.45 Z" />
<path fill="#e73c46" opacity="1.00" d=" M 671.32 168.36 C 673.69 167.51 674.87 171.73 672.64 172.53 C 670.19 173.85 669.50 169.41 671.32 168.36 Z" />
<path fill="#e73c46" opacity="1.00" d=" M 676.91 170.95 C 676.50 168.51 679.22 168.43 680.85 167.88 C 681.01 169.31 681.17 170.75 681.33 172.19 C 679.83 172.59 676.90 173.38 676.91 170.95 Z" />
<path fill="#e73c46" opacity="1.00" d=" M 671.33 175.38 C 673.79 174.56 674.56 178.55 672.67 179.61 C 670.21 180.49 669.46 176.44 671.33 175.38 Z" />
<path fill="#e73c46" opacity="1.00" d=" M 678.11 174.78 C 680.25 175.28 683.34 177.51 680.38 179.34 C 677.10 181.27 676.83 176.76 678.11 174.78 Z" />
<path fill="#e73c46" opacity="1.00" d=" M 683.30 176.96 C 684.37 175.90 685.46 174.69 687.05 174.44 C 688.19 175.63 688.26 177.29 688.33 178.84 C 687.70 179.17 686.45 179.83 685.82 180.16 C 684.98 179.09 684.13 178.02 683.30 176.96 Z" />
<path fill="#e73c46" opacity="1.00" d=" M 663.16 176.59 C 664.42 176.47 665.69 176.36 666.96 176.25 C 666.54 177.55 666.13 178.86 665.71 180.17 C 664.27 179.46 663.21 178.25 663.16 176.59 Z" />
<path fill="#e73c46" opacity="1.00" d=" M 685.12 187.28 C 683.76 184.93 683.90 182.34 685.97 180.46 C 686.97 181.77 689.12 182.77 688.68 184.72 C 688.01 186.14 686.32 186.49 685.12 187.28 Z" />
<path fill="#e73c46" opacity="1.00" d=" M 671.32 182.37 C 674.08 181.22 674.74 186.78 672.02 186.67 C 669.73 186.73 669.74 183.39 671.32 182.37 Z" />
<path fill="#e73c46" opacity="1.00" d=" M 677.71 182.68 C 679.02 181.22 680.74 182.89 682.23 183.10 C 681.29 184.37 680.96 186.64 679.01 186.70 C 677.04 187.12 676.11 183.62 677.71 182.68 Z" />
<path fill="#e73c46" opacity="1.00" d=" M 705.57 183.39 C 707.09 182.65 708.61 181.91 710.14 181.17 C 711.00 182.50 711.84 183.85 712.68 185.22 C 711.44 185.74 710.22 186.31 708.99 186.81 C 707.22 186.51 706.70 184.52 705.57 183.39 Z" />
<path fill="#e73c46" opacity="1.00" d=" M 663.31 183.29 C 664.43 183.29 665.56 183.29 666.70 183.28 C 666.70 183.90 666.70 185.14 666.71 185.76 C 665.57 185.75 664.43 185.75 663.31 185.75 C 663.31 185.13 663.31 183.91 663.31 183.29 Z" />
<path fill="#e73c46" opacity="1.00" d=" M 716.27 194.75 C 715.25 192.14 714.44 189.46 713.63 186.78 C 716.37 190.52 718.86 194.44 721.34 198.37 C 719.61 199.16 717.95 200.05 716.35 201.05 C 715.73 200.10 715.10 199.17 714.42 198.27 C 715.04 197.10 715.67 195.93 716.27 194.75 Z" />
<path fill="#e73c46" opacity="1.00" d=" M 684.73 193.26 C 682.62 191.50 684.54 188.96 686.01 187.55 C 687.00 188.83 689.12 189.78 688.68 191.70 C 688.05 193.03 685.97 194.82 684.73 193.26 Z" />
<path fill="#e73c46" opacity="1.00" d=" M 690.42 191.00 C 691.60 189.88 693.49 186.88 695.26 188.76 C 697.44 190.21 695.70 192.70 694.86 194.41 C 693.13 193.66 691.69 192.36 690.42 191.00 Z" />
<path fill="#e73c46" opacity="1.00" d=" M 700.35 188.17 C 704.01 186.34 705.54 193.23 701.87 194.07 C 698.82 194.64 697.36 189.48 700.35 188.17 Z" />
<path fill="#e73c46" opacity="1.00" d=" M 707.11 189.14 C 708.49 187.34 710.73 188.44 712.45 188.97 C 711.61 190.55 712.30 193.76 709.82 193.68 C 707.49 194.18 704.98 190.95 707.11 189.14 Z" />
<path fill="#e73c46" opacity="1.00" d=" M 663.07 191.81 C 663.35 190.32 664.81 189.73 665.91 188.93 C 666.23 190.32 666.53 191.71 666.84 193.11 C 665.59 192.61 664.15 192.67 663.07 191.81 Z" />
<path fill="#e73c46" opacity="1.00" d=" M 671.27 189.21 C 674.16 188.57 674.70 192.31 672.73 193.76 C 670.20 194.25 669.19 190.34 671.27 189.21 Z" />
<path fill="#e73c46" opacity="1.00" d=" M 676.70 190.14 C 677.77 189.63 678.89 189.21 680.05 188.89 C 682.29 190.10 680.75 192.85 679.91 194.48 C 678.11 193.64 677.24 191.94 676.70 190.14 Z" />
<path fill="#e73c46" opacity="1.00" d=" M 706.37 199.59 C 705.56 197.07 708.01 195.83 709.76 194.74 C 710.74 196.33 711.51 198.04 712.12 199.82 C 710.25 199.88 707.56 201.80 706.37 199.59 Z" />
<path fill="#e73c46" opacity="1.00" d=" M 663.31 198.69 C 662.86 197.07 664.72 196.57 665.71 195.79 C 666.26 196.87 666.79 197.97 667.29 199.09 C 666.43 200.92 663.81 200.58 663.31 198.69 Z" />
<path fill="#e73c46" opacity="1.00" d=" M 670.26 198.84 C 669.63 196.63 672.38 196.62 673.75 195.90 C 673.77 197.62 673.80 199.33 673.80 201.05 C 672.60 200.59 670.11 200.66 670.26 198.84 Z" />
<path fill="#e73c46" opacity="1.00" d=" M 677.94 200.96 C 677.02 199.04 677.39 197.11 678.91 195.64 C 679.88 196.45 680.86 197.27 681.84 198.09 C 681.44 198.93 681.08 199.79 680.74 200.65 C 680.04 200.73 678.64 200.88 677.94 200.96 Z" />
<path fill="#e73c46" opacity="1.00" d=" M 684.02 201.04 C 683.98 198.87 684.20 196.63 686.03 195.17 C 687.78 196.43 689.70 197.98 688.38 200.34 C 686.93 200.65 685.47 200.86 684.02 201.04 Z" />
<path fill="#e73c46" opacity="1.00" d=" M 692.37 200.69 C 689.84 199.09 691.72 196.24 693.80 195.29 C 694.78 196.25 695.77 197.21 696.77 198.17 C 695.69 199.78 694.61 201.80 692.37 200.69 Z" />
<path fill="#e73c46" opacity="1.00" d=" M 698.97 195.97 C 700.35 196.07 702.31 195.27 703.29 196.68 C 704.58 197.98 703.10 199.80 703.06 201.30 C 701.73 200.89 700.02 200.97 699.13 199.73 C 699.08 198.47 699.02 197.22 698.97 195.97 Z" />
<path fill="#e73c46" opacity="1.00" d=" M 676.98 207.81 C 676.98 205.61 677.64 203.65 679.78 202.72 C 680.58 204.35 680.87 206.14 681.24 207.90 C 679.81 207.87 678.39 207.84 676.98 207.81 Z" />
<path fill="#e73c46" opacity="1.00" d=" M 714.93 206.74 C 715.23 205.02 716.20 203.51 717.86 202.80 C 718.23 204.50 718.45 206.23 718.96 207.90 C 717.61 207.53 716.26 207.14 714.93 206.74 Z" />
<path fill="#e73c46" opacity="1.00" d=" M 663.63 206.52 C 665.25 205.73 666.79 204.81 668.25 203.73 C 667.50 205.69 666.84 207.68 666.18 209.67 C 665.31 208.63 664.46 207.58 663.63 206.52 Z" />
<path fill="#e73c46" opacity="1.00" d=" M 670.83 204.07 C 671.68 204.10 673.38 204.16 674.23 204.20 C 674.09 205.44 674.02 206.69 674.04 207.94 C 673.24 208.05 671.66 208.27 670.87 208.38 C 670.85 206.94 670.83 205.50 670.83 204.07 Z" />
<path fill="#e73c46" opacity="1.00" d=" M 685.39 208.46 C 683.17 207.52 684.32 203.02 686.88 204.01 C 688.78 204.25 688.40 206.49 689.01 207.81 C 687.80 208.03 686.62 208.70 685.39 208.46 Z" />
<path fill="#e73c46" opacity="1.00" d=" M 691.90 204.00 C 693.41 204.46 695.61 203.91 696.70 205.20 C 696.40 206.50 695.72 207.71 694.68 208.55 C 692.05 209.51 692.20 205.61 691.90 204.00 Z" />
<path fill="#e73c46" opacity="1.00" d=" M 700.13 203.89 C 701.74 204.03 704.51 204.44 703.78 206.75 C 702.83 207.68 701.41 207.76 700.21 208.11 C 700.17 206.70 700.14 205.29 700.13 203.89 Z" />
<path fill="#e73c46" opacity="1.00" d=" M 670.89 212.76 C 671.48 212.31 672.67 211.40 673.27 210.95 C 674.56 211.79 675.05 213.33 675.80 214.61 C 674.14 214.04 672.50 213.42 670.89 212.76 Z" />
<path fill="#e73c46" opacity="1.00" d=" M 677.64 210.95 C 678.51 210.94 680.25 210.92 681.12 210.91 C 681.12 212.24 681.14 213.58 681.17 214.91 C 680.56 215.22 679.35 215.84 678.74 216.15 C 678.44 214.40 678.05 212.67 677.64 210.95 Z" />
<path fill="#e73c46" opacity="1.00" d=" M 683.81 212.18 C 685.48 211.29 687.40 211.43 689.12 212.10 C 688.32 213.44 687.53 214.79 686.83 216.19 C 685.81 214.85 684.68 213.60 683.81 212.18 Z" />
<path fill="#e73c46" opacity="1.00" d=" M 504.93 214.15 C 522.60 213.00 540.31 213.29 558.01 213.30 C 576.03 213.12 594.01 214.77 611.86 217.13 C 629.17 219.80 646.91 223.47 661.81 233.17 C 670.22 238.89 677.10 247.24 679.99 257.09 C 680.76 259.81 680.29 262.65 680.19 265.43 C 677.94 258.16 675.64 250.44 669.99 245.01 C 661.61 236.81 650.00 233.44 639.17 229.81 C 621.43 225.11 603.41 221.12 585.06 219.85 C 581.30 219.60 577.56 220.06 573.84 220.47 C 565.31 218.97 556.62 219.35 548.00 219.33 C 536.67 219.43 525.30 218.94 513.99 220.02 C 504.08 220.94 494.10 221.27 484.27 222.96 C 479.45 223.03 474.61 223.01 469.84 223.83 C 455.19 226.29 440.34 229.18 426.95 235.88 C 419.99 239.13 413.31 243.62 409.29 250.33 C 404.47 258.40 401.53 267.58 400.64 276.94 C 398.87 290.52 398.96 304.63 403.24 317.76 C 406.75 327.50 413.90 336.32 423.57 340.43 C 431.88 344.16 440.96 345.50 449.87 347.05 C 458.29 348.57 466.93 348.16 475.31 350.01 C 472.33 353.49 469.11 356.89 467.07 361.03 C 465.33 364.51 465.23 368.48 465.12 372.29 C 465.11 373.05 465.08 374.57 465.07 375.33 C 456.21 375.12 447.40 373.93 438.69 372.39 C 426.79 369.99 414.53 366.80 404.78 359.22 C 398.03 354.06 393.24 346.82 389.85 339.12 C 390.95 340.11 392.10 341.04 393.26 341.99 C 392.00 335.58 389.96 329.34 388.99 322.88 C 387.00 311.50 387.08 299.90 387.47 288.40 C 388.41 277.99 390.14 267.37 395.01 257.99 C 398.58 250.97 403.05 244.21 409.32 239.32 C 417.17 233.28 425.97 228.47 435.36 225.33 C 457.65 217.30 481.51 215.80 504.93 214.15 Z" />
<path fill="#e73c46" opacity="1.00" d=" M 309.90 317.89 C 311.60 306.47 316.24 293.96 326.85 288.02 C 325.81 295.66 324.02 303.22 324.15 310.98 C 323.62 323.03 325.83 334.93 326.41 346.93 C 326.78 356.49 328.85 365.88 329.37 375.44 C 330.18 386.38 332.06 397.24 334.90 407.84 C 334.35 407.68 333.25 407.35 332.70 407.19 C 331.57 404.25 330.47 401.27 329.92 398.16 C 326.99 382.20 324.65 366.12 323.40 349.94 C 323.30 362.96 323.53 375.99 323.37 389.02 C 323.14 394.52 324.77 399.84 325.25 405.29 C 320.14 402.01 317.39 396.37 315.07 390.98 C 310.93 380.77 310.09 369.67 309.40 358.79 C 308.29 345.19 308.37 331.46 309.90 317.89 M 315.74 345.11 C 322.51 334.72 319.30 321.67 317.21 310.36 C 312.19 320.98 309.07 334.51 315.74 345.11 Z" />
<path fill="#e73c46" opacity="1.00" d=" M 755.94 290.65 C 756.98 291.39 758.14 292.02 759.09 292.91 C 766.49 302.32 769.02 314.39 770.54 325.99 C 771.09 338.31 770.66 350.67 770.54 363.00 C 769.50 374.55 768.73 386.64 763.02 397.02 C 761.17 400.59 758.17 403.34 755.16 405.91 C 756.76 397.70 757.28 389.33 756.95 380.98 C 756.68 374.93 757.74 368.85 756.62 362.84 C 756.06 367.86 755.74 372.91 754.80 377.88 C 753.29 386.10 752.99 394.57 750.47 402.59 C 749.89 404.71 748.51 406.46 747.16 408.15 C 747.53 401.67 749.56 395.43 750.06 388.96 C 751.59 373.70 753.43 358.40 753.31 343.04 C 752.74 343.25 751.61 343.67 751.04 343.88 C 752.47 338.12 753.06 332.20 754.21 326.38 C 755.07 324.92 756.49 323.69 756.78 321.95 C 758.12 311.53 757.00 301.04 755.94 290.65 M 762.28 310.04 C 760.92 317.62 759.41 325.29 759.70 333.03 C 759.86 337.72 761.93 342.11 765.06 345.54 C 770.53 338.18 768.64 328.41 767.89 319.93 C 767.79 315.85 765.01 312.74 762.28 310.04 Z" />
<path fill="#e73c46" opacity="1.00" d=" M 737.68 346.19 C 738.00 346.31 738.65 346.54 738.98 346.66 C 738.81 347.05 738.47 347.83 738.30 348.21 C 736.24 348.58 734.17 348.91 732.11 349.28 C 732.24 352.04 732.33 354.82 732.37 357.59 C 735.67 358.00 739.14 358.22 742.11 356.42 C 741.08 366.58 740.28 376.77 738.80 386.88 C 737.62 394.54 737.31 402.64 733.63 409.64 C 731.74 413.00 727.32 412.01 724.15 411.91 C 724.92 407.16 725.93 402.46 726.86 397.74 C 728.20 390.92 728.54 383.95 729.32 377.06 C 730.20 367.57 731.57 358.10 731.40 348.55 C 732.84 348.37 734.29 348.19 735.74 348.00 C 736.23 347.55 737.19 346.64 737.68 346.19 Z" />
<path fill="#e73c46" opacity="1.00" d=" M 350.38 354.10 C 350.68 360.40 351.05 366.71 351.29 373.02 C 351.21 386.03 354.16 398.81 354.93 411.77 C 352.64 411.48 350.34 411.23 348.05 411.01 C 342.82 402.25 342.55 391.78 341.03 381.96 C 339.77 373.91 339.82 365.76 339.18 357.66 C 343.33 359.06 347.72 357.54 350.38 354.10 Z" />
<path fill="#e73c46" opacity="1.00" d=" M 700.17 400.08 C 702.32 393.48 703.55 386.63 705.80 380.06 C 703.40 396.09 700.70 412.33 694.18 427.28 C 690.75 435.31 683.92 442.31 675.14 444.10 C 662.64 446.84 649.69 446.31 636.98 445.86 C 626.02 445.57 615.02 444.40 604.40 441.62 C 594.54 438.38 585.56 432.53 578.63 424.80 C 580.00 424.57 581.38 424.35 582.78 424.15 C 590.85 429.62 600.68 431.14 610.05 433.00 C 618.74 434.13 627.40 435.64 636.13 436.45 C 648.68 436.92 661.30 438.24 673.82 436.74 C 680.56 436.03 686.27 431.46 689.90 425.94 C 694.85 418.01 697.29 408.89 700.17 400.08 Z" />
<path fill="#e73c46" opacity="1.00" d=" M 378.13 386.96 C 381.61 395.13 383.62 403.82 386.97 412.03 C 389.92 419.49 392.80 427.62 399.32 432.74 C 406.39 437.91 415.61 437.95 424.00 438.14 C 439.08 437.92 454.13 436.46 469.03 434.12 C 476.91 433.08 484.76 431.61 492.39 429.36 C 497.42 427.95 501.90 425.12 506.87 423.53 C 506.62 424.13 506.11 425.32 505.86 425.91 C 505.18 427.74 503.53 428.89 502.11 430.10 C 497.72 433.52 493.11 436.83 487.84 438.76 C 479.87 441.71 471.37 442.71 463.00 443.85 C 456.34 444.50 449.73 445.79 443.02 445.68 C 435.33 445.65 427.63 445.71 419.94 445.68 C 412.57 445.65 405.05 444.11 398.64 440.37 C 392.84 436.97 389.92 430.54 387.52 424.56 C 383.02 412.46 378.71 399.96 378.13 386.96 Z" />
<path fill="#e73c46" opacity="1.00" d=" M 375.92 421.72 C 377.44 421.92 379.10 421.67 380.51 422.39 C 383.29 426.47 384.56 431.35 385.89 436.05 C 381.92 431.76 378.23 427.14 375.92 421.72 Z" />
<path fill="#e73c46" opacity="1.00" d=" M 518.87 437.78 C 522.83 436.56 526.91 435.70 531.04 435.24 C 530.66 439.56 530.02 443.86 529.12 448.11 C 526.87 459.22 525.01 470.40 522.64 481.49 C 520.09 491.27 518.68 501.31 516.04 511.07 C 483.87 506.10 452.89 493.52 426.44 474.54 C 415.06 466.11 404.47 456.62 394.85 446.23 C 405.03 450.44 416.03 452.21 427.01 452.31 C 446.94 452.50 467.00 451.46 486.56 447.49 C 497.29 444.13 508.11 441.07 518.87 437.78 Z" />
</g>
<g id="#3f88a0ff">
<path fill="#3f88a0" opacity="1.00" d=" M 478.87 105.83 C 481.91 104.94 485.05 104.91 488.17 105.19 C 486.97 109.37 488.82 113.51 488.82 117.71 C 488.96 125.01 489.33 132.31 488.83 139.61 C 488.47 141.57 489.86 143.08 490.90 144.56 C 494.82 141.80 493.30 136.84 492.79 132.87 C 491.83 128.86 493.90 124.78 492.45 120.85 C 492.85 117.50 493.39 114.14 493.09 110.76 C 493.98 111.43 494.92 112.05 495.79 112.77 C 496.07 114.82 496.30 116.90 496.25 118.98 C 496.09 126.26 496.70 133.54 496.39 140.83 C 496.97 141.90 497.58 142.95 498.21 144.00 C 497.60 145.05 497.00 146.11 496.42 147.17 C 496.79 150.39 496.63 153.66 497.17 156.85 C 497.95 157.54 498.77 158.16 499.66 158.72 C 488.97 161.22 478.63 165.15 468.63 169.65 C 453.65 178.01 439.74 188.46 428.18 201.18 C 425.50 204.16 423.16 207.83 419.16 209.14 C 411.73 211.91 404.75 215.77 398.13 220.12 C 384.47 229.93 373.76 243.63 366.99 258.98 C 364.47 264.46 363.03 270.32 360.99 275.97 C 355.32 276.51 349.66 277.17 344.00 277.77 C 346.57 249.67 355.81 222.34 369.86 197.92 C 384.90 169.93 407.85 146.84 433.76 128.76 C 445.58 121.24 457.69 113.94 470.82 108.91 C 472.27 110.36 473.68 111.85 475.17 113.26 C 475.82 111.20 476.26 109.06 476.11 106.88 C 477.03 106.53 477.95 106.18 478.87 105.83 M 480.52 107.27 C 480.42 108.85 480.32 110.43 480.24 112.02 C 482.13 112.26 485.63 111.80 484.92 109.15 C 484.57 106.93 482.16 107.27 480.52 107.27 M 472.10 116.88 C 472.56 117.76 472.99 118.68 473.37 119.61 C 474.01 119.64 475.30 119.70 475.95 119.72 C 476.97 117.65 476.29 115.64 474.89 113.95 C 473.96 114.93 473.03 115.90 472.10 116.88 M 480.40 116.38 C 480.09 118.13 482.01 118.98 482.88 120.20 C 483.78 118.71 484.44 117.11 485.02 115.48 C 484.47 115.05 483.37 114.20 482.82 113.77 C 481.99 114.63 481.14 115.46 480.40 116.38 M 474.27 122.26 C 472.39 123.69 472.71 128.42 475.70 127.68 C 477.59 126.27 477.24 121.75 474.27 122.26 M 480.85 124.97 C 480.98 126.72 482.84 127.25 484.03 128.13 C 484.29 126.58 484.98 125.01 484.65 123.43 C 484.00 120.94 480.00 122.75 480.85 124.97 M 466.24 123.17 C 465.50 124.32 465.30 125.69 465.01 127.00 C 466.27 126.67 467.67 126.52 468.76 125.72 C 469.00 124.21 467.68 123.08 466.24 123.17 M 473.44 131.43 C 472.85 133.24 474.36 134.72 475.14 136.19 C 476.02 134.95 477.91 134.09 477.62 132.32 C 476.87 130.88 474.21 129.09 473.44 131.43 M 481.28 130.23 C 481.33 131.59 481.39 132.96 481.56 134.31 C 482.68 134.66 483.82 134.96 484.98 135.22 C 485.39 133.98 485.86 132.66 485.74 131.34 C 484.79 129.70 482.80 130.51 481.28 130.23 M 466.32 131.31 C 464.41 132.12 465.66 135.63 467.62 134.45 C 469.69 133.51 468.29 130.92 466.32 131.31 M 473.04 139.23 C 474.18 140.43 474.64 143.01 476.71 142.66 C 477.24 141.62 477.58 140.50 478.01 139.42 C 477.00 139.04 476.00 138.64 475.01 138.23 C 474.52 138.48 473.53 138.98 473.04 139.23 M 481.29 140.72 C 482.68 142.25 484.63 141.53 486.25 140.86 C 485.65 140.04 485.07 139.20 484.52 138.36 C 482.93 137.96 480.95 138.83 481.29 140.72 M 487.94 147.42 C 488.76 148.44 489.19 149.84 490.32 150.59 C 492.22 151.28 493.01 148.94 494.30 148.03 C 493.21 146.95 492.13 145.86 491.08 144.75 C 490.02 145.63 488.97 146.52 487.94 147.42 M 483.26 146.17 C 482.98 146.66 482.42 147.63 482.14 148.12 C 482.69 148.72 483.24 149.32 483.79 149.92 C 484.05 149.42 484.58 148.40 484.84 147.89 C 484.32 147.31 483.79 146.73 483.26 146.17 M 491.23 151.74 C 490.00 153.47 487.96 155.84 490.30 157.64 C 494.00 158.36 492.86 153.40 491.23 151.74 Z" />
<path fill="#3f88a0" opacity="1.00" d=" M 502.20 117.95 C 503.00 118.89 504.08 119.68 504.63 120.82 C 504.01 121.91 503.30 122.93 502.62 123.97 C 501.84 123.02 500.86 122.18 500.38 121.03 C 500.87 119.94 501.54 118.95 502.20 117.95 Z" />
<path fill="#3f88a0" opacity="1.00" d=" M 502.44 125.08 C 503.23 126.00 504.05 126.91 504.73 127.93 C 504.13 128.93 503.51 129.92 502.96 130.95 C 502.04 130.27 501.12 129.59 500.21 128.90 C 500.95 127.62 501.69 126.35 502.44 125.08 Z" />
<path fill="#3f88a0" opacity="1.00" d=" M 502.37 132.08 C 503.14 133.39 504.16 134.60 504.60 136.08 C 504.57 137.27 503.64 138.19 503.26 139.27 C 502.21 138.41 501.18 137.56 500.15 136.71 C 500.89 135.17 501.65 133.63 502.37 132.08 Z" />
<path fill="#3f88a0" opacity="1.00" d=" M 509.41 133.85 C 510.94 134.60 511.77 136.04 512.13 137.66 C 511.38 137.69 509.90 137.75 509.16 137.78 C 509.23 136.47 509.32 135.16 509.41 133.85 Z" />
<path fill="#3f88a0" opacity="1.00" d=" M 502.41 140.05 C 503.70 141.58 504.93 143.17 506.11 144.79 C 504.12 145.67 502.00 145.82 499.97 144.99 C 500.78 143.35 501.61 141.71 502.41 140.05 Z" />
<path fill="#3f88a0" opacity="1.00" d=" M 505.35 173.36 C 516.56 172.50 527.73 171.03 539.00 171.20 C 551.82 171.36 564.91 170.55 577.41 173.98 C 577.30 181.07 577.53 188.16 577.18 195.24 C 557.84 195.27 538.48 194.11 519.15 195.27 C 514.55 195.68 509.93 195.78 505.32 195.68 C 505.40 188.24 505.27 180.80 505.35 173.36 M 572.00 189.07 C 551.94 188.47 531.87 188.48 511.81 189.16 C 511.18 186.47 510.69 183.72 510.77 180.95 C 510.62 179.15 511.09 176.90 509.40 175.68 C 509.05 181.17 508.94 186.70 509.84 192.14 C 518.56 192.23 527.27 191.75 535.99 191.68 C 548.62 191.78 561.24 192.05 573.87 192.09 C 574.07 186.34 574.34 180.57 573.67 174.85 C 572.07 179.42 572.27 184.31 572.00 189.07 Z" />
<path fill="#3f88a0" opacity="1.00" d=" M 376.61 252.65 C 380.10 246.43 383.90 239.97 390.09 236.08 C 386.24 245.81 382.51 255.72 380.96 266.12 C 379.40 275.13 379.29 284.31 379.98 293.41 C 379.74 297.53 379.64 301.65 379.61 305.79 C 379.26 311.35 379.21 317.00 380.70 322.42 C 384.51 337.67 391.03 353.28 403.77 363.21 C 411.53 369.11 420.85 372.64 430.31 374.74 C 444.02 377.79 457.99 379.77 472.03 380.29 C 479.86 380.51 488.11 380.04 495.07 376.09 C 501.98 372.19 506.26 365.25 511.90 359.90 C 519.68 352.39 529.06 345.60 540.08 344.24 C 548.67 342.98 557.70 345.14 564.66 350.37 C 574.39 357.22 580.59 367.74 589.50 375.47 C 596.92 381.64 607.22 381.14 616.26 380.33 C 635.47 378.14 655.17 375.34 672.68 366.68 C 685.24 360.63 694.58 349.05 698.91 335.90 C 703.15 324.38 703.63 311.84 702.12 299.76 C 701.40 290.82 701.84 281.78 700.16 272.92 C 697.93 260.46 695.42 247.94 691.01 236.06 C 697.95 241.83 701.86 250.19 705.75 258.13 C 708.90 265.33 711.85 272.88 712.56 280.76 C 712.04 295.43 713.15 310.15 711.77 324.78 C 710.40 335.12 709.02 345.64 705.10 355.38 C 706.50 347.29 708.94 339.37 709.40 331.13 C 710.61 312.89 710.67 294.41 707.40 276.36 C 707.28 300.03 707.94 324.19 701.21 347.15 C 697.60 358.72 690.06 369.75 678.73 374.85 C 659.65 383.55 638.42 385.25 617.77 386.63 C 610.00 386.82 601.79 387.60 594.45 384.51 C 586.83 380.70 582.98 372.63 577.35 366.65 C 571.48 360.51 565.88 353.44 557.68 350.34 C 547.03 346.13 534.54 347.72 525.06 354.08 C 517.38 358.84 511.26 365.62 505.31 372.32 C 501.63 376.32 497.92 380.46 493.18 383.22 C 488.02 386.22 481.91 386.72 476.07 386.82 C 463.28 386.95 450.53 385.68 437.83 384.32 C 427.05 383.16 416.35 380.83 406.29 376.74 C 397.61 373.19 389.62 367.31 385.00 359.00 C 376.24 343.92 375.15 326.13 373.03 309.23 C 372.81 306.36 371.57 303.75 370.37 301.19 C 368.67 295.70 369.81 289.69 369.92 284.02 C 371.37 273.46 371.20 262.17 376.61 252.65 Z" />
<path fill="#3f88a0" opacity="1.00" d=" M 354.63 281.51 C 356.70 281.41 358.78 281.26 360.85 281.05 C 360.57 294.71 360.50 308.37 360.94 322.02 C 361.57 329.35 361.61 336.71 361.98 344.06 C 362.65 351.26 362.84 358.50 362.59 365.73 C 361.33 366.49 360.08 367.26 358.84 368.04 C 354.66 364.21 355.76 358.02 355.04 352.95 C 353.49 329.20 351.64 305.21 354.63 281.51 Z" />
<path fill="#3f88a0" opacity="1.00" d=" M 718.26 281.15 C 720.58 281.55 724.55 280.35 725.33 283.44 C 726.39 289.56 727.08 295.76 727.58 301.95 C 727.66 319.30 727.90 336.67 726.86 354.00 C 726.53 358.84 727.06 364.54 723.13 368.15 C 721.93 366.97 720.56 365.92 719.67 364.49 C 719.03 361.03 719.38 357.50 719.32 354.01 C 719.24 340.34 719.40 326.67 719.37 313.00 C 719.29 302.38 719.80 291.70 718.26 281.15 Z" />
<path fill="#3f88a0" opacity="1.00" d=" M 523.38 337.47 C 532.55 332.57 543.47 331.36 553.60 333.45 C 564.46 335.88 573.60 342.95 580.80 351.18 C 586.50 357.46 591.42 364.69 598.65 369.37 C 603.49 372.56 609.48 372.59 614.92 374.08 C 616.02 374.53 617.10 375.03 618.22 375.49 C 611.40 375.86 604.38 376.32 597.77 374.25 C 592.63 372.64 588.64 368.80 585.15 364.86 C 579.03 357.99 573.34 350.46 565.41 345.55 C 556.38 339.53 544.83 338.74 534.40 340.63 C 524.27 343.42 515.39 349.67 507.96 356.96 C 502.51 362.19 498.39 369.06 491.42 372.50 C 483.30 376.75 473.86 375.18 465.07 375.33 C 465.08 374.57 465.11 373.05 465.12 372.29 C 471.66 374.06 478.85 374.03 485.05 371.07 C 491.01 368.38 494.96 362.96 499.24 358.25 C 506.39 350.40 513.85 342.44 523.38 337.47 Z" />
<path fill="#3f88a0" opacity="1.00" d=" M 330.02 346.94 C 330.41 346.95 331.19 346.99 331.58 347.01 C 330.88 349.41 332.63 350.14 334.71 350.58 C 336.92 370.51 337.48 390.74 342.60 410.25 C 337.77 408.56 337.20 403.07 336.29 398.77 C 333.21 381.63 331.13 364.31 330.02 346.94 Z" />
<path fill="#3f88a0" opacity="1.00" d=" M 746.13 350.23 C 747.40 350.09 748.68 349.95 749.98 349.82 C 750.15 358.93 748.79 367.96 747.93 377.00 C 746.92 386.51 746.02 396.13 743.20 405.31 C 742.51 407.97 740.28 409.64 738.08 411.03 C 743.45 391.19 743.58 370.50 746.13 350.23 Z" />
<path fill="#3f88a0" opacity="1.00" d=" M 376.90 357.55 C 378.20 359.22 379.50 360.90 380.84 362.54 C 380.76 363.08 380.61 364.15 380.54 364.68 C 387.20 371.80 394.86 378.31 404.00 381.98 C 426.26 390.69 450.44 391.87 474.04 393.28 C 479.94 393.41 484.56 399.14 490.65 397.69 C 495.64 396.59 498.47 391.96 501.00 387.94 C 503.50 383.97 506.84 380.64 510.04 377.24 C 508.09 385.31 504.97 393.93 497.93 398.93 C 491.23 403.54 482.80 403.70 475.01 404.68 C 468.71 405.53 462.36 405.80 456.01 405.65 C 448.09 405.41 439.95 406.62 432.28 404.02 C 431.64 405.23 431.01 406.44 430.39 407.65 C 412.63 407.63 394.73 399.21 384.41 384.58 C 380.38 379.18 378.20 372.72 376.62 366.24 C 377.39 365.52 378.15 364.79 378.91 364.06 C 378.25 361.88 377.53 359.73 376.90 357.55 Z" />
<path fill="#3f88a0" opacity="1.00" d=" M 691.64 373.72 C 695.67 370.67 698.66 366.54 702.15 362.94 C 703.43 363.66 704.72 364.39 706.01 365.13 C 703.65 372.97 700.70 380.93 695.17 387.15 C 686.13 398.02 672.71 404.33 659.07 407.14 C 656.28 407.80 653.40 407.69 650.57 407.61 C 649.96 405.77 649.40 403.93 648.81 402.10 C 647.07 403.54 645.49 405.72 642.99 405.62 C 635.34 405.93 627.67 405.63 620.04 405.00 C 612.28 404.58 604.47 404.40 596.78 403.16 C 591.41 402.16 585.85 400.06 582.45 395.57 C 578.88 390.82 577.17 384.85 577.17 378.95 C 581.01 382.58 583.47 387.28 586.09 391.80 C 587.74 394.43 589.62 397.61 593.01 398.10 C 599.35 399.49 604.01 393.46 610.18 393.39 C 626.86 392.10 643.67 391.01 660.00 387.10 C 671.18 384.51 682.52 380.96 691.64 373.72 Z" />
<path fill="#3f88a0" opacity="1.00" d=" M 536.09 372.12 C 541.98 369.41 548.84 370.63 554.43 373.48 C 560.70 376.56 565.36 381.92 569.90 387.07 C 574.12 391.86 577.33 397.66 582.74 401.29 C 588.09 405.30 594.71 406.82 601.00 408.71 C 599.00 411.90 597.52 415.37 596.37 418.95 C 607.10 420.45 617.99 419.62 628.80 419.91 L 628.84 420.76 C 613.41 420.25 598.03 422.01 582.78 424.15 C 581.38 424.35 580.00 424.57 578.63 424.80 C 571.91 419.04 566.82 411.63 560.06 405.93 C 553.02 400.18 542.92 399.47 534.59 402.58 C 522.38 406.64 515.57 418.34 505.86 425.91 C 506.11 425.32 506.62 424.13 506.87 423.53 C 508.10 421.03 510.50 419.36 512.21 417.21 C 515.95 412.66 519.66 408.06 522.83 403.09 C 521.20 401.14 519.89 398.12 516.94 398.14 C 509.77 396.97 504.68 402.99 498.57 405.47 C 488.11 409.93 476.63 411.94 465.28 411.68 C 465.27 411.11 465.26 409.97 465.25 409.40 C 473.64 409.61 481.95 408.19 490.07 406.25 C 497.53 404.40 504.25 399.98 509.18 394.12 C 516.76 385.32 524.98 376.36 536.09 372.12 Z" />
<path fill="#3f88a0" opacity="1.00" d=" M 685.74 399.82 C 689.97 397.19 693.32 393.45 697.10 390.25 C 688.45 402.29 674.43 408.60 661.09 414.00 C 653.28 416.88 645.30 420.31 636.80 419.79 C 639.01 419.40 641.31 419.27 643.43 418.42 C 645.87 416.21 647.41 413.24 649.29 410.57 C 662.11 410.71 674.96 406.69 685.74 399.82 Z" />
<path fill="#3f88a0" opacity="1.00" d=" M 392.12 398.07 C 403.56 406.37 417.60 410.50 431.69 410.46 C 433.24 412.84 434.62 415.39 436.61 417.45 C 439.50 418.86 442.80 419.02 445.95 419.27 C 454.98 419.61 464.04 419.11 473.06 419.37 C 460.79 421.39 448.18 420.96 435.96 418.88 C 426.29 415.96 416.58 412.89 407.53 408.36 C 402.13 405.36 396.26 402.82 392.12 398.07 Z" />
<path fill="#3f88a0" opacity="1.00" d=" M 530.74 408.77 C 536.35 404.80 543.72 404.43 550.25 405.84 C 557.93 407.84 562.67 414.75 567.56 420.44 C 571.21 425.12 575.95 428.86 579.16 433.89 C 572.95 433.32 567.16 430.84 561.04 429.82 C 549.19 427.64 536.93 426.78 525.00 428.85 C 518.79 429.81 513.13 432.77 506.96 433.88 C 508.54 429.22 512.74 426.37 515.73 422.70 C 520.13 417.46 525.14 412.71 530.74 408.77 Z" />
<path fill="#3f88a0" opacity="1.00" d=" M 437.84 409.45 C 444.48 409.20 451.13 409.40 457.78 409.34 C 457.75 409.99 457.69 411.27 457.66 411.92 C 452.24 413.00 446.67 412.88 441.18 412.53 C 439.43 412.49 438.86 410.53 437.84 409.45 Z" />
<path fill="#3f88a0" opacity="1.00" d=" M 624.18 409.36 C 630.47 409.33 636.84 408.97 643.04 410.31 C 641.80 411.26 640.68 412.66 638.99 412.64 C 634.06 413.00 629.12 412.63 624.20 412.59 C 624.19 411.51 624.18 410.43 624.18 409.36 Z" />
<path fill="#3f88a0" opacity="1.00" d=" M 689.03 443.99 C 695.43 438.48 698.37 430.31 702.19 423.03 C 703.74 425.83 705.44 428.55 707.24 431.20 C 703.74 435.41 700.84 440.08 697.18 444.16 C 684.51 458.26 670.19 470.92 654.31 481.31 C 625.28 499.92 591.47 510.89 557.07 513.13 C 562.41 489.03 568.57 465.11 573.94 441.02 C 579.11 441.55 583.90 443.67 588.88 445.03 C 598.19 447.71 607.75 449.54 617.40 450.51 C 634.23 452.13 651.24 453.11 668.08 451.20 C 675.39 450.19 683.27 449.01 689.03 443.99 Z" />
</g>
</svg>
