<?xml version="1.0" encoding="UTF-8" ?>
<!DOCTYPE svg PUBLIC "-//W3C//DTD SVG 1.1//EN" "http://www.w3.org/Graphics/SVG/1.1/DTD/svg11.dtd">
<svg width="1080pt" height="610pt" viewBox="0 0 1080 610" version="1.1" xmlns="http://www.w3.org/2000/svg">
<g id="#fbd514ff">
<path fill="#fbd514" opacity="1.00" d=" M 317.92 94.71 C 331.58 95.12 344.47 100.29 357.92 102.12 C 404.85 110.82 451.47 121.08 498.42 129.64 C 508.87 131.60 519.04 135.87 529.79 135.73 C 528.30 138.18 527.38 140.91 526.95 143.75 C 529.12 143.71 531.31 143.74 533.47 143.37 C 534.54 140.83 532.93 138.49 531.15 136.81 C 544.74 138.94 558.18 141.93 571.43 145.62 C 559.87 147.76 548.90 151.81 538.34 156.90 C 535.27 154.60 530.87 150.65 527.24 154.27 C 524.10 156.52 526.21 160.29 527.25 163.07 C 523.48 166.46 519.72 169.85 515.93 173.22 C 512.63 172.75 508.24 170.71 505.69 173.82 C 504.31 176.67 505.38 180.00 505.57 183.02 C 497.30 188.88 487.23 191.79 479.60 198.61 C 475.35 201.86 472.33 206.80 467.34 209.01 C 458.44 211.24 449.13 209.56 440.14 211.10 C 434.51 212.24 428.72 212.17 423.13 210.83 C 418.68 209.45 415.02 213.03 410.92 213.99 C 406.19 215.38 401.70 208.26 397.50 212.42 C 393.19 216.18 387.38 216.63 381.92 216.77 C 380.70 214.53 380.64 209.97 377.04 210.84 C 373.40 211.03 374.73 215.68 374.80 218.11 C 358.21 225.61 345.21 240.40 339.72 257.72 C 338.64 261.17 335.34 262.97 332.90 265.35 C 334.10 269.10 336.74 272.59 335.83 276.75 C 334.16 286.50 336.70 297.11 331.28 305.94 C 336.19 312.88 335.39 321.58 336.44 329.62 C 337.08 333.39 333.50 335.98 333.03 339.51 C 336.08 341.17 339.90 342.50 340.49 346.47 C 344.16 359.13 353.14 370.89 366.16 374.78 C 374.43 377.51 383.28 377.31 391.78 378.91 C 394.18 385.06 398.13 390.80 404.15 393.86 C 409.68 397.44 416.49 397.83 422.34 400.58 C 425.29 404.22 426.19 409.14 429.31 412.69 C 432.06 416.09 436.29 417.61 440.26 419.06 C 438.66 421.44 435.93 424.23 437.56 427.30 C 439.43 429.94 444.27 429.39 445.68 426.50 C 445.81 424.23 445.18 422.02 444.72 419.83 C 454.67 420.66 465.75 420.39 473.96 413.92 C 482.15 407.06 486.35 396.90 490.95 387.53 C 500.92 387.76 510.94 389.73 519.96 394.08 C 525.82 396.87 530.03 401.98 535.10 405.88 C 541.60 410.95 548.88 414.97 556.50 418.10 C 551.81 420.35 546.85 421.98 541.78 423.10 C 517.34 428.41 493.01 434.18 468.62 439.70 C 451.14 441.08 434.43 448.33 416.74 447.59 C 408.74 447.64 400.73 447.57 392.73 447.89 C 377.67 448.26 362.59 448.21 347.54 447.48 C 347.55 448.14 347.55 449.45 347.55 450.10 C 347.55 452.61 347.51 455.13 347.50 457.64 C 337.58 458.86 328.19 462.62 318.27 463.87 C 318.38 379.58 318.44 295.29 318.21 211.00 C 317.14 172.25 317.68 133.46 317.92 94.71 M 333.38 117.36 C 329.73 118.48 332.29 124.50 335.80 122.85 C 340.11 122.05 337.33 115.05 333.38 117.36 M 353.33 119.34 C 352.65 123.49 357.69 122.86 360.19 121.94 C 360.93 117.54 355.45 115.14 353.33 119.34 M 375.45 117.28 C 371.28 121.04 377.97 126.24 381.09 122.10 C 384.00 118.56 378.70 114.99 375.45 117.28 M 396.38 119.43 C 395.18 122.71 400.43 125.05 402.53 122.53 C 404.24 121.09 403.14 118.71 403.06 116.86 C 400.81 117.35 397.18 116.54 396.38 119.43 M 417.78 122.80 C 419.43 122.82 421.08 122.85 422.74 122.87 C 423.17 121.83 423.61 120.78 424.05 119.74 C 420.85 117.08 417.15 118.27 417.78 122.80 M 334.17 133.44 C 328.29 134.52 329.60 144.51 335.65 143.58 C 341.16 141.84 340.38 132.87 334.17 133.44 M 355.39 133.44 C 351.10 134.06 349.80 140.27 353.37 142.65 C 356.16 145.21 360.85 143.11 361.43 139.54 C 362.37 136.08 358.87 132.53 355.39 133.44 M 377.38 133.39 C 370.80 134.03 372.40 144.69 378.81 143.71 C 385.00 142.54 384.04 132.12 377.38 133.39 M 398.48 133.42 C 392.23 135.11 395.06 146.22 401.53 143.67 C 407.93 141.70 405.12 131.07 398.48 133.42 M 421.29 133.41 C 414.49 133.97 415.21 144.64 421.95 144.31 C 428.63 143.79 428.29 132.57 421.29 133.41 M 465.14 133.47 C 458.72 133.62 458.51 143.99 465.05 144.17 C 472.13 144.69 472.57 132.66 465.14 133.47 M 441.41 134.18 C 437.23 135.70 437.16 142.38 441.29 143.94 C 444.98 145.53 449.35 142.00 448.88 138.10 C 448.91 134.51 444.34 132.54 441.41 134.18 M 485.42 134.26 C 481.53 135.22 480.50 141.00 483.89 143.23 C 487.36 146.22 493.09 142.47 492.31 138.13 C 492.00 134.82 488.30 133.31 485.42 134.26 M 506.51 135.34 C 503.64 137.16 503.63 141.77 506.70 143.41 C 510.04 146.04 515.22 142.17 514.08 138.24 C 513.46 134.94 509.16 133.74 506.51 135.34 M 333.44 152.41 C 330.33 153.36 328.58 157.50 330.68 160.21 C 332.73 163.38 338.32 162.54 339.11 158.74 C 340.59 155.22 337.10 151.26 333.44 152.41 M 355.36 152.38 C 351.22 153.11 349.65 159.35 353.39 161.62 C 356.51 164.28 361.59 161.79 361.71 157.78 C 362.44 154.27 358.57 151.54 355.36 152.38 M 377.37 152.40 C 370.93 152.97 371.75 162.99 378.02 162.94 C 385.10 163.28 384.63 150.76 377.37 152.40 M 399.37 152.39 C 392.68 152.90 394.08 164.17 400.76 162.72 C 407.32 162.04 406.29 150.65 399.37 152.39 M 419.50 152.46 C 412.87 155.18 417.97 165.75 424.22 162.31 C 430.29 159.20 425.88 149.57 419.50 152.46 M 442.41 152.38 C 438.57 153.09 436.71 158.53 439.77 161.20 C 442.52 164.28 448.04 162.80 448.82 158.73 C 450.03 154.97 446.14 151.16 442.41 152.38 M 464.39 152.46 C 460.20 153.29 458.87 159.14 462.21 161.76 C 465.43 165.08 471.60 161.59 470.83 157.18 C 470.67 154.06 467.41 151.64 464.39 152.46 M 487.26 152.40 C 480.39 152.45 481.15 163.82 487.92 162.92 C 494.73 162.89 494.13 151.44 487.26 152.40 M 508.40 152.44 C 501.54 153.62 503.94 164.83 510.74 162.88 C 517.38 161.63 514.89 150.75 508.40 152.44 M 333.51 172.42 C 330.68 173.16 329.89 177.14 331.61 179.30 C 333.35 181.99 338.11 180.70 338.56 177.61 C 339.50 174.61 336.71 171.05 333.51 172.42 M 354.50 172.26 C 349.59 174.37 352.45 182.63 357.71 180.85 C 364.13 179.54 360.49 168.85 354.50 172.26 M 375.53 172.39 C 369.96 174.96 374.69 184.23 380.09 181.14 C 385.63 178.40 381.16 169.31 375.53 172.39 M 397.52 172.34 C 392.38 174.81 396.00 184.08 401.63 181.79 C 408.05 179.71 403.77 168.59 397.52 172.34 M 419.49 172.25 C 413.82 174.68 417.75 184.40 423.59 181.76 C 429.96 179.70 425.74 168.68 419.49 172.25 M 441.39 172.25 C 437.02 173.88 437.83 180.94 442.28 181.83 C 446.03 183.05 449.92 179.16 448.69 175.41 C 448.12 172.12 444.14 171.01 441.39 172.25 M 463.52 172.32 C 458.28 174.33 460.85 184.03 466.70 181.89 C 473.40 180.53 469.90 169.02 463.52 172.32 M 485.47 172.35 C 479.07 174.44 483.51 185.35 489.63 181.88 C 495.58 179.28 491.53 169.58 485.47 172.35 M 377.17 191.44 C 373.84 191.88 371.97 196.21 374.12 198.85 C 376.34 201.45 381.46 200.34 381.83 196.75 C 382.46 194.00 379.95 191.17 377.17 191.44 M 398.48 191.44 C 392.89 193.07 395.66 202.92 401.34 200.40 C 407.32 198.76 404.32 189.27 398.48 191.44 M 420.39 191.38 C 414.79 192.25 416.10 202.01 421.91 200.98 C 428.66 200.86 427.03 189.32 420.39 191.38 M 442.40 191.34 C 439.35 192.03 437.20 195.93 439.20 198.66 C 441.12 202.56 447.90 202.09 448.69 197.58 C 449.99 193.89 446.04 190.11 442.40 191.34 M 333.45 192.36 C 328.92 194.12 332.31 201.76 336.62 198.87 C 340.91 197.12 337.46 190.30 333.45 192.36 M 354.45 192.23 C 352.15 193.15 350.88 196.25 352.59 198.29 C 354.61 201.23 360.03 199.71 359.85 196.00 C 360.28 193.21 356.89 190.95 354.45 192.23 M 464.36 192.41 C 459.51 193.22 461.08 201.21 465.89 200.22 C 471.26 200.05 469.15 190.84 464.36 192.41 M 334.29 210.43 C 329.99 210.63 330.23 218.14 334.90 216.94 C 339.74 217.46 338.60 209.29 334.29 210.43 M 353.52 211.35 C 349.22 214.16 354.95 219.38 358.17 216.15 C 361.61 213.27 356.57 208.63 353.52 211.35 M 333.42 230.41 C 328.91 231.80 332.85 237.81 336.24 235.26 C 339.56 233.57 336.36 229.08 333.42 230.41 M 375.52 380.31 C 372.68 381.57 372.43 385.66 374.11 387.92 C 376.53 390.97 381.66 388.30 381.79 384.82 C 382.59 381.48 378.39 378.61 375.52 380.31 M 352.46 382.37 C 350.55 383.68 349.41 386.78 351.58 388.42 C 353.98 391.62 359.53 387.83 357.85 384.37 C 357.11 382.15 354.42 381.72 352.46 382.37 M 399.31 404.38 C 397.23 404.72 395.55 406.67 396.05 408.83 C 396.20 413.09 403.75 413.07 403.83 408.78 C 404.59 406.14 401.74 403.99 399.31 404.38 M 351.91 410.08 C 353.06 412.75 356.08 411.10 358.20 411.01 C 357.69 409.22 358.67 406.28 356.37 405.59 C 353.84 404.14 350.05 407.54 351.91 410.08 M 372.87 410.99 C 376.33 413.01 382.79 410.89 379.82 406.25 C 376.36 402.04 371.81 406.66 372.87 410.99 M 375.43 426.41 C 371.36 428.07 374.45 434.42 378.07 432.10 C 381.96 430.49 379.35 424.40 375.43 426.41 M 399.42 426.39 C 395.21 427.52 397.58 434.20 401.58 432.63 C 405.80 431.46 403.42 424.83 399.42 426.39 Z" />
<path fill="#fbd514" opacity="1.00" d=" M 543.14 211.95 L 543.88 211.84 C 570.34 211.72 598.86 207.58 623.10 220.90 C 637.17 228.74 644.05 243.87 649.91 258.08 C 650.23 257.66 650.88 256.83 651.20 256.42 C 659.39 258.81 667.53 262.20 672.48 269.55 C 666.06 272.01 658.69 271.47 654.67 265.30 C 654.32 267.48 654.32 269.69 654.12 271.89 C 653.90 273.97 653.96 276.07 653.62 278.14 C 651.99 274.53 648.45 274.00 645.66 276.70 C 644.66 277.42 643.69 278.17 642.73 278.93 C 641.99 267.00 640.77 254.67 635.12 243.92 C 628.57 230.79 615.56 220.98 600.94 218.99 C 575.07 215.34 548.96 218.75 523.00 218.77 C 505.65 219.66 488.26 219.67 470.95 221.15 C 436.18 223.34 401.26 224.60 366.77 229.74 C 371.92 223.83 379.99 222.24 387.42 221.44 C 422.04 217.37 456.90 215.96 491.68 214.00 C 492.15 213.97 493.08 213.91 493.55 213.89 C 510.07 213.10 526.69 213.76 543.14 211.95 Z" />
<path fill="#fbd514" opacity="1.00" d=" M 648.13 220.95 C 664.45 226.59 683.40 236.56 687.08 255.04 C 678.51 239.32 662.95 229.96 648.13 220.95 Z" />
<path fill="#fbd514" opacity="1.00" d=" M 630.08 242.95 C 637.34 253.23 638.35 266.29 639.44 278.45 C 640.10 291.60 639.97 304.79 639.59 317.95 C 638.96 333.79 634.35 350.34 622.71 361.70 C 615.26 369.43 604.60 372.85 594.18 374.11 C 578.61 376.17 562.87 377.02 547.21 377.83 C 542.74 377.35 538.29 376.64 533.78 376.59 C 556.51 375.60 579.52 375.13 601.75 369.87 C 618.67 365.98 630.72 350.66 634.46 334.27 C 640.02 310.99 638.81 286.75 636.13 263.16 C 635.21 256.14 632.44 249.57 630.08 242.95 Z" />
<path fill="#fbd514" opacity="1.00" d=" M 611.29 315.68 C 611.48 314.03 611.69 312.37 611.88 310.72 C 612.06 320.41 611.94 330.44 608.64 339.66 C 605.16 349.14 596.08 355.16 586.63 357.62 C 565.68 363.23 543.72 363.45 522.17 363.96 C 511.38 363.31 500.57 363.96 489.78 363.54 C 499.60 362.90 509.48 363.99 519.26 362.53 C 536.39 361.50 553.55 360.58 570.59 358.58 C 582.19 356.98 594.85 354.13 602.68 344.67 C 609.56 336.66 610.37 325.73 611.29 315.68 Z" />
</g>
<g id="#030203ff">
<path fill="#030203" opacity="1.00" d=" M 333.38 117.36 C 337.33 115.05 340.11 122.05 335.80 122.85 C 332.29 124.50 329.73 118.48 333.38 117.36 Z" />
<path fill="#030203" opacity="1.00" d=" M 353.33 119.34 C 355.45 115.14 360.93 117.54 360.19 121.94 C 357.69 122.86 352.65 123.49 353.33 119.34 Z" />
<path fill="#030203" opacity="1.00" d=" M 375.45 117.28 C 378.70 114.99 384.00 118.56 381.09 122.10 C 377.97 126.24 371.28 121.04 375.45 117.28 Z" />
<path fill="#030203" opacity="1.00" d=" M 396.38 119.43 C 397.18 116.54 400.81 117.35 403.06 116.86 C 403.14 118.71 404.24 121.09 402.53 122.53 C 400.43 125.05 395.18 122.71 396.38 119.43 Z" />
<path fill="#030203" opacity="1.00" d=" M 417.78 122.80 C 417.15 118.27 420.85 117.08 424.05 119.74 C 423.61 120.78 423.17 121.83 422.74 122.87 C 421.08 122.85 419.43 122.82 417.78 122.80 Z" />
<path fill="#030203" opacity="1.00" d=" M 334.17 133.44 C 340.38 132.87 341.16 141.84 335.65 143.58 C 329.60 144.51 328.29 134.52 334.17 133.44 Z" />
<path fill="#030203" opacity="1.00" d=" M 355.39 133.44 C 358.87 132.53 362.37 136.08 361.43 139.54 C 360.85 143.11 356.16 145.21 353.37 142.65 C 349.80 140.27 351.10 134.06 355.39 133.44 Z" />
<path fill="#030203" opacity="1.00" d=" M 377.38 133.39 C 384.04 132.12 385.00 142.54 378.81 143.71 C 372.40 144.69 370.80 134.03 377.38 133.39 Z" />
<path fill="#030203" opacity="1.00" d=" M 398.48 133.42 C 405.12 131.07 407.93 141.70 401.53 143.67 C 395.06 146.22 392.23 135.11 398.48 133.42 Z" />
<path fill="#030203" opacity="1.00" d=" M 421.29 133.41 C 428.29 132.57 428.63 143.79 421.95 144.31 C 415.21 144.64 414.49 133.97 421.29 133.41 Z" />
<path fill="#030203" opacity="1.00" d=" M 465.14 133.47 C 472.57 132.66 472.13 144.69 465.05 144.17 C 458.51 143.99 458.72 133.62 465.14 133.47 Z" />
<path fill="#030203" opacity="1.00" d=" M 441.41 134.18 C 444.34 132.54 448.91 134.51 448.88 138.10 C 449.35 142.00 444.98 145.53 441.29 143.94 C 437.16 142.38 437.23 135.70 441.41 134.18 Z" />
<path fill="#030203" opacity="1.00" d=" M 485.42 134.26 C 488.30 133.31 492.00 134.82 492.31 138.13 C 493.09 142.47 487.36 146.22 483.89 143.23 C 480.50 141.00 481.53 135.22 485.42 134.26 Z" />
<path fill="#030203" opacity="1.00" d=" M 506.51 135.34 C 509.16 133.74 513.46 134.94 514.08 138.24 C 515.22 142.17 510.04 146.04 506.70 143.41 C 503.63 141.77 503.64 137.16 506.51 135.34 Z" />
<path fill="#030203" opacity="1.00" d=" M 529.79 135.73 C 530.13 136.00 530.81 136.54 531.15 136.81 C 532.93 138.49 534.54 140.83 533.47 143.37 C 531.31 143.74 529.12 143.71 526.95 143.75 C 527.38 140.91 528.30 138.18 529.79 135.73 Z" />
<path fill="#030203" opacity="1.00" d=" M 571.43 145.62 C 579.53 145.11 587.64 144.61 595.70 143.62 C 601.95 144.00 608.22 144.45 614.43 145.38 C 623.88 148.20 634.60 148.55 642.21 155.64 C 633.28 155.44 624.16 153.85 615.39 156.32 C 600.56 160.26 587.63 169.48 576.74 180.03 C 586.75 180.66 596.82 179.93 606.79 181.32 C 631.63 183.73 655.80 192.02 677.18 204.86 C 691.33 213.53 704.15 225.23 711.87 240.11 C 715.62 247.11 716.92 255.02 719.22 262.54 C 725.26 261.58 728.22 255.74 733.31 253.22 C 742.95 250.32 752.64 256.80 755.49 266.05 C 755.38 276.92 754.84 287.82 753.39 298.60 C 752.95 303.75 748.27 306.64 744.41 309.24 C 740.13 312.52 734.62 313.70 729.38 312.37 C 720.01 309.96 710.92 314.40 701.76 315.78 C 700.49 337.79 697.51 361.87 681.52 378.52 C 670.62 389.50 655.78 395.79 640.79 398.81 C 634.45 399.77 631.10 405.75 626.29 409.27 C 613.42 418.88 596.97 423.63 580.96 422.09 C 572.74 421.24 564.51 420.13 556.50 418.10 C 548.88 414.97 541.60 410.95 535.10 405.88 C 530.03 401.98 525.82 396.87 519.96 394.08 C 510.94 389.73 500.92 387.76 490.95 387.53 C 486.35 396.90 482.15 407.06 473.96 413.92 C 465.75 420.39 454.67 420.66 444.72 419.83 C 445.18 422.02 445.81 424.23 445.68 426.50 C 444.27 429.39 439.43 429.94 437.56 427.30 C 435.93 424.23 438.66 421.44 440.26 419.06 C 436.29 417.61 432.06 416.09 429.31 412.69 C 426.19 409.14 425.29 404.22 422.34 400.58 C 416.49 397.83 409.68 397.44 404.15 393.86 C 398.13 390.80 394.18 385.06 391.78 378.91 C 383.28 377.31 374.43 377.51 366.16 374.78 C 353.14 370.89 344.16 359.13 340.49 346.47 C 339.90 342.50 336.08 341.17 333.03 339.51 C 333.50 335.98 337.08 333.39 336.44 329.62 C 335.39 321.58 336.19 312.88 331.28 305.94 C 336.70 297.11 334.16 286.50 335.83 276.75 C 336.74 272.59 334.10 269.10 332.90 265.35 C 335.34 262.97 338.64 261.17 339.72 257.72 C 345.21 240.40 358.21 225.61 374.80 218.11 C 374.73 215.68 373.40 211.03 377.04 210.84 C 380.64 209.97 380.70 214.53 381.92 216.77 C 387.38 216.63 393.19 216.18 397.50 212.42 C 401.70 208.26 406.19 215.38 410.92 213.99 C 415.02 213.03 418.68 209.45 423.13 210.83 C 428.72 212.17 434.51 212.24 440.14 211.10 C 449.13 209.56 458.44 211.24 467.34 209.01 C 472.33 206.80 475.35 201.86 479.60 198.61 C 487.23 191.79 497.30 188.88 505.57 183.02 C 505.38 180.00 504.31 176.67 505.69 173.82 C 508.24 170.71 512.63 172.75 515.93 173.22 C 519.72 169.85 523.48 166.46 527.25 163.07 C 526.21 160.29 524.10 156.52 527.24 154.27 C 530.87 150.65 535.27 154.60 538.34 156.90 C 548.90 151.81 559.87 147.76 571.43 145.62 M 562.78 152.64 C 559.86 152.89 557.30 154.43 554.77 155.76 C 567.33 156.47 579.83 153.39 592.37 154.57 C 577.42 164.24 565.38 177.53 553.88 190.95 C 548.80 197.02 544.66 204.10 543.14 211.95 C 526.69 213.76 510.07 213.10 493.55 213.89 C 495.38 207.83 498.67 202.44 502.49 197.45 C 518.12 196.25 533.97 197.83 549.48 195.70 C 534.63 193.25 519.31 195.90 504.29 194.76 C 505.31 194.02 505.94 192.56 507.32 192.42 C 522.60 190.76 538.16 192.98 553.37 190.71 C 538.52 187.67 522.99 191.55 508.04 189.09 C 523.76 183.68 541.34 189.44 557.36 185.39 C 543.06 183.76 528.63 186.17 514.32 184.75 C 518.52 180.96 524.80 183.04 529.98 182.37 C 540.06 181.59 550.60 183.70 560.37 180.60 C 546.28 179.69 532.10 181.45 518.06 180.07 C 520.47 178.72 523.15 177.91 525.94 177.92 C 536.96 177.69 548.00 177.82 559.03 177.62 C 561.06 177.67 562.88 176.69 564.62 175.75 C 550.78 175.53 536.60 177.95 522.98 175.23 C 538.20 171.82 554.36 175.59 569.40 171.54 C 556.30 170.99 543.18 172.15 530.08 171.66 C 524.85 171.12 521.53 175.98 517.78 178.77 C 507.00 188.59 494.83 199.04 491.68 214.00 C 456.90 215.96 422.04 217.37 387.42 221.44 C 379.99 222.24 371.92 223.83 366.77 229.74 C 401.26 224.60 436.18 223.34 470.95 221.15 C 488.26 219.67 505.65 219.66 523.00 218.77 C 548.96 218.75 575.07 215.34 600.94 218.99 C 615.56 220.98 628.57 230.79 635.12 243.92 C 640.77 254.67 641.99 267.00 642.73 278.93 C 642.44 302.02 645.85 326.39 636.19 348.18 C 630.18 362.20 616.82 372.31 601.82 374.79 C 579.77 378.63 557.30 379.33 535.01 381.00 C 508.45 383.10 481.78 381.46 455.19 382.41 C 449.23 382.38 447.29 390.11 441.45 390.45 C 430.74 391.21 420.13 388.70 409.76 386.35 C 406.53 385.73 403.75 383.91 401.47 381.61 C 415.71 381.86 429.87 383.85 444.09 384.42 C 448.38 384.88 450.92 380.39 454.96 379.96 C 485.68 379.67 516.67 381.33 547.21 377.83 C 562.87 377.02 578.61 376.17 594.18 374.11 C 604.60 372.85 615.26 369.43 622.71 361.70 C 634.35 350.34 638.96 333.79 639.59 317.95 C 639.97 304.79 640.10 291.60 639.44 278.45 C 638.35 266.29 637.34 253.23 630.08 242.95 C 625.36 233.56 616.06 226.79 606.03 224.04 C 591.01 220.12 575.34 221.69 559.99 221.39 C 501.56 222.32 443.09 224.99 384.93 230.88 C 374.15 232.45 362.07 233.85 354.02 242.01 C 345.26 251.86 342.82 265.43 341.15 278.09 C 339.36 296.15 339.06 314.54 342.59 332.42 C 344.59 345.19 349.62 358.69 360.84 366.13 C 370.30 372.47 382.09 372.72 393.03 373.93 C 412.05 376.43 431.27 376.64 450.42 377.22 C 443.44 380.84 435.47 378.64 428.00 378.85 C 418.23 378.98 408.43 378.12 398.68 379.09 C 401.84 390.73 414.80 394.36 425.40 395.44 C 433.40 395.86 441.39 398.88 449.41 397.30 C 457.77 394.49 464.67 388.25 473.43 386.40 C 489.27 383.09 506.26 383.46 521.40 389.56 C 528.24 392.09 534.99 394.91 542.01 396.94 C 552.74 400.00 564.00 399.42 575.03 399.92 C 575.87 401.75 578.29 401.61 579.98 401.95 C 596.38 403.17 612.87 401.31 628.90 397.84 C 642.14 395.63 655.53 392.27 666.90 384.85 C 689.88 370.42 698.05 341.28 696.68 315.57 C 694.74 319.06 695.34 323.15 694.90 326.97 C 693.88 337.41 691.80 347.85 687.49 357.46 C 679.97 373.92 665.08 386.82 647.57 391.54 C 623.88 397.56 599.18 400.80 574.75 399.31 C 574.54 398.81 574.13 397.81 573.93 397.32 C 591.00 396.34 608.21 396.36 625.07 393.16 C 639.76 390.62 655.52 388.24 667.33 378.32 C 686.02 364.52 692.18 339.85 691.59 317.70 C 688.29 323.00 687.92 329.46 684.92 334.90 C 680.46 343.27 676.35 351.93 670.35 359.35 C 661.63 370.84 648.83 378.80 635.22 383.23 C 613.76 389.68 591.19 389.82 569.05 391.89 C 554.19 392.92 538.33 394.15 524.87 386.43 C 546.61 385.08 568.36 383.76 590.09 382.18 C 607.89 380.47 626.06 378.23 642.37 370.39 C 661.05 361.39 674.43 341.46 675.00 320.70 C 670.62 325.46 668.07 331.88 662.36 335.36 C 657.78 339.34 649.97 339.32 647.63 345.62 C 642.72 356.24 634.97 366.43 623.93 371.08 C 642.89 356.38 655.26 333.17 655.82 309.06 C 656.03 296.66 656.34 284.14 654.12 271.89 C 654.32 269.69 654.32 267.48 654.67 265.30 C 658.69 271.47 666.06 272.01 672.48 269.55 C 673.56 270.26 674.77 270.72 675.96 271.25 C 675.05 260.62 671.42 250.25 665.81 241.19 C 661.06 233.41 653.53 228.02 646.48 222.49 C 639.91 217.09 631.02 215.89 622.79 215.79 C 637.83 224.31 647.77 239.64 651.20 256.42 C 650.88 256.83 650.23 257.66 649.91 258.08 C 644.05 243.87 637.17 228.74 623.10 220.90 C 598.86 207.58 570.34 211.72 543.88 211.84 C 549.69 201.92 555.07 191.58 563.58 183.56 C 577.05 167.79 593.50 154.07 613.28 147.19 C 596.43 148.10 579.16 148.27 562.78 152.64 M 548.81 158.70 C 561.64 158.44 574.50 157.75 587.25 156.32 C 574.43 156.34 561.50 156.84 548.81 158.70 M 562.96 160.31 C 553.10 161.00 542.17 159.21 533.88 165.85 C 549.00 165.10 564.61 166.07 579.34 162.46 C 566.14 162.66 552.93 164.56 539.70 163.54 C 554.05 160.20 569.23 162.68 583.56 159.20 C 576.66 158.68 569.83 160.09 562.96 160.31 M 543.00 167.46 C 538.22 167.72 532.85 166.26 528.73 169.42 C 540.67 169.30 552.60 168.76 564.54 168.49 C 568.19 168.43 571.91 168.07 575.29 166.56 C 564.51 166.19 553.78 167.76 543.00 167.46 M 500.33 201.05 C 515.07 202.70 530.05 201.27 544.85 200.79 L 544.86 199.79 C 530.03 200.07 515.05 199.34 500.33 201.05 M 555.70 207.56 C 570.02 208.52 584.48 205.66 598.72 208.20 C 606.72 209.71 614.81 210.70 622.95 211.15 C 646.01 213.11 670.00 221.59 685.12 239.89 C 691.88 247.66 694.40 257.91 696.17 267.79 C 696.81 267.71 698.09 267.55 698.74 267.47 C 697.57 256.41 693.18 245.58 685.81 237.19 C 672.94 222.17 654.08 213.27 634.73 210.36 C 611.19 205.24 586.95 205.59 563.01 206.32 C 560.52 206.43 558.08 206.91 555.70 207.56 M 648.13 220.95 C 662.95 229.96 678.51 239.32 687.08 255.04 C 683.40 236.56 664.45 226.59 648.13 220.95 M 730.58 264.26 C 730.40 279.46 730.84 294.66 730.60 309.86 C 738.42 310.03 743.85 303.20 747.00 296.82 C 745.17 296.09 743.32 295.46 741.53 294.69 C 743.28 294.61 745.04 294.65 746.81 294.54 C 746.78 294.04 746.72 293.02 746.70 292.52 C 745.06 291.43 743.43 290.35 741.81 289.26 C 743.53 289.34 745.25 289.42 746.98 289.50 C 746.80 288.58 746.63 287.67 746.47 286.75 C 744.83 285.65 743.16 284.60 741.52 283.50 C 743.48 283.52 745.44 283.62 747.41 283.65 C 745.98 282.35 744.52 281.10 743.08 279.83 C 744.41 279.74 745.75 279.66 747.09 279.60 C 746.37 277.29 745.05 275.27 743.20 273.73 C 743.85 273.74 745.14 273.76 745.79 273.77 C 745.72 270.65 745.51 267.53 745.13 264.43 C 740.28 264.39 735.43 264.33 730.58 264.26 M 662.40 276.79 C 663.57 290.48 663.71 304.34 662.54 318.03 C 682.47 316.33 701.64 310.43 721.20 306.67 C 717.94 295.00 721.54 282.60 719.42 270.72 C 718.96 282.57 719.38 294.45 719.30 306.31 C 718.63 306.32 717.30 306.34 716.63 306.35 C 716.54 294.55 716.46 282.75 716.11 270.95 C 719.60 270.03 723.11 269.20 726.64 268.45 C 723.99 280.34 726.34 292.68 725.34 304.75 C 725.68 304.76 726.35 304.79 726.69 304.80 C 726.07 292.27 727.22 279.81 727.71 267.31 C 706.22 272.21 684.24 274.21 662.40 276.79 M 467.60 406.60 C 456.84 416.87 436.70 414.75 428.65 402.08 C 432.05 414.37 447.19 416.92 458.05 415.04 C 472.21 412.62 479.14 398.47 484.80 386.83 C 475.09 389.13 474.51 400.90 467.60 406.60 M 532.91 397.99 C 545.94 409.78 563.26 416.30 580.57 418.36 C 591.64 419.32 603.41 418.46 613.33 413.05 C 606.20 414.16 599.30 416.71 592.03 416.85 C 578.04 417.62 564.38 413.11 551.93 407.12 C 545.54 404.17 539.78 399.84 532.91 397.99 Z" />
<path fill="#030203" opacity="1.00" d=" M 333.44 152.41 C 337.10 151.26 340.59 155.22 339.11 158.74 C 338.32 162.54 332.73 163.38 330.68 160.21 C 328.58 157.50 330.33 153.36 333.44 152.41 Z" />
<path fill="#030203" opacity="1.00" d=" M 355.36 152.38 C 358.57 151.54 362.44 154.27 361.71 157.78 C 361.59 161.79 356.51 164.28 353.39 161.62 C 349.65 159.35 351.22 153.11 355.36 152.38 Z" />
<path fill="#030203" opacity="1.00" d=" M 377.37 152.40 C 384.63 150.76 385.10 163.28 378.02 162.94 C 371.75 162.99 370.93 152.97 377.37 152.40 Z" />
<path fill="#030203" opacity="1.00" d=" M 399.37 152.39 C 406.29 150.65 407.32 162.04 400.76 162.72 C 394.08 164.17 392.68 152.90 399.37 152.39 Z" />
<path fill="#030203" opacity="1.00" d=" M 419.50 152.46 C 425.88 149.57 430.29 159.20 424.22 162.31 C 417.97 165.75 412.87 155.18 419.50 152.46 Z" />
<path fill="#030203" opacity="1.00" d=" M 442.41 152.38 C 446.14 151.16 450.03 154.97 448.82 158.73 C 448.04 162.80 442.52 164.28 439.77 161.20 C 436.71 158.53 438.57 153.09 442.41 152.38 Z" />
<path fill="#030203" opacity="1.00" d=" M 464.39 152.46 C 467.41 151.64 470.67 154.06 470.83 157.18 C 471.60 161.59 465.43 165.08 462.21 161.76 C 458.87 159.14 460.20 153.29 464.39 152.46 Z" />
<path fill="#030203" opacity="1.00" d=" M 487.26 152.40 C 494.13 151.44 494.73 162.89 487.92 162.92 C 481.15 163.82 480.39 152.45 487.26 152.40 Z" />
<path fill="#030203" opacity="1.00" d=" M 508.40 152.44 C 514.89 150.75 517.38 161.63 510.74 162.88 C 503.94 164.83 501.54 153.62 508.40 152.44 Z" />
<path fill="#030203" opacity="1.00" d=" M 333.51 172.42 C 336.71 171.05 339.50 174.61 338.56 177.61 C 338.11 180.70 333.35 181.99 331.61 179.30 C 329.89 177.14 330.68 173.16 333.51 172.42 Z" />
<path fill="#030203" opacity="1.00" d=" M 354.50 172.26 C 360.49 168.85 364.13 179.54 357.71 180.85 C 352.45 182.63 349.59 174.37 354.50 172.26 Z" />
<path fill="#030203" opacity="1.00" d=" M 375.53 172.39 C 381.16 169.31 385.63 178.40 380.09 181.14 C 374.69 184.23 369.96 174.96 375.53 172.39 Z" />
<path fill="#030203" opacity="1.00" d=" M 397.52 172.34 C 403.77 168.59 408.05 179.71 401.63 181.79 C 396.00 184.08 392.38 174.81 397.52 172.34 Z" />
<path fill="#030203" opacity="1.00" d=" M 419.49 172.25 C 425.74 168.68 429.96 179.70 423.59 181.76 C 417.75 184.40 413.82 174.68 419.49 172.25 Z" />
<path fill="#030203" opacity="1.00" d=" M 441.39 172.25 C 444.14 171.01 448.12 172.12 448.69 175.41 C 449.92 179.16 446.03 183.05 442.28 181.83 C 437.83 180.94 437.02 173.88 441.39 172.25 Z" />
<path fill="#030203" opacity="1.00" d=" M 463.52 172.32 C 469.90 169.02 473.40 180.53 466.70 181.89 C 460.85 184.03 458.28 174.33 463.52 172.32 Z" />
<path fill="#030203" opacity="1.00" d=" M 485.47 172.35 C 491.53 169.58 495.58 179.28 489.63 181.88 C 483.51 185.35 479.07 174.44 485.47 172.35 Z" />
<path fill="#030203" opacity="1.00" d=" M 377.17 191.44 C 379.95 191.17 382.46 194.00 381.83 196.75 C 381.46 200.34 376.34 201.45 374.12 198.85 C 371.97 196.21 373.84 191.88 377.17 191.44 Z" />
<path fill="#030203" opacity="1.00" d=" M 398.48 191.44 C 404.32 189.27 407.32 198.76 401.34 200.40 C 395.66 202.92 392.89 193.07 398.48 191.44 Z" />
<path fill="#030203" opacity="1.00" d=" M 420.39 191.38 C 427.03 189.32 428.66 200.86 421.91 200.98 C 416.10 202.01 414.79 192.25 420.39 191.38 Z" />
<path fill="#030203" opacity="1.00" d=" M 442.40 191.34 C 446.04 190.11 449.99 193.89 448.69 197.58 C 447.90 202.09 441.12 202.56 439.20 198.66 C 437.20 195.93 439.35 192.03 442.40 191.34 Z" />
<path fill="#030203" opacity="1.00" d=" M 333.45 192.36 C 337.46 190.30 340.91 197.12 336.62 198.87 C 332.31 201.76 328.92 194.12 333.45 192.36 Z" />
<path fill="#030203" opacity="1.00" d=" M 354.45 192.23 C 356.89 190.95 360.28 193.21 359.85 196.00 C 360.03 199.71 354.61 201.23 352.59 198.29 C 350.88 196.25 352.15 193.15 354.45 192.23 Z" />
<path fill="#030203" opacity="1.00" d=" M 464.36 192.41 C 469.15 190.84 471.26 200.05 465.89 200.22 C 461.08 201.21 459.51 193.22 464.36 192.41 Z" />
<path fill="#030203" opacity="1.00" d=" M 334.29 210.43 C 338.60 209.29 339.74 217.46 334.90 216.94 C 330.23 218.14 329.99 210.63 334.29 210.43 Z" />
<path fill="#030203" opacity="1.00" d=" M 353.52 211.35 C 356.57 208.63 361.61 213.27 358.17 216.15 C 354.95 219.38 349.22 214.16 353.52 211.35 Z" />
<path fill="#030203" opacity="1.00" d=" M 333.42 230.41 C 336.36 229.08 339.56 233.57 336.24 235.26 C 332.85 237.81 328.91 231.80 333.42 230.41 Z" />
<path fill="#030203" opacity="1.00" d=" M 532.47 230.60 C 546.65 230.33 560.83 230.35 575.01 230.36 C 588.29 230.38 603.00 231.39 613.58 240.41 C 622.12 247.28 625.87 258.26 627.24 268.80 C 629.92 288.61 629.54 308.83 626.54 328.57 C 624.30 342.66 616.32 357.12 602.31 362.29 C 587.10 367.42 570.89 368.25 555.04 369.98 C 498.34 373.74 441.19 373.99 384.70 367.33 C 376.36 365.85 367.57 365.13 360.04 360.93 C 351.89 356.31 347.58 347.22 345.53 338.43 C 340.84 317.42 340.54 295.58 343.23 274.27 C 344.80 265.72 346.24 256.64 351.46 249.43 C 358.26 241.09 369.74 239.91 379.70 238.61 C 430.48 233.81 481.51 232.38 532.47 230.60 M 470.04 238.77 C 438.64 240.68 407.09 241.32 375.92 245.95 C 366.31 247.11 355.46 250.68 351.30 260.30 C 346.34 273.14 345.94 287.28 346.44 300.89 C 346.87 313.87 347.42 327.17 351.40 339.63 C 353.53 346.98 359.31 352.99 366.56 355.43 C 381.77 360.75 398.00 362.00 413.98 362.88 C 443.93 365.12 473.99 365.07 504.00 364.65 C 510.05 364.47 516.19 365.29 522.17 363.96 C 543.72 363.45 565.68 363.23 586.63 357.62 C 596.08 355.16 605.16 349.14 608.64 339.66 C 611.94 330.44 612.06 320.41 611.88 310.72 C 612.50 296.27 610.85 281.78 609.53 267.40 C 608.13 259.99 606.91 250.05 599.19 246.63 C 588.17 239.97 574.70 239.82 562.25 238.56 C 531.53 237.12 500.77 237.76 470.04 238.77 Z" />
<path fill="#030203" opacity="1.00" d=" M 735.47 267.59 C 743.49 268.19 739.96 277.68 740.65 282.99 C 739.89 290.63 742.17 299.86 737.17 306.29 C 735.38 293.48 736.89 280.45 735.47 267.59 Z" />
<path fill="#030203" opacity="1.00" d=" M 712.54 277.97 C 712.64 275.27 711.88 271.72 714.98 270.42 C 715.69 282.67 715.21 294.95 715.33 307.22 C 714.68 307.23 713.38 307.25 712.74 307.27 C 712.59 297.50 712.74 287.73 712.54 277.97 Z" />
<path fill="#030203" opacity="1.00" d=" M 708.67 271.77 C 709.33 271.76 710.67 271.75 711.34 271.74 C 711.51 281.50 711.36 291.27 711.52 301.03 C 711.38 303.65 712.13 306.98 709.44 308.59 C 709.00 296.32 709.14 284.04 708.67 271.77 Z" />
<path fill="#030203" opacity="1.00" d=" M 700.42 272.60 C 701.45 273.59 702.72 274.60 702.63 276.19 C 703.35 284.78 703.11 293.41 703.43 302.02 C 703.36 304.98 704.09 308.47 701.56 310.64 C 700.18 298.02 700.84 285.28 700.42 272.60 Z" />
<path fill="#030203" opacity="1.00" d=" M 704.40 272.73 C 705.04 272.74 706.32 272.77 706.96 272.78 C 707.41 285.05 707.82 297.40 706.99 309.66 C 704.83 308.13 705.05 305.38 704.92 303.06 C 704.71 292.95 704.98 282.83 704.40 272.73 Z" />
<path fill="#030203" opacity="1.00" d=" M 695.89 273.42 C 698.77 274.27 698.24 277.63 698.44 279.98 C 698.35 289.31 698.83 298.65 698.80 307.98 C 699.04 309.62 697.58 310.52 696.52 311.48 C 696.49 298.79 695.80 286.10 695.89 273.42 Z" />
<path fill="#030203" opacity="1.00" d=" M 645.66 276.70 C 648.45 274.00 651.99 274.53 653.62 278.14 C 651.75 282.79 649.82 287.46 649.49 292.52 C 650.45 292.15 651.42 291.77 652.39 291.40 C 653.63 298.81 654.22 306.67 650.82 313.63 C 648.88 312.06 646.42 310.48 646.50 307.67 C 645.83 297.37 645.65 287.02 645.66 276.70 Z" />
<path fill="#030203" opacity="1.00" d=" M 685.44 281.96 C 685.49 279.32 684.55 275.70 687.72 274.48 C 689.17 286.24 688.49 298.14 688.82 309.97 C 689.29 311.95 687.20 312.54 686.00 313.54 C 685.18 303.04 685.92 292.48 685.44 281.96 Z" />
<path fill="#030203" opacity="1.00" d=" M 690.39 274.72 C 691.07 274.74 692.45 274.78 693.14 274.80 C 693.89 286.84 693.60 298.92 693.96 310.97 C 692.94 311.38 691.93 311.80 690.93 312.23 C 690.65 299.72 691.18 287.20 690.39 274.72 Z" />
<path fill="#030203" opacity="1.00" d=" M 674.83 279.02 C 674.39 276.92 676.64 276.47 677.98 275.54 C 678.71 288.36 678.25 301.23 678.39 314.07 C 677.31 314.42 676.23 314.73 675.14 314.99 C 674.60 303.01 674.83 291.00 674.83 279.02 Z" />
<path fill="#030203" opacity="1.00" d=" M 680.33 281.15 C 680.47 279.06 680.02 275.57 683.02 275.41 C 683.64 288.00 683.53 300.63 683.51 313.24 C 682.81 313.42 681.40 313.78 680.70 313.96 C 680.42 303.03 680.71 292.08 680.33 281.15 Z" />
<path fill="#030203" opacity="1.00" d=" M 664.78 281.94 C 664.65 279.97 665.85 274.45 667.64 278.42 C 668.91 290.81 668.21 303.39 668.17 315.85 C 667.42 315.84 665.92 315.82 665.17 315.82 C 665.50 304.52 664.85 293.23 664.78 281.94 Z" />
<path fill="#030203" opacity="1.00" d=" M 669.85 276.74 C 670.65 276.76 672.25 276.80 673.05 276.81 C 673.15 289.47 673.81 302.19 672.99 314.81 C 672.31 314.99 670.93 315.33 670.25 315.51 C 670.51 302.58 669.75 289.67 669.85 276.74 Z" />
<path fill="#030203" opacity="1.00" d=" M 584.67 305.52 C 589.43 303.06 594.81 306.64 595.76 311.56 C 600.83 311.97 606.61 310.35 610.98 313.70 C 605.57 314.38 600.11 314.36 594.69 314.85 C 600.21 315.47 605.78 314.86 611.29 315.68 C 610.37 325.73 609.56 336.66 602.68 344.67 C 594.85 354.13 582.19 356.98 570.59 358.58 C 553.55 360.58 536.39 361.50 519.26 362.53 C 481.72 361.88 444.04 363.81 406.64 359.52 C 393.16 357.84 378.37 357.41 367.06 348.95 C 357.72 341.54 354.17 329.32 352.86 317.94 C 358.59 317.75 364.33 317.68 370.06 317.97 C 414.03 317.34 458.04 318.30 501.99 316.77 C 528.08 316.23 554.21 317.52 580.25 315.45 C 554.49 315.09 528.71 315.49 502.95 315.42 C 458.67 317.12 414.34 315.71 370.06 316.91 C 363.82 316.93 356.99 318.77 351.30 315.37 C 357.91 314.28 364.62 314.65 371.28 314.37 C 440.47 313.45 509.66 312.92 578.85 312.00 C 578.84 311.31 578.83 309.95 578.82 309.26 C 509.52 309.91 440.22 310.67 370.91 310.93 C 364.46 310.85 357.99 311.01 351.55 310.47 C 357.73 309.49 364.00 309.73 370.24 309.73 C 434.16 309.08 498.07 307.98 562.00 307.65 C 569.60 307.67 577.52 308.81 584.67 305.52 Z" />
<path fill="#030203" opacity="1.00" d=" M 375.52 380.31 C 378.39 378.61 382.59 381.48 381.79 384.82 C 381.66 388.30 376.53 390.97 374.11 387.92 C 372.43 385.66 372.68 381.57 375.52 380.31 Z" />
<path fill="#030203" opacity="1.00" d=" M 352.46 382.37 C 354.42 381.72 357.11 382.15 357.85 384.37 C 359.53 387.83 353.98 391.62 351.58 388.42 C 349.41 386.78 350.55 383.68 352.46 382.37 Z" />
<path fill="#030203" opacity="1.00" d=" M 399.31 404.38 C 401.74 403.99 404.59 406.14 403.83 408.78 C 403.75 413.07 396.20 413.09 396.05 408.83 C 395.55 406.67 397.23 404.72 399.31 404.38 Z" />
<path fill="#030203" opacity="1.00" d=" M 351.91 410.08 C 350.05 407.54 353.84 404.14 356.37 405.59 C 358.67 406.28 357.69 409.22 358.20 411.01 C 356.08 411.10 353.06 412.75 351.91 410.08 Z" />
<path fill="#030203" opacity="1.00" d=" M 372.87 410.99 C 371.81 406.66 376.36 402.04 379.82 406.25 C 382.79 410.89 376.33 413.01 372.87 410.99 Z" />
<path fill="#030203" opacity="1.00" d=" M 375.43 426.41 C 379.35 424.40 381.96 430.49 378.07 432.10 C 374.45 434.42 371.36 428.07 375.43 426.41 Z" />
<path fill="#030203" opacity="1.00" d=" M 399.42 426.39 C 403.42 424.83 405.80 431.46 401.58 432.63 C 397.58 434.20 395.21 427.52 399.42 426.39 Z" />
<path fill="#030203" opacity="1.00" d=" M 352.88 462.03 C 361.63 461.97 370.37 461.97 379.11 462.03 C 379.12 463.99 379.12 465.95 379.12 467.92 C 376.17 467.99 373.22 468.06 370.27 468.15 C 370.43 474.43 370.45 480.72 370.26 487.00 C 367.42 487.00 364.58 487.00 361.74 487.00 C 361.55 480.72 361.57 474.43 361.72 468.15 C 358.77 468.06 355.82 467.99 352.88 467.92 C 352.87 465.95 352.88 463.99 352.88 462.03 Z" />
<path fill="#030203" opacity="1.00" d=" M 389.34 462.29 C 393.58 461.57 398.14 461.97 402.01 463.96 C 410.51 468.34 409.38 483.48 399.90 486.03 C 392.65 488.42 381.84 487.07 379.31 478.64 C 376.70 471.47 381.60 463.00 389.34 462.29 M 390.49 468.43 C 386.58 470.50 386.40 476.64 389.20 479.71 C 392.85 482.88 399.84 480.33 399.08 474.98 C 400.15 469.99 394.90 466.45 390.49 468.43 Z" />
<path fill="#030203" opacity="1.00" d=" M 411.01 462.03 C 416.83 462.13 422.74 461.43 428.49 462.54 C 439.19 464.82 439.76 483.41 429.12 486.18 C 423.21 487.67 417.04 486.85 411.01 486.97 C 410.98 478.66 410.98 470.34 411.01 462.03 M 419.82 467.74 C 419.54 472.22 419.55 476.72 419.79 481.21 C 423.85 481.63 428.85 480.01 428.05 474.97 C 429.07 469.76 424.29 467.40 419.82 467.74 Z" />
<path fill="#030203" opacity="1.00" d=" M 448.34 462.30 C 452.34 461.60 456.60 461.94 460.33 463.62 C 469.21 467.37 468.79 482.57 459.64 485.76 C 452.48 488.40 441.77 487.49 438.57 479.43 C 435.45 472.16 440.25 463.00 448.34 462.30 M 449.48 468.43 C 443.97 471.22 445.90 482.37 452.91 480.99 C 461.92 480.48 458.35 463.96 449.48 468.43 Z" />
<path fill="#030203" opacity="1.00" d=" M 468.81 462.01 C 472.53 461.98 476.25 461.99 479.98 462.04 C 481.47 467.05 482.76 472.12 484.56 477.03 C 486.06 472.03 487.44 467.00 489.01 462.03 C 492.70 461.98 496.39 461.98 500.09 462.01 C 500.19 470.34 500.21 478.67 500.08 487.01 C 497.75 487.00 495.43 486.98 493.11 486.97 C 493.15 481.52 493.29 476.06 492.84 470.62 C 490.66 475.88 489.38 481.43 487.83 486.89 C 485.60 486.93 483.37 486.96 481.15 486.99 C 479.56 481.54 478.23 476.00 476.18 470.70 C 475.72 476.11 475.84 481.54 475.89 486.97 C 473.53 486.98 471.17 487.00 468.82 487.01 C 468.62 478.68 468.64 470.34 468.81 462.01 Z" />
<path fill="#030203" opacity="1.00" d=" M 503.91 462.02 C 511.59 461.99 519.28 461.93 526.96 462.08 C 526.95 464.02 526.95 465.97 526.96 467.92 C 522.04 468.00 517.12 468.00 512.21 468.12 C 512.21 468.56 512.21 469.44 512.22 469.89 C 516.77 469.98 521.33 470.02 525.90 470.07 C 525.89 472.02 525.89 473.97 525.90 475.93 C 521.36 475.97 516.82 476.01 512.29 476.17 C 512.29 477.72 512.28 479.27 512.28 480.83 C 517.28 481.02 522.29 481.02 527.29 481.03 C 527.30 483.01 527.30 484.99 527.29 486.98 C 519.50 487.03 511.70 487.03 503.91 486.98 C 503.79 478.66 503.80 470.34 503.91 462.02 Z" />
<path fill="#030203" opacity="1.00" d=" M 527.89 462.03 C 536.63 461.97 545.37 461.97 554.12 462.03 C 554.12 463.99 554.12 465.95 554.12 467.92 C 551.17 467.99 548.22 468.06 545.28 468.16 C 545.43 474.43 545.45 480.72 545.26 487.00 C 542.41 487.00 539.57 487.00 536.74 487.00 C 536.55 480.72 536.57 474.44 536.73 468.16 C 533.78 468.06 530.83 467.99 527.88 467.92 C 527.87 465.95 527.88 463.99 527.89 462.03 Z" />
<path fill="#030203" opacity="1.00" d=" M 561.27 462.15 C 564.52 462.03 567.78 461.98 571.04 461.93 C 574.53 470.24 578.09 478.53 581.23 486.98 C 578.25 486.99 575.27 486.97 572.30 486.91 C 571.80 485.61 571.31 484.32 570.82 483.03 C 567.62 483.02 564.42 483.02 561.23 483.05 C 560.74 484.34 560.26 485.64 559.78 486.95 C 556.87 486.97 553.97 486.98 551.07 486.99 C 554.39 478.68 558.02 470.49 561.27 462.15 M 563.09 476.96 C 565.07 476.97 567.05 476.97 569.04 476.98 C 568.22 474.24 567.35 471.53 566.41 468.84 C 565.11 471.46 564.05 474.19 563.09 476.96 Z" />
<path fill="#030203" opacity="1.00" d=" M 585.89 463.78 C 591.99 460.93 600.10 461.17 605.39 465.61 C 610.13 470.19 609.05 477.57 606.21 482.87 C 607.24 483.64 608.27 484.41 609.31 485.19 C 608.78 486.40 608.25 487.62 607.74 488.84 C 600.81 484.11 592.10 489.36 585.15 484.84 C 577.61 480.48 577.90 467.51 585.89 463.78 M 588.36 473.21 C 587.50 477.47 590.53 480.95 594.65 481.54 C 594.09 479.99 593.52 478.45 592.99 476.91 C 595.15 477.45 597.29 478.06 599.43 478.72 C 599.78 475.85 600.68 472.62 599.01 469.99 C 595.97 466.22 588.33 467.86 588.36 473.21 Z" />
<path fill="#030203" opacity="1.00" d=" M 611.92 462.00 C 614.71 462.00 617.50 462.00 620.31 462.00 C 620.55 467.13 620.09 472.29 620.65 477.41 C 620.76 482.06 629.32 482.38 629.76 477.79 C 630.35 472.54 629.87 467.24 630.01 461.97 C 632.90 461.99 635.80 462.03 638.70 462.11 C 637.68 469.66 641.56 480.07 634.04 485.16 C 627.87 488.07 618.94 488.18 613.93 483.02 C 610.18 476.75 612.35 468.94 611.92 462.00 Z" />
<path fill="#030203" opacity="1.00" d=" M 641.91 462.02 C 649.57 461.98 657.23 461.94 664.89 462.06 C 664.89 464.01 664.89 465.97 664.90 467.94 C 660.00 468.00 655.10 468.00 650.21 468.12 C 650.21 468.56 650.22 469.45 650.22 469.89 C 654.77 469.98 659.33 470.02 663.89 470.06 C 663.89 472.01 663.89 473.97 663.90 475.93 C 659.36 475.97 654.82 476.02 650.29 476.17 C 650.28 477.72 650.28 479.27 650.29 480.84 C 655.28 481.02 660.29 481.02 665.29 481.03 C 665.29 483.00 665.30 484.99 665.30 486.98 C 657.50 487.03 649.70 487.02 641.91 486.98 C 641.79 478.66 641.79 470.34 641.91 462.02 Z" />
<path fill="#030203" opacity="1.00" d=" M 671.46 463.38 C 678.29 460.58 688.53 461.17 691.36 469.25 C 685.66 472.07 680.08 466.38 674.52 469.16 C 679.21 472.36 685.72 471.20 690.02 475.05 C 693.69 478.74 690.50 484.89 685.98 486.03 C 678.92 488.26 668.00 487.69 666.12 478.82 C 669.53 477.76 673.21 477.60 676.20 479.85 C 678.20 481.52 683.84 481.64 683.12 478.12 C 678.54 475.51 672.21 476.57 668.52 472.36 C 665.97 469.33 667.98 464.64 671.46 463.38 Z" />
<path fill="#030203" opacity="1.00" d=" M 692.89 462.03 C 701.63 461.97 710.37 461.97 719.12 462.03 C 719.11 463.99 719.11 465.95 719.12 467.91 C 716.17 467.98 713.22 468.06 710.28 468.16 C 710.42 474.44 710.44 480.72 710.26 487.00 C 707.41 487.00 704.57 487.00 701.74 487.00 C 701.55 480.72 701.57 474.44 701.72 468.16 C 698.77 468.06 695.82 467.98 692.88 467.92 C 692.87 465.95 692.87 463.99 692.89 462.03 Z" />
</g>
<g id="#e2372dff">
<path fill="#e2372d" opacity="1.00" d=" M 595.70 143.62 C 614.19 131.76 636.20 125.72 658.04 124.33 C 693.19 122.22 729.63 136.39 752.10 163.91 C 771.47 185.71 782.60 214.76 781.87 244.00 C 782.48 261.87 777.90 279.28 773.35 296.38 C 761.97 325.74 745.64 353.95 722.02 375.14 C 733.05 354.79 744.57 332.98 744.41 309.24 C 748.27 306.64 752.95 303.75 753.39 298.60 C 754.84 287.82 755.38 276.92 755.49 266.05 C 761.77 222.57 739.88 175.00 700.25 154.66 C 674.47 139.77 642.85 138.08 614.43 145.38 C 608.22 144.45 601.95 144.00 595.70 143.62 Z" />
<path fill="#e2372d" opacity="1.00" d=" M 361.23 259.22 C 368.79 251.01 380.73 251.13 390.96 249.75 C 385.03 253.70 378.45 257.73 375.58 264.59 C 369.10 278.78 370.92 294.62 370.24 309.73 C 364.00 309.73 357.73 309.49 351.55 310.47 C 357.99 311.01 364.46 310.85 370.91 310.93 C 371.01 311.79 371.19 313.51 371.28 314.37 C 364.62 314.65 357.91 314.28 351.30 315.37 C 356.99 318.77 363.82 316.93 370.06 316.91 L 370.06 317.97 C 364.33 317.68 358.59 317.75 352.86 317.94 C 354.17 329.32 357.72 341.54 367.06 348.95 C 378.37 357.41 393.16 357.84 406.64 359.52 C 444.04 363.81 481.72 361.88 519.26 362.53 C 509.48 363.99 499.60 362.90 489.78 363.54 C 500.57 363.96 511.38 363.31 522.17 363.96 C 516.19 365.29 510.05 364.47 504.00 364.65 C 473.99 365.07 443.93 365.12 413.98 362.88 C 398.00 362.00 381.77 360.75 366.56 355.43 C 359.31 352.99 353.53 346.98 351.40 339.63 C 347.42 327.17 346.87 313.87 346.44 300.89 C 346.58 302.23 346.74 303.56 346.89 304.91 C 347.70 304.96 349.32 305.06 350.13 305.11 C 351.20 289.52 349.71 271.53 361.23 259.22 Z" />
<path fill="#e2372d" opacity="1.00" d=" M 730.58 264.26 C 735.43 264.33 740.28 264.39 745.13 264.43 C 745.51 267.53 745.72 270.65 745.79 273.77 C 745.14 273.76 743.85 273.74 743.20 273.73 C 745.05 275.27 746.37 277.29 747.09 279.60 C 745.75 279.66 744.41 279.74 743.08 279.83 C 744.52 281.10 745.98 282.35 747.41 283.65 C 745.44 283.62 743.48 283.52 741.52 283.50 C 743.16 284.60 744.83 285.65 746.47 286.75 C 746.63 287.67 746.80 288.58 746.98 289.50 C 745.25 289.42 743.53 289.34 741.81 289.26 C 743.43 290.35 745.06 291.43 746.70 292.52 C 746.72 293.02 746.78 294.04 746.81 294.54 C 745.04 294.65 743.28 294.61 741.53 294.69 C 743.32 295.46 745.17 296.09 747.00 296.82 C 743.85 303.20 738.42 310.03 730.60 309.86 C 730.84 294.66 730.40 279.46 730.58 264.26 M 735.47 267.59 C 736.89 280.45 735.38 293.48 737.17 306.29 C 742.17 299.86 739.89 290.63 740.65 282.99 C 739.96 277.68 743.49 268.19 735.47 267.59 Z" />
<path fill="#e2372d" opacity="1.00" d=" M 654.12 271.89 C 656.34 284.14 656.03 296.66 655.82 309.06 C 655.26 333.17 642.89 356.38 623.93 371.08 C 634.97 366.43 642.72 356.24 647.63 345.62 C 649.97 339.32 657.78 339.34 662.36 335.36 C 668.07 331.88 670.62 325.46 675.00 320.70 C 674.43 341.46 661.05 361.39 642.37 370.39 C 626.06 378.23 607.89 380.47 590.09 382.18 C 568.36 383.76 546.61 385.08 524.87 386.43 C 538.33 394.15 554.19 392.92 569.05 391.89 C 591.19 389.82 613.76 389.68 635.22 383.23 C 648.83 378.80 661.63 370.84 670.35 359.35 C 676.35 351.93 680.46 343.27 684.92 334.90 C 687.92 329.46 688.29 323.00 691.59 317.70 C 692.18 339.85 686.02 364.52 667.33 378.32 C 655.52 388.24 639.76 390.62 625.07 393.16 C 608.21 396.36 591.00 396.34 573.93 397.32 C 574.13 397.81 574.54 398.81 574.75 399.31 L 575.03 399.92 C 564.00 399.42 552.74 400.00 542.01 396.94 C 534.99 394.91 528.24 392.09 521.40 389.56 C 506.26 383.46 489.27 383.09 473.43 386.40 C 464.67 388.25 457.77 394.49 449.41 397.30 C 441.39 398.88 433.40 395.86 425.40 395.44 C 414.80 394.36 401.84 390.73 398.68 379.09 C 408.43 378.12 418.23 378.98 428.00 378.85 C 435.47 378.64 443.44 380.84 450.42 377.22 C 478.19 376.21 506.00 377.75 533.78 376.59 C 538.29 376.64 542.74 377.35 547.21 377.83 C 516.67 381.33 485.68 379.67 454.96 379.96 C 450.92 380.39 448.38 384.88 444.09 384.42 C 429.87 383.85 415.71 381.86 401.47 381.61 C 403.75 383.91 406.53 385.73 409.76 386.35 C 420.13 388.70 430.74 391.21 441.45 390.45 C 447.29 390.11 449.23 382.38 455.19 382.41 C 481.78 381.46 508.45 383.10 535.01 381.00 C 557.30 379.33 579.77 378.63 601.82 374.79 C 616.82 372.31 630.18 362.20 636.19 348.18 C 645.85 326.39 642.44 302.02 642.73 278.93 C 643.69 278.17 644.66 277.42 645.66 276.70 C 645.65 287.02 645.83 297.37 646.50 307.67 C 646.42 310.48 648.88 312.06 650.82 313.63 C 654.22 306.67 653.63 298.81 652.39 291.40 C 651.42 291.77 650.45 292.15 649.49 292.52 C 649.82 287.46 651.75 282.79 653.62 278.14 C 653.96 276.07 653.90 273.97 654.12 271.89 Z" />
<path fill="#e2372d" opacity="1.00" d=" M 347.54 447.48 C 362.59 448.21 377.67 448.26 392.73 447.89 C 393.07 448.36 393.76 449.32 394.11 449.80 C 378.59 449.91 363.05 449.28 347.55 450.10 C 347.55 449.45 347.55 448.14 347.54 447.48 Z" />
</g>
<g id="#107fb3ff">
<path fill="#107fb3" opacity="1.00" d=" M 614.43 145.38 C 642.85 138.08 674.47 139.77 700.25 154.66 C 739.88 175.00 761.77 222.57 755.49 266.05 C 752.64 256.80 742.95 250.32 733.31 253.22 C 728.22 255.74 725.26 261.58 719.22 262.54 C 716.92 255.02 715.62 247.11 711.87 240.11 C 704.15 225.23 691.33 213.53 677.18 204.86 C 655.80 192.02 631.63 183.73 606.79 181.32 C 596.82 179.93 586.75 180.66 576.74 180.03 C 587.63 169.48 600.56 160.26 615.39 156.32 C 624.16 153.85 633.28 155.44 642.21 155.64 C 634.60 148.55 623.88 148.20 614.43 145.38 Z" />
<path fill="#107fb3" opacity="1.00" d=" M 562.78 152.64 C 575.90 152.04 588.92 150.17 602.02 149.25 C 598.84 151.09 595.64 152.89 592.37 154.57 C 579.83 153.39 567.33 156.47 554.77 155.76 C 557.30 154.43 559.86 152.89 562.78 152.64 Z" />
<path fill="#107fb3" opacity="1.00" d=" M 469.01 243.90 C 501.82 243.25 534.61 240.86 567.43 241.46 C 578.25 241.52 588.66 244.54 599.19 246.63 C 606.91 250.05 608.13 259.99 609.53 267.40 C 610.85 281.78 612.50 296.27 611.88 310.72 C 611.69 312.37 611.48 314.03 611.29 315.68 C 605.78 314.86 600.21 315.47 594.69 314.85 C 600.11 314.36 605.57 314.38 610.98 313.70 C 606.61 310.35 600.83 311.97 595.76 311.56 C 594.81 306.64 589.43 303.06 584.67 305.52 C 577.52 308.81 569.60 307.67 562.00 307.65 C 498.07 307.98 434.16 309.08 370.24 309.73 C 370.92 294.62 369.10 278.78 375.58 264.59 C 378.45 257.73 385.03 253.70 390.96 249.75 C 416.54 244.21 443.00 245.59 469.01 243.90 Z" />
<path fill="#107fb3" opacity="1.00" d=" M 370.91 310.93 C 440.22 310.67 509.52 309.91 578.82 309.26 C 578.83 309.95 578.84 311.31 578.85 312.00 C 509.66 312.92 440.47 313.45 371.28 314.37 C 371.19 313.51 371.01 311.79 370.91 310.93 Z" />
<path fill="#107fb3" opacity="1.00" d=" M 729.38 312.37 C 734.62 313.70 740.13 312.52 744.41 309.24 C 744.57 332.98 733.05 354.79 722.02 375.14 C 697.57 408.88 659.02 432.68 617.22 436.37 C 591.63 438.08 564.56 435.76 541.78 423.10 C 546.85 421.98 551.81 420.35 556.50 418.10 C 564.51 420.13 572.74 421.24 580.96 422.09 C 596.97 423.63 613.42 418.88 626.29 409.27 C 631.10 405.75 634.45 399.77 640.79 398.81 C 655.78 395.79 670.62 389.50 681.52 378.52 C 697.51 361.87 700.49 337.79 701.76 315.78 C 710.92 314.40 720.01 309.96 729.38 312.37 Z" />
<path fill="#107fb3" opacity="1.00" d=" M 370.06 316.91 C 414.34 315.71 458.67 317.12 502.95 315.42 C 528.71 315.49 554.49 315.09 580.25 315.45 C 554.21 317.52 528.08 316.23 501.99 316.77 C 458.04 318.30 414.03 317.34 370.06 317.97 L 370.06 316.91 Z" />
</g>
<g id="#fbfae5ff">
<path fill="#fbfae5" opacity="1.00" d=" M 562.78 152.64 C 579.16 148.27 596.43 148.10 613.28 147.19 C 593.50 154.07 577.05 167.79 563.58 183.56 C 555.07 191.58 549.69 201.92 543.88 211.84 L 543.14 211.95 C 544.66 204.10 548.80 197.02 553.88 190.95 C 565.38 177.53 577.42 164.24 592.37 154.57 C 595.64 152.89 598.84 151.09 602.02 149.25 C 588.92 150.17 575.90 152.04 562.78 152.64 Z" />
<path fill="#fbfae5" opacity="1.00" d=" M 548.81 158.70 C 561.50 156.84 574.43 156.34 587.25 156.32 C 574.50 157.75 561.64 158.44 548.81 158.70 Z" />
<path fill="#fbfae5" opacity="1.00" d=" M 562.96 160.31 C 569.83 160.09 576.66 158.68 583.56 159.20 C 569.23 162.68 554.05 160.20 539.70 163.54 C 552.93 164.56 566.14 162.66 579.34 162.46 C 564.61 166.07 549.00 165.10 533.88 165.85 C 542.17 159.21 553.10 161.00 562.96 160.31 Z" />
<path fill="#fbfae5" opacity="1.00" d=" M 543.00 167.46 C 553.78 167.76 564.51 166.19 575.29 166.56 C 571.91 168.07 568.19 168.43 564.54 168.49 C 552.60 168.76 540.67 169.30 528.73 169.42 C 532.85 166.26 538.22 167.72 543.00 167.46 Z" />
<path fill="#fbfae5" opacity="1.00" d=" M 517.78 178.77 C 521.53 175.98 524.85 171.12 530.08 171.66 C 543.18 172.15 556.30 170.99 569.40 171.54 C 554.36 175.59 538.20 171.82 522.98 175.23 C 536.60 177.95 550.78 175.53 564.62 175.75 C 562.88 176.69 561.06 177.67 559.03 177.62 C 548.00 177.82 536.96 177.69 525.94 177.92 C 523.15 177.91 520.47 178.72 518.06 180.07 C 532.10 181.45 546.28 179.69 560.37 180.60 C 550.60 183.70 540.06 181.59 529.98 182.37 C 524.80 183.04 518.52 180.96 514.32 184.75 C 528.63 186.17 543.06 183.76 557.36 185.39 C 541.34 189.44 523.76 183.68 508.04 189.09 C 522.99 191.55 538.52 187.67 553.37 190.71 C 538.16 192.98 522.60 190.76 507.32 192.42 C 505.94 192.56 505.31 194.02 504.29 194.76 C 519.31 195.90 534.63 193.25 549.48 195.70 C 533.97 197.83 518.12 196.25 502.49 197.45 C 498.67 202.44 495.38 207.83 493.55 213.89 C 493.08 213.91 492.15 213.97 491.68 214.00 C 494.83 199.04 507.00 188.59 517.78 178.77 Z" />
<path fill="#fbfae5" opacity="1.00" d=" M 500.33 201.05 C 515.05 199.34 530.03 200.07 544.86 199.79 L 544.85 200.79 C 530.05 201.27 515.07 202.70 500.33 201.05 Z" />
<path fill="#fbfae5" opacity="1.00" d=" M 555.70 207.56 C 558.08 206.91 560.52 206.43 563.01 206.32 C 586.95 205.59 611.19 205.24 634.73 210.36 C 654.08 213.27 672.94 222.17 685.81 237.19 C 693.18 245.58 697.57 256.41 698.74 267.47 C 698.09 267.55 696.81 267.71 696.17 267.79 C 694.40 257.91 691.88 247.66 685.12 239.89 C 670.00 221.59 646.01 213.11 622.95 211.15 C 614.81 210.70 606.72 209.71 598.72 208.20 C 584.48 205.66 570.02 208.52 555.70 207.56 Z" />
<path fill="#fbfae5" opacity="1.00" d=" M 622.79 215.79 C 631.02 215.89 639.91 217.09 646.48 222.49 C 653.53 228.02 661.06 233.41 665.81 241.19 C 671.42 250.25 675.05 260.62 675.96 271.25 C 674.77 270.72 673.56 270.26 672.48 269.55 C 667.53 262.20 659.39 258.81 651.20 256.42 C 647.77 239.64 637.83 224.31 622.79 215.79 Z" />
<path fill="#fbfae5" opacity="1.00" d=" M 384.93 230.88 C 443.09 224.99 501.56 222.32 559.99 221.39 C 575.34 221.69 591.01 220.12 606.03 224.04 C 616.06 226.79 625.36 233.56 630.08 242.95 C 632.44 249.57 635.21 256.14 636.13 263.16 C 638.81 286.75 640.02 310.99 634.46 334.27 C 630.72 350.66 618.67 365.98 601.75 369.87 C 579.52 375.13 556.51 375.60 533.78 376.59 C 506.00 377.75 478.19 376.21 450.42 377.22 C 431.27 376.64 412.05 376.43 393.03 373.93 C 382.09 372.72 370.30 372.47 360.84 366.13 C 349.62 358.69 344.59 345.19 342.59 332.42 C 339.06 314.54 339.36 296.15 341.15 278.09 C 342.82 265.43 345.26 251.86 354.02 242.01 C 362.07 233.85 374.15 232.45 384.93 230.88 M 532.47 230.60 C 481.51 232.38 430.48 233.81 379.70 238.61 C 369.74 239.91 358.26 241.09 351.46 249.43 C 346.24 256.64 344.80 265.72 343.23 274.27 C 340.54 295.58 340.84 317.42 345.53 338.43 C 347.58 347.22 351.89 356.31 360.04 360.93 C 367.57 365.13 376.36 365.85 384.70 367.33 C 441.19 373.99 498.34 373.74 555.04 369.98 C 570.89 368.25 587.10 367.42 602.31 362.29 C 616.32 357.12 624.30 342.66 626.54 328.57 C 629.54 308.83 629.92 288.61 627.24 268.80 C 625.87 258.26 622.12 247.28 613.58 240.41 C 603.00 231.39 588.29 230.38 575.01 230.36 C 560.83 230.35 546.65 230.33 532.47 230.60 Z" />
<path fill="#fbfae5" opacity="1.00" d=" M 470.04 238.77 C 500.77 237.76 531.53 237.12 562.25 238.56 C 574.70 239.82 588.17 239.97 599.19 246.63 C 588.66 244.54 578.25 241.52 567.43 241.46 C 534.61 240.86 501.82 243.25 469.01 243.90 C 443.00 245.59 416.54 244.21 390.96 249.75 C 380.73 251.13 368.79 251.01 361.23 259.22 C 349.71 271.53 351.20 289.52 350.13 305.11 C 349.32 305.06 347.70 304.96 346.89 304.91 C 346.74 303.56 346.58 302.23 346.44 300.89 C 345.94 287.28 346.34 273.14 351.30 260.30 C 355.46 250.68 366.31 247.11 375.92 245.95 C 407.09 241.32 438.64 240.68 470.04 238.77 Z" />
<path fill="#fbfae5" opacity="1.00" d=" M 662.40 276.79 C 684.24 274.21 706.22 272.21 727.71 267.31 C 727.22 279.81 726.07 292.27 726.69 304.80 C 726.35 304.79 725.68 304.76 725.34 304.75 C 726.34 292.68 723.99 280.34 726.64 268.45 C 723.11 269.20 719.60 270.03 716.11 270.95 C 716.46 282.75 716.54 294.55 716.63 306.35 C 717.30 306.34 718.63 306.32 719.30 306.31 C 719.38 294.45 718.96 282.57 719.42 270.72 C 721.54 282.60 717.94 295.00 721.20 306.67 C 701.64 310.43 682.47 316.33 662.54 318.03 C 663.71 304.34 663.57 290.48 662.40 276.79 M 712.54 277.97 C 712.74 287.73 712.59 297.50 712.74 307.27 C 713.38 307.25 714.68 307.23 715.33 307.22 C 715.21 294.95 715.69 282.67 714.98 270.42 C 711.88 271.72 712.64 275.27 712.54 277.97 M 708.67 271.77 C 709.14 284.04 709.00 296.32 709.44 308.59 C 712.13 306.98 711.38 303.65 711.52 301.03 C 711.36 291.27 711.51 281.50 711.34 271.74 C 710.67 271.75 709.33 271.76 708.67 271.77 M 700.42 272.60 C 700.84 285.28 700.18 298.02 701.56 310.64 C 704.09 308.47 703.36 304.98 703.43 302.02 C 703.11 293.41 703.35 284.78 702.63 276.19 C 702.72 274.60 701.45 273.59 700.42 272.60 M 704.40 272.73 C 704.98 282.83 704.71 292.95 704.92 303.06 C 705.05 305.38 704.83 308.13 706.99 309.66 C 707.82 297.40 707.41 285.05 706.96 272.78 C 706.32 272.77 705.04 272.74 704.40 272.73 M 695.89 273.42 C 695.80 286.10 696.49 298.79 696.52 311.48 C 697.58 310.52 699.04 309.62 698.80 307.98 C 698.83 298.65 698.35 289.31 698.44 279.98 C 698.24 277.63 698.77 274.27 695.89 273.42 M 685.44 281.96 C 685.92 292.48 685.18 303.04 686.00 313.54 C 687.20 312.54 689.29 311.95 688.82 309.97 C 688.49 298.14 689.17 286.24 687.72 274.48 C 684.55 275.70 685.49 279.32 685.44 281.96 M 690.39 274.72 C 691.18 287.20 690.65 299.72 690.93 312.23 C 691.93 311.80 692.94 311.38 693.96 310.97 C 693.60 298.92 693.89 286.84 693.14 274.80 C 692.45 274.78 691.07 274.74 690.39 274.72 M 674.83 279.02 C 674.83 291.00 674.60 303.01 675.14 314.99 C 676.23 314.73 677.31 314.42 678.39 314.07 C 678.25 301.23 678.71 288.36 677.98 275.54 C 676.64 276.47 674.39 276.92 674.83 279.02 M 680.33 281.15 C 680.71 292.08 680.42 303.03 680.70 313.96 C 681.40 313.78 682.81 313.42 683.51 313.24 C 683.53 300.63 683.64 288.00 683.02 275.41 C 680.02 275.57 680.47 279.06 680.33 281.15 M 664.78 281.94 C 664.85 293.23 665.50 304.52 665.17 315.82 C 665.92 315.82 667.42 315.84 668.17 315.85 C 668.21 303.39 668.91 290.81 667.64 278.42 C 665.85 274.45 664.65 279.97 664.78 281.94 M 669.85 276.74 C 669.75 289.67 670.51 302.58 670.25 315.51 C 670.93 315.33 672.31 314.99 672.99 314.81 C 673.81 302.19 673.15 289.47 673.05 276.81 C 672.25 276.80 670.65 276.76 669.85 276.74 Z" />
<path fill="#fbfae5" opacity="1.00" d=" M 722.02 375.14 C 745.64 353.95 761.97 325.74 773.35 296.38 C 775.01 311.97 778.27 328.70 771.62 343.59 C 754.79 385.72 721.74 420.59 681.92 441.90 C 676.36 445.15 669.93 446.51 664.46 449.92 C 685.12 450.97 705.87 449.95 726.57 450.40 C 727.04 467.26 727.07 484.12 726.99 500.99 C 600.33 501.01 473.67 501.01 347.01 500.99 C 346.91 486.53 346.95 472.08 347.50 457.64 C 347.51 455.13 347.55 452.61 347.55 450.10 C 363.05 449.28 378.59 449.91 394.11 449.80 C 430.81 450.29 467.59 451.12 504.26 449.66 C 492.67 445.38 480.40 443.37 468.62 439.70 C 493.01 434.18 517.34 428.41 541.78 423.10 C 564.56 435.76 591.63 438.08 617.22 436.37 C 659.02 432.68 697.57 408.88 722.02 375.14 M 352.88 462.03 C 352.88 463.99 352.87 465.95 352.88 467.92 C 355.82 467.99 358.77 468.06 361.72 468.15 C 361.57 474.43 361.55 480.72 361.74 487.00 C 364.58 487.00 367.42 487.00 370.26 487.00 C 370.45 480.72 370.43 474.43 370.27 468.15 C 373.22 468.06 376.17 467.99 379.12 467.92 C 379.12 465.95 379.12 463.99 379.11 462.03 C 370.37 461.97 361.63 461.97 352.88 462.03 M 389.34 462.29 C 381.60 463.00 376.70 471.47 379.31 478.64 C 381.84 487.07 392.65 488.42 399.90 486.03 C 409.38 483.48 410.51 468.34 402.01 463.96 C 398.14 461.97 393.58 461.57 389.34 462.29 M 411.01 462.03 C 410.98 470.34 410.98 478.66 411.01 486.97 C 417.04 486.85 423.21 487.67 429.12 486.18 C 439.76 483.41 439.19 464.82 428.49 462.54 C 422.74 461.43 416.83 462.13 411.01 462.03 M 448.34 462.30 C 440.25 463.00 435.45 472.16 438.57 479.43 C 441.77 487.49 452.48 488.40 459.64 485.76 C 468.79 482.57 469.21 467.37 460.33 463.62 C 456.60 461.94 452.34 461.60 448.34 462.30 M 468.81 462.01 C 468.64 470.34 468.62 478.68 468.82 487.01 C 471.17 487.00 473.53 486.98 475.89 486.97 C 475.84 481.54 475.72 476.11 476.18 470.70 C 478.23 476.00 479.56 481.54 481.15 486.99 C 483.37 486.96 485.60 486.93 487.83 486.89 C 489.38 481.43 490.66 475.88 492.84 470.62 C 493.29 476.06 493.15 481.52 493.11 486.97 C 495.43 486.98 497.75 487.00 500.08 487.01 C 500.21 478.67 500.19 470.34 500.09 462.01 C 496.39 461.98 492.70 461.98 489.01 462.03 C 487.44 467.00 486.06 472.03 484.56 477.03 C 482.76 472.12 481.47 467.05 479.98 462.04 C 476.25 461.99 472.53 461.98 468.81 462.01 M 503.91 462.02 C 503.80 470.34 503.79 478.66 503.91 486.98 C 511.70 487.03 519.50 487.03 527.29 486.98 C 527.30 484.99 527.30 483.01 527.29 481.03 C 522.29 481.02 517.28 481.02 512.28 480.83 C 512.28 479.27 512.29 477.72 512.29 476.17 C 516.82 476.01 521.36 475.97 525.90 475.93 C 525.89 473.97 525.89 472.02 525.90 470.07 C 521.33 470.02 516.77 469.98 512.22 469.89 C 512.21 469.44 512.21 468.56 512.21 468.12 C 517.12 468.00 522.04 468.00 526.96 467.92 C 526.95 465.97 526.95 464.02 526.96 462.08 C 519.28 461.93 511.59 461.99 503.91 462.02 M 527.89 462.03 C 527.88 463.99 527.87 465.95 527.88 467.92 C 530.83 467.99 533.78 468.06 536.73 468.16 C 536.57 474.44 536.55 480.72 536.74 487.00 C 539.57 487.00 542.41 487.00 545.26 487.00 C 545.45 480.72 545.43 474.43 545.28 468.16 C 548.22 468.06 551.17 467.99 554.12 467.92 C 554.12 465.95 554.12 463.99 554.12 462.03 C 545.37 461.97 536.63 461.97 527.89 462.03 M 561.27 462.15 C 558.02 470.49 554.39 478.68 551.07 486.99 C 553.97 486.98 556.87 486.97 559.78 486.95 C 560.26 485.64 560.74 484.34 561.23 483.05 C 564.42 483.02 567.62 483.02 570.82 483.03 C 571.31 484.32 571.80 485.61 572.30 486.91 C 575.27 486.97 578.25 486.99 581.23 486.98 C 578.09 478.53 574.53 470.24 571.04 461.93 C 567.78 461.98 564.52 462.03 561.27 462.15 M 585.89 463.78 C 577.90 467.51 577.61 480.48 585.15 484.84 C 592.10 489.36 600.81 484.11 607.74 488.84 C 608.25 487.62 608.78 486.40 609.31 485.19 C 608.27 484.41 607.24 483.64 606.21 482.87 C 609.05 477.57 610.13 470.19 605.39 465.61 C 600.10 461.17 591.99 460.93 585.89 463.78 M 611.92 462.00 C 612.35 468.94 610.18 476.75 613.93 483.02 C 618.94 488.18 627.87 488.07 634.04 485.16 C 641.56 480.07 637.68 469.66 638.70 462.11 C 635.80 462.03 632.90 461.99 630.01 461.97 C 629.87 467.24 630.35 472.54 629.76 477.79 C 629.32 482.38 620.76 482.06 620.65 477.41 C 620.09 472.29 620.55 467.13 620.31 462.00 C 617.50 462.00 614.71 462.00 611.92 462.00 M 641.91 462.02 C 641.79 470.34 641.79 478.66 641.91 486.98 C 649.70 487.02 657.50 487.03 665.30 486.98 C 665.30 484.99 665.29 483.00 665.29 481.03 C 660.29 481.02 655.28 481.02 650.29 480.84 C 650.28 479.27 650.28 477.72 650.29 476.17 C 654.82 476.02 659.36 475.97 663.90 475.93 C 663.89 473.97 663.89 472.01 663.89 470.06 C 659.33 470.02 654.77 469.98 650.22 469.89 C 650.22 469.45 650.21 468.56 650.21 468.12 C 655.10 468.00 660.00 468.00 664.90 467.94 C 664.89 465.97 664.89 464.01 664.89 462.06 C 657.23 461.94 649.57 461.98 641.91 462.02 M 671.46 463.38 C 667.98 464.64 665.97 469.33 668.52 472.36 C 672.21 476.57 678.54 475.51 683.12 478.12 C 683.84 481.64 678.20 481.52 676.20 479.85 C 673.21 477.60 669.53 477.76 666.12 478.82 C 668.00 487.69 678.92 488.26 685.98 486.03 C 690.50 484.89 693.69 478.74 690.02 475.05 C 685.72 471.20 679.21 472.36 674.52 469.16 C 680.08 466.38 685.66 472.07 691.36 469.25 C 688.53 461.17 678.29 460.58 671.46 463.38 M 692.89 462.03 C 692.87 463.99 692.87 465.95 692.88 467.92 C 695.82 467.98 698.77 468.06 701.72 468.16 C 701.57 474.44 701.55 480.72 701.74 487.00 C 704.57 487.00 707.41 487.00 710.26 487.00 C 710.44 480.72 710.42 474.44 710.28 468.16 C 713.22 468.06 716.17 467.98 719.12 467.91 C 719.11 465.95 719.11 463.99 719.12 462.03 C 710.37 461.97 701.63 461.97 692.89 462.03 Z" />
<path fill="#fbfae5" opacity="1.00" d=" M 694.90 326.97 C 695.34 323.15 694.74 319.06 696.68 315.57 C 698.05 341.28 689.88 370.42 666.90 384.85 C 655.53 392.27 642.14 395.63 628.90 397.84 C 612.87 401.31 596.38 403.17 579.98 401.95 C 578.29 401.61 575.87 401.75 575.03 399.92 L 574.75 399.31 C 599.18 400.80 623.88 397.56 647.57 391.54 C 665.08 386.82 679.97 373.92 687.49 357.46 C 691.80 347.85 693.88 337.41 694.90 326.97 Z" />
<path fill="#fbfae5" opacity="1.00" d=" M 467.60 406.60 C 474.51 400.90 475.09 389.13 484.80 386.83 C 479.14 398.47 472.21 412.62 458.05 415.04 C 447.19 416.92 432.05 414.37 428.65 402.08 C 436.70 414.75 456.84 416.87 467.60 406.60 Z" />
<path fill="#fbfae5" opacity="1.00" d=" M 532.91 397.99 C 539.78 399.84 545.54 404.17 551.93 407.12 C 564.38 413.11 578.04 417.62 592.03 416.85 C 599.30 416.71 606.20 414.16 613.33 413.05 C 603.41 418.46 591.64 419.32 580.57 418.36 C 563.26 416.30 545.94 409.78 532.91 397.99 Z" />
<path fill="#fbfae5" opacity="1.00" d=" M 390.49 468.43 C 394.90 466.45 400.15 469.99 399.08 474.98 C 399.84 480.33 392.85 482.88 389.20 479.71 C 386.40 476.64 386.58 470.50 390.49 468.43 Z" />
<path fill="#fbfae5" opacity="1.00" d=" M 419.82 467.74 C 424.29 467.40 429.07 469.76 428.05 474.97 C 428.85 480.01 423.85 481.63 419.79 481.21 C 419.55 476.72 419.54 472.22 419.82 467.74 Z" />
<path fill="#fbfae5" opacity="1.00" d=" M 449.48 468.43 C 458.35 463.96 461.92 480.48 452.91 480.99 C 445.90 482.37 443.97 471.22 449.48 468.43 Z" />
<path fill="#fbfae5" opacity="1.00" d=" M 588.36 473.21 C 588.33 467.86 595.97 466.22 599.01 469.99 C 600.68 472.62 599.78 475.85 599.43 478.72 C 597.29 478.06 595.15 477.45 592.99 476.91 C 593.52 478.45 594.09 479.99 594.65 481.54 C 590.53 480.95 587.50 477.47 588.36 473.21 Z" />
<path fill="#fbfae5" opacity="1.00" d=" M 563.09 476.96 C 564.05 474.19 565.11 471.46 566.41 468.84 C 567.35 471.53 568.22 474.24 569.04 476.98 C 567.05 476.97 565.07 476.97 563.09 476.96 Z" />
</g>
</svg>
